<mxfile host="Electron" modified="2024-06-11T11:46:28.681Z" agent="Mozilla/5.0 (Windows NT 10.0; Win64; x64) AppleWebKit/537.36 (KHTML, like Gecko) draw.io/24.2.5 Chrome/120.0.6099.109 Electron/28.1.0 Safari/537.36" etag="zHG9K570aNStHp4wXxCu" version="24.2.5" type="device">
  <diagram name="Page-1" id="pnmmrmMmQEoPrk8f0Ppy">
    <mxGraphModel dx="1775" dy="1028" grid="1" gridSize="10" guides="1" tooltips="1" connect="1" arrows="1" fold="1" page="1" pageScale="1" pageWidth="1100" pageHeight="850" background="#EDEDED" math="0" shadow="0">
      <root>
        <mxCell id="0" />
        <mxCell id="1" parent="0" />
        <mxCell id="R5m0K3MdsQXHiXzFZC0X-19" value="" style="rounded=0;whiteSpace=wrap;html=1;movable=1;resizable=1;rotatable=1;deletable=1;editable=1;locked=0;connectable=1;shadow=1;strokeColor=#007FFF;strokeWidth=3;" vertex="1" parent="1">
          <mxGeometry x="10" y="45" width="1080" height="750" as="geometry" />
        </mxCell>
        <mxCell id="R5m0K3MdsQXHiXzFZC0X-1" value="" style="whiteSpace=wrap;html=1;aspect=fixed;" vertex="1" parent="1">
          <mxGeometry x="NaN" y="NaN" width="NaN" height="140" as="geometry" />
        </mxCell>
        <mxCell id="R5m0K3MdsQXHiXzFZC0X-10" value="&lt;font style=&quot;font-size: 18px;&quot;&gt;Machine Learning Operations Canvas (v0.1)&lt;/font&gt;" style="text;strokeColor=none;fillColor=none;html=1;fontSize=24;fontStyle=1;verticalAlign=middle;align=center;" vertex="1" parent="1">
          <mxGeometry x="10" y="5" width="380" height="30" as="geometry" />
        </mxCell>
        <mxCell id="R5m0K3MdsQXHiXzFZC0X-11" value="&lt;font style=&quot;font-size: 12px;&quot;&gt;Product name:&lt;/font&gt;" style="text;strokeColor=none;fillColor=none;html=1;fontSize=24;fontStyle=1;verticalAlign=middle;align=center;" vertex="1" parent="1">
          <mxGeometry x="390" width="100" height="40" as="geometry" />
        </mxCell>
        <mxCell id="R5m0K3MdsQXHiXzFZC0X-12" value="&lt;span style=&quot;font-size: 12px;&quot;&gt;Designed by:&lt;/span&gt;" style="text;strokeColor=none;fillColor=none;html=1;fontSize=24;fontStyle=1;verticalAlign=middle;align=center;" vertex="1" parent="1">
          <mxGeometry x="610" width="100" height="40" as="geometry" />
        </mxCell>
        <mxCell id="R5m0K3MdsQXHiXzFZC0X-13" value="&lt;span style=&quot;font-size: 12px;&quot;&gt;Date:&lt;/span&gt;" style="text;strokeColor=none;fillColor=none;html=1;fontSize=24;fontStyle=1;verticalAlign=middle;align=center;" vertex="1" parent="1">
          <mxGeometry x="790" width="100" height="40" as="geometry" />
        </mxCell>
        <mxCell id="R5m0K3MdsQXHiXzFZC0X-14" value="&lt;span style=&quot;font-size: 12px;&quot;&gt;Iteration:&lt;/span&gt;" style="text;strokeColor=none;fillColor=none;html=1;fontSize=24;fontStyle=1;verticalAlign=middle;align=center;" vertex="1" parent="1">
          <mxGeometry x="910" width="100" height="40" as="geometry" />
        </mxCell>
        <mxCell id="R5m0K3MdsQXHiXzFZC0X-15" value="" style="rounded=1;whiteSpace=wrap;html=1;" vertex="1" parent="1">
          <mxGeometry x="490" y="10" width="130" height="30" as="geometry" />
        </mxCell>
        <mxCell id="R5m0K3MdsQXHiXzFZC0X-16" value="" style="rounded=1;whiteSpace=wrap;html=1;" vertex="1" parent="1">
          <mxGeometry x="700" y="10" width="120" height="30" as="geometry" />
        </mxCell>
        <mxCell id="R5m0K3MdsQXHiXzFZC0X-17" value="" style="rounded=1;whiteSpace=wrap;html=1;" vertex="1" parent="1">
          <mxGeometry x="860" y="10" width="70" height="30" as="geometry" />
        </mxCell>
        <mxCell id="R5m0K3MdsQXHiXzFZC0X-18" value="" style="rounded=1;whiteSpace=wrap;html=1;" vertex="1" parent="1">
          <mxGeometry x="990" y="10" width="70" height="30" as="geometry" />
        </mxCell>
        <mxCell id="R5m0K3MdsQXHiXzFZC0X-22" value="&lt;span style=&quot;font-size: 12px;&quot;&gt;By Nicki Skafte Detlefsen&lt;/span&gt;" style="text;strokeColor=none;fillColor=none;html=1;fontSize=24;fontStyle=1;verticalAlign=middle;align=center;" vertex="1" parent="1">
          <mxGeometry x="13" y="800" width="250" height="20" as="geometry" />
        </mxCell>
        <mxCell id="R5m0K3MdsQXHiXzFZC0X-28" value="" style="shape=image;imageAspect=0;aspect=fixed;verticalLabelPosition=bottom;verticalAlign=top;image=data:image/png,iVBORw0KGgoAAAANSUhEUgAAAfQAAAH0CAYAAADL1t+KAAEAAElEQVR4Xuz9Z3MjWZYlioLQglprFVprkVrrUtnVVV3dPT2371jbXLNn9ux9mj/xPs6nNzZz77TNdM90l+iqyqrUOjMiMlSG1opaKxAgtOBby90RySABEspBgNxehQSDdHHOOsfPPlutbTDIIQgIAoKAICAICAKCgCAgCAgCgoAgIAgIAoKAICAICAKCgCAgCAgCgoAgIAgIAoKAICAICAKCgCAgCAgCgoAgIAgIAoKAICAICAKCgCAgCAgCgoAgIAgIAoKAICAICAKCgCAgCAgCgoAgIAgIAoKAICAICAKCgCAgCAgCgoAgIAgIAoKAICAICAKCgCAgCAgCgoAgIAgIAoKAICAICAKCgCAgCAgCgoAgIAgIAoLABkSgbAP2SbokCJQEApFo1ByNLZpjsTi+46ZoNG7Bzyb8bI7FF03x+KIxboibFuOGssXFRSM++DaUxQ0G4yL+9vjf6t+MaqcXE33HqYal7/fjPzwJjnKKdl7ilDQuS47wE+tJGW6LXywajYZ4mcEYLzOWKR9jGX6HbuDnWFlZ2aKxDL9TzlF/LjMaFvl7k9EYM5uNEX4sJpP6bTbFSmJwpZGCwDogIAJ9HUCXR258BCLRWBkEsim+qAhmkyaQIXgNZdF43OwPRpyBQLh8wR+u4sfrD1Xz2+cPVfkC4UpfIFIRCkcdFO7RaMwCwY9PTBH2isBXNwD4OaZsBiKRuBXPgqhUhPIP/1kONc7A/5a898mEd1oCPdXakfg9ZLIilOMWC4SyyRS1Woxhs9kctZiMUfwuDOGsfkya0MbPPC/xN7vN4qsqt89WlttnqsptMxXltrlKp23eajWHzMayqLYh4AYhjmdxc4BvQ9xqMafYvGz8eSc93NwIiEDf3OMvvdcBAY8vVD7vDdTNe4O18wvBBnzqff5wtT8YrgiEIMiDUVcwFHEEQlFXOBK1ByG4Q6GoM8hPJOoIhyOOUDjuisRi1nhs0ZTQ1mPxuDEOdR2/M2q/w6YhXobfl8VwHiQ1DgNkmibWk/WNbzzFHT+P3/5klzzxu8SZywQlz1GU8KW/X3JX6OUU6qaymBEquBkat8lkhDaO35nLYmajKc6/maCp43dxs8kYplaOc/FzGYS9OWy3WxacNvOCA98U8C7+22n1uviz0zrvciifOafD6nY5LPP4nQfn+FwOmwe/C+owvHJLQaBoERCBXrRDIw0rZgQgnO2RSMwGTRzfcWsY36FIzLHgC1bPeQP1kzML7VOzvvapOV8HPm1znkCTZyFYvuALO3CtNQItG2ZzKJUUrTAyqxLWhG9FSKpyF//l/zV9G2erMhj/5lmFe3mTmeLZkBRyPt2BS/SD38rttF9oAHB3giOmPR2eBoOBwt9ht0YrnNZAdYWDGvxMdYV9vKrCMYXvSX5Xlltna6uck3XVrnGnw+Kxms0Bm9UUsFr44c9m5V5yCAIbDYHCrQkbDTnpz6ZBQDOfm2HSNtKvPTvvb6LAnnH72mbc/raZeX/r9Jy/dXbe1wRtvAbm8vIwhX0kZuUnDE2bQh+mcWMsFjPE43AoUyQvNX0XVEDrP3RPGAByfNxS/wEUfoPRaDJAg1+ETz0GE30MJnuY6o0RE/3tNN/DpO+wWgJVlfaZuhrnaHNtxVBjfXl/U115X1NdRT+E/TS0eQ/dATTTq357xUIgpvocx0ouX18ERKCvL/7y9CJHYNrtq59zBxqm532ts25/C4R3EwR5y4w70OrxBRs9C6FmmNhrPAsBp3ch5IRJnYJbDQfj/5Uv7WdFC9W07CLvd6bNo2Ne6Z6mtedToCdrSyJUgN+qwNdaoPybQr/MYIcmXuGy+2orHXPVlfbJmirncE2lY7yuyjVRU2mfqq50TFeXQ7OvtE/g55kKp90NjV7M9JkOvpxfNAiIQC+aoZCGrCcC8GWbYTK3h8NRO4PRfMFIuccbbBib9vaOTMxvHZ6Y34ZP79D4fKc/GHJA47ZBdpjVYDfKE3qwlwiW9exMCTw7lRE/n02nP0PZUOE/kO8MmotC0EcdNksQgtwLjX2kqaFisLle+fQ11pYP1tc4R+iXxzl+u83ss1pNIZjsJbI+nwMj99INARHoukErNy4FBGBCL0NQmh1m9MaxKU/PyIRn68ike+vopGcLhHmX1xeq1YLYbH4GtAUiNgShPRlTtlQDL4VOF2MbE8F6OrRtSeC/cndq7zDVU4MP2GzmoPptCcIvPw1Nfaqjqephd3vtre62mputDRX90OgnmTIHE72Y5HUYH7ll/hAQgZ4/LOVOJYIATOJlCFCrRbBa8zSC1iZnF7pGpzxbJqcWuvFz+8Sct2Nmzl8z6wm4kB6maHgJ0zl8rRkGo2kyYLkoYBwcPrw3b47bKgc1fUSu8ycteDxz43WyK+D/1x6wxEStnchnwo+sCDrtm502IC0O0fRPxo8pzUy4DTS/v9KHXI8lAv2H+z0p5bUguVyf9Bjnx5YV/Ib4IArfgEj6aGOta7q1qXKgtbHyQVtD1cM2fNfXuIbrq50jtdWuyQqX1YMNgQTW5WUk5Cb5RCAPb2I+myP3EgTyjwAC0aiFO0PhmN0fCFe4PcGG4cn5rQ8GZw48HJo5AJP6dgj2WmrqEKamaHzRgtQwLPLQxLPVyRShpwpriEn1OyH4lnyrUetqKLviBab2H0fgHJ6t2fApQTMCZblAVzRSM9PGTHF8BxFQFvwhPQypYvi31WwMmM0kbymDJmpSCF+YThcGZsh1Rw583I7UOAsEvAmbHHwv2vGzFUIf+fAxA/6dURtXO1nFSQtAeEyUg3+nGIyE//6HUxOO9cybRKwQSW9Aeh1T7MLlDpu3qbZ8pKO16m53a83tnrbaWy2NFf0w2U8zlc6GqHnkxQcRQS9m+czhlivyjEBmK0WeHy63EwQKgQD94/cHZ/Y+HJw5+HBw+jB/nphdaPP7w5UL/hByw5V8cFVeJKLN0wpe+0FwPBYqigJrQgKaGULBYjCaLfi24hsffiNCm8I9Fg0Z4pGQIRoJGGKRMIR4RJNHqmaeqTaquu9xHQSrIluVIDGlQ3GHzRyCf3geWqanutI5jYCwISXVq9wOE7NzEulfUy6nxYN0roBG0qJIZwhpM/LlnfOeYD2i9+uYT+/Gh7EF+LkVVo76mflA1fiUpwqpeDZcws4pWj4NEMp31tq7tjQlrADADWIW900Ie23mKJsura8abovKZogKdHbL29KAOwp3pLpFESy3AN/6AvPcG2pco91ttfd622uvb2mvuwLz/G3gOV+IuSzPEARW3QwLPILARkMgEAw75hdCtUwvm/P4m8anF7oeDc/u7R+Z3TMEbRzBbY1+P8nLNOGjBU6tjcMPoVyqqdykCGhFgMNcSymm/NtohvA2488U5vhWhBH4TBUzehyCMmqIQ6DHINBjkSCEOwV6dO3HJ2SYGtatbEBU2jdFq4yDSCVQ7oTQwbcifByWmXKnXYnwhrlYieSudDnmKl22mUowr5W7bG6wsPHfbgjzUKoGYNNTjliCarDZVSGPvgb/rsG/axYC4Sq3N1A7M+tvmvUGGr2+YB3+3oC/u/A3J8h0ygPBiCO2CFZXLf5dle+qCyOTg8Q0xLtMcVWoG4WE+X/pfRRhrmxqNLdFYqOjCHkVt0wPxQ2iBT4i5sLgtFsiLQ0V0+3NVY/am2rudrVW3W5trHrEoLrGGtdITbVz0ioUtZnCLOfnAYEMX6s8PFFuIQjogAAi0y3I/bZDmFQhuK27f9S97/7A9OEHg9P74B/voHDBOXYQutBMnLYGrDG/PGE2VwQ0hLZJ0bqhhRspuC2qAIdGzr9TaIF53bAIH3wc2jc18hi18bCmkS/G0AZYaRPR8WkKGmq9MAXThB4DbarfAhM6zL5BCBl/Q61rvAkR2xAsw0315UMwFQ821lUgVcs+hd1LBOZksLIZo9TCISAVdjb+jnnYZHBLNSyklqUrQqWwhcrPn+F2h9A0akx2ZpLpjE95u8YRSDiG74kZbye/Z+Z8Df5wxAnMkc4H83100YlvI1P7KBwzOh5bTWgBoM9f20wl4hHUvYKydVB09oT2DheGmoVAdwafqQY1ZivgE2MA7OGiMIUYEY+I+fFdWxov7u5tPL+9q/4iUuQmyp02N0zxIWyWIhn1U04WBLJEQAR6lsDJZcWDAFjazFMz3rZ7g9MHbj+cOnmvf/IIhMkW5IhXuxcClf5AxJIIClMMtquqh6oZXRU1zGemhk3hbVMEuMlC87ldMZ9TKzeS3I3BbYmfqUniiMUgxMN+QwSfKD6LNLFTsMSgneM7HU3xSTM6g+UU7TBYW+30QiMcb2+qutveVHkXZClDMKePloMsBSxqCzjHq1CmggLVCYpUCJ301f8sh5U888C5Ahz15TC/u/zBKHAPV0Brr5mYWeiggMd3D4IOuyemFxrGZ7w1ON+hWOfV//ygdafTBkVwJ7R11TKiWkfUsVAJ9zTXBQW5MpwJx4gq2BmrAFRVS4cyJukfCetIIt3BaTXHaqocs3BhzGFD1b9nS9P5XVsazm3tbLiKjdYYNl+6j0H6rZczNyoCItA36shu8H7B721FIZPqqbmFlpFJz7b+4bl9DxDg9nBoej9Sz9qhqVsy899iVV9qMlcEOQUF/eAU4tTCbQYjBbqRmrl5CcKsiQLhgIA2auNx+MRV33hAEebUztMVGAn/LTcgEAKGcoc1DNO4F2bxOZjTZ0BnOqrkTTdUDrTVVz5qbijvhzAfgx98ejUte72mQygStdH1gYyClmlQ4YKop5Use9Te+TP47pvwgQk/WIncfxutJ5mb5amtM2PgB4Gu/qwFJi7rvOpzp1BXAw9V7Z3j94MvPuHSSGfjtRxbaOXR3va6wa2dtVfxfQ3+9ptt2HiRjrbSZZ9Ffnt4vcZDnruxERCBvrHHd0P1jmlU0XjMzMhran39o7N7rt0bf/72w4njA6PuXgiEikgkao1AKDD1a3WBvtSPq0ZU03xustphzrZDE8cHWjl/Rw1dvRc1woSGr706mnCIR6GRwx8eDfkMEXxi0SDaAKVMM/WuPRAUSogqozndaERwWlm0qsK20NpUNdbVAj9tS/XN7tbaWxDm/TXV9kkEagVRUhTVyzTa01VM5ms/W98z1CpxiJBndThUmsMY2b3+cA2Ees+joZn9D4dmD/SPzOwanfI2wTfvQjCeDZH0VkbOPxayaTVR1fIV4a6MGbV2Rufh38ly+TRTzGNLiLYpU03z1NxV1wzpZhWW3jRSHhKPgVDnhiyEILoFRMc/2NUDc/y25jNbOuquNlQ7R+128wKyDqIYvwz9DmkBISdtUgREoG/SgS/FbsNs2zo45t72YGAGkepTh+En34N0szbkjNd6/UGwtilyOT2TOrRxpGcpJnQTTegQ4EbNrK5o5Yr5Vgt2oyBXjh+C4vgzBXYcgjtKvzg+1Mop2OMwt6tm9dUjrRN50DSlM62sqsLubamvmOxqrb3b2VJ1Ez/31deUj8GUO8ESotWISocZfQFpUiWv4cXiMSNM7pVub7AeGnwztXgI+G5YV7YgjXAHGPlA7ONpgNmecQ/Y36i5+ulZXdScem7AVCsLghQTgn3VyPclG4iE/53V7ZRUQmrzNNGndySYA2klQN56uLbS6YYpfqSjpfrWts76y1s76y5B0N+pQ7AiXCKS054erHLWGgiIQJcpUtQIIEpaMdlCI29HzvghLdDtMBb8HphsqxQxq0Ugr94Ram9Y3MEQhv8oQWyqCd1mMEMrV/zimiDXwqdX3k5Lj1IENn3kjFDXBLnycwxyNoNIagRLxVDn2w2+8QWYY8daGyv6FG28reYWFvtbiEwfR8CVj0VH0HoWW1uEYEpXphT1uLJxLP1KBZj0uSgVa2FmAszxHUNj7p2D4+7tIxDqk1qlOpjkKxgTAQFPyt30D2XjRi0d2rqisXNXAEH/OM99lVtpQl0R6MrPieA6ZcIpG7x00gsTm0ymwFWCchbWlvtbOmqvwr9+BYL9CvLa+7BZm3U5bb70OyZnCgIrERCBLrOiaBFY8IedsyiEcvHm8KsXbg6/cfvR5NHJGV9TJBpVItUVFrO08sV5GhZ2aOBmmxNauRNCnN8U4hpj2xoLvCJENB95JLRgiAQ80MxpWqcQTyzsa4saNWp+MQ6zeqSxzjWzZ0vztV29jee29zRcxEJ/F1r6NEy1qAVuCm22QCrWe4ep3QyXCdwmMRt5AgYg3JlyeLd/8uitB5NH+kfnWmOLi6gTHzclYhvTsISrLhUtRkINdKTPXQ2qW/N4HEzHoU5o7OAtIAEQXTtaxv9a9+HsYAAgouNZ2S2EeIi5PVubzh/d2/HZoR0tX7U0VvYh3dC/1n3k74JAKgTSmM0CniBQWARQIMWMALc9tx5MPHXjwfjTWNT3jE7Od6NUaS3Y3tRo6FVnrurJJLmLWTGjwy9O4Q3zehmi0xWiFy7q1NbXJB/hg7B5IAkMBHgYwjyukcFQS1fynldT8jTrAU3qzBFvaaic6mypvtPeVH0XlKKkFX3YUFc+WIc0J+SGz7EcaGHRLu6nuT3+WqbETaNM7eikd8vwuHvro6HZ/X0jszsRDNkM4hsHXRZrz4mEuZ6ZCVTSVfIfflPQp39o+f+a1k5eAea8KxkMj9n9Vr8bNyBss81mMsAKM9tcXzlIkhoI9+8QHX+mt6PulqS6pT8icuYPCIhAl9lQFAggGtoCjawCTGS18JV3X7418sqVO+PPX78/dpj544z6VgOkVjk0LUwJiKJJneZ0iwMfaONWh2JuV1OdeI/Vp75qSoUGxjQz+MUZ7BYOew3RgA8LOIPdeI/VNXLQqBqsZku8ssI2C4E9g0jn+2AWu761q/5KDwp/kHHMZrX4QXCD3HDmhG8cc3q+JhXN8qxDT9N8KBRzznn9jQiCPHa7b+oomP/2jM8sdIM8qI78A9jsWci9n87BeVCGLILH6W4qyV2aPvolT1AEOufJEqGuBNtpc3UN8wFdAJyJdLvs6K6/cXh325cHd7Z+1dpQ+bACGzyXQ8llT69T6XRcztnQCIhA39DDWzqdg5+87n7/1MHvrg7+6NLtkZdADtMOn2o1hDnJTNbWyJl3jAhxauNWeyU+FTCrO3ChGqGu5CanfahpaNEIhDhM6xG/F/5xpJ5BuKerkVPUQyP3o9DH7LG9HZ8f2dP+ObSvc6AInbaAbEQzqwvhSNpjop4IgW3E5s8eCkUdYKlrQJbDsxdvDb987e7YU9DYG8nHj6B0JYguHWt6wvTONEQ1eI5Wm2wOVXNnoKTCNYBNX4KKd627JeY3+eAxP9xtzVV9h3e1fXViX+dHu7c0noew9651D/m7ILC2miIYCQI6IoBypPY5t78RftGdCHY7yvSzRyOzB0YnPG0BML+trW1RUEPLgjZuhjZuhAD/IeVMZXFbSxNf2j1FK8eCHGHkOlPPFFY3Rq8H1SjnVTRyZVHGnsFlt8I36pztbKl52NNeo+QhgyL0Xltj1UPQgo5BmAvBSJ7mFPj3LSCp6RyeRMnbCfeWAcyjR8NzB4bG5nqn3L56lL1FARlK99UfqAp/aOzYECrZDQpnPFnoMtd3nshpV9LgVFP8D3zzqdvCTSB86wZQ9gbhmhmDNecqBPrZ7d0NFzCXbrEgDDIcZP7kaf5sxNtkPmM3IgrSp4IiwGIpQRREYWoSBPmRS7eHX7zTN3UCC3In6FstiZSflI1icJNSAEXVyBnkZkGwmxLwZrJDsiZNOk55u8e0oPCJMwUtHIRGHl5A+VAIcsWEm9q0nig7yuIdIA3xtjZUDfd01Nzau7X51K7ehrNdrTV3cc4i0pfiiLYW02meZxo1dprkmevOWva3Hk4+dfPh+IlHgzP7JmZ8bTDHV2OulSP1bc2IdFWwM+WNaYtq4FyCNz6rZpO3n5p6LCHYf+DfXy2nPbGPAHVssKOxanjPtqZT0Ni/6Omovd4AWt8qkNNgYyhzKatB2dgXiUDf2ONblL1D7njTzYcTJ7652PdzRLC/5Pb6a4LBqAvm0jXno2o+R7Cbo9xgtVUq0epKFTOlvFc2WhWIzWEijWnm9XBgXkk/U5jd1vB/ciMA03mswmXz7N3adAVm9S93w6wOStYHKJTiIQXrakVPinJwSrhRcM/YQDtbgVTHijFwyl+/N/bMxZsjryA7Yt/cvL8G0fPYU605xVTNXIuIZ3EdlRVw7euSQ6cx0ZGZDoJdzWlnhLxGR7sK3mwqCIQMmEs++NNnD+xoOXVyf+eH+HyECPmpEh4qabpOCCzlr9TpEXJbQUBFANpSzdC4e8vnZ+8/ffn22MtYaI8PTcy1oM72mhApOeSPg9wcCHJj6hmZ3Gxq+lHGB4hhsMBSeMcRvR4J4kOaVpjY08kthmRYRIT6GLSmWyjGcZkMYIxUbm6oGKoqd8xl3By5IGcEtM0Tq8ZN+wKhSdDmziCCvG9Hd8PBe4jP6Bue3YOAy6ZQJIaUt9QCWhl/BroplhlVICuuHSUOI1PBnuCoR7U9VPdD7CPJBJSoeM6/1WIyWEcGm1x+XIj2d4Fp7xWQ8VS5PcFGxJmcgUn+JixDXmwq136BckZXblAKCGQ6O0uhT9LGIkMgFI5YsAjVD4zN7Tx1eeBnl26PvoICKjtA4Qp2t9XWIm0xpH/TbDbYHFUGCwLeLLYKLcgty+mrpRkxFS0cmldzykMwrzN6fZWDxCAmk2mRdcMrXdb54/s6vjy5v+vDE/s6Pq6ssM9sNOKXIptGGTcnQVwzO+9r+h6a+pkrAz++cmfsqel5X30kEncg133NzZtqhmecBuvbQ//RzPKZC/YlzcecV1gGaRmitq4yI6XVP1DJhpHyOHx8X/uHLx3b8mtYg+6DInjGbrOWPHtgWgDISasikOWKKKgKAukhMO8NVCOPfNuFG0NvfA+CmMGx+Z0wsVcv+CO2tTRh5gmbkHZmsbogyMs1bnXmkDPFKLupS1M6g9wiQZDDhDxK4JsSmbxGtS2utxDavu6Wqod7tjaf37e9+TQoWsGtXj7EwijQkiRiPb0pUfCzELNh9SAdcmxqoevh8Mz+63fHnr31aOJE38hcN6rD2dacSZoQV8iJtGh4NWtizStT91Xj+E/ksIOhSMlnX+ud4KYSG8o4CvJMg1nwLjaUHx3Z3f4ZrEO3UMRnoeDgygOLCgExuRfVcGycxsCPaZ+c9baevz509Oq9sefgz3z2weDMLpgMbYlSpsl6q0Qbk5qVhDAskALTOgU6f8428lh5DrUimNcZ9EamN4UgRhPmq6HOIhtk70JRlNGe9tprO1FkY2dPwwWY2G/Adz4nPvLin7PwQ1N7HYePfa6+xjmGVMKhNsQ53EJWBTIs9sIM30LBTvbBpIfGBMj69upUQuT84hK2uWwgSGj+SLekFSBOlxK19seENck1dkbto63Gkcn5RlSwq4OVy4VqdQ2znrYv4c662tFcPZBNc+SajYFADlvMjQGA9CL/CKCalmkSpTLPXOn/EQLf/uL7WyMnvf6QkxHhqx+IMGaZUmjlinkdpnU1l3yt69buAzVwBryFfLMQ6F6Fi301DUvl3zbEwbE+x0Xy2cM97x3b3fbZtu6GKwxSWvuJckYxI0DL0f3B6QPfXRl857ur/W+PjHvaFlDLPRqNrankqDUBVBO8mhqZj4NmeJLT0BTP4j5qade1Dm4uaqtcnmN72798/ljPH145vvU32IQGpODLWshtzL/nvlJuTFykV1kgAA3I4vEFa289nDp6/vrgW6BufQZUnT2znkAV04ZWm2xqLjm0cQeEuA3mdfybiyYj2rM/yC6HwDeY2ENB+MmZjoafVcrW1RbLRUN1hXMB6Wf3juzq+OLI7rbPEezWV1Npn65w2t2gcRV61uwHpSiupBl+IRCuAJ1w0/iUZ8v1+xMnr94dffbm/YlDC4FQxeqyNJHeplbje4IbPqfeUaAzDA++fS3VTaWUXV2w04pUU+lwI0ju1u6tTacP7m79AoGAl5neJhSyOQ1IyV2cy2pZcp2VBuuHgM8fQl65ux2R6ydZTOXy7dGXJ6a9zYgoBm2nUk165aERejDtjOlnVvjJzQmtPMemMi0oHqeJnf5yLz7wl0fB9rYKQQxTmhw2c7i22jW7taP+xsFdrV8d2tX62Z7eposixHMckCK7XDPDz6BZM5FI7B7K1A7WVNinWJ4WxWD2Tc54m4OgkiXn+spDjXxXOOTJUEgTvIEBcyq7UDaENOozuDlQv3lHmuFpRVKEukYnmwxGcDcYQIFb7QuGj47OeLqQTdKAjUrLrq6Gi/Me/3BVpVOyLops/unVHNHQ9UJ2E90Xub8O1LDuPXd96K0Pvrn794+GZraFURFt9XQ0leWNfOtWRzWC3irgK3emXwFrFXyx1EITDyuBbzSxR0ESo0YSp+bioIkdvNkBBLmNP32o+33m+u7a0nS+0omCKWajsHNt8PlMghrUZq/rH5nb/e2lvp98feHhX8Bt1MS5nVyo/wCIyo2AuQxCGgZyqultuR8JwiOlngDN8GsUf6FLi/PYZjOH2hurBl49ufVfj2Me79vWdB5tikmtgNzHpNjvIBp6sY9Qkbdvem6BKUEwsQ+9deXu6HPQ0nuRN2tdzf+ncGaj8pnqIy83WBjwBt85F8VcD6aeRUJ+NYpdMbEjr1yJYE+1d100oA51sA1UmyCHOXNgZ9vXzClvbigfqnBaaV4XYZ7roJTA9SaTMQ5Nd763o/aGxWL0d7ZU3cW8fvlO3+SJoYn5NlQABINh8o6olMFw7SiaOm3mnMsqnWwuhxo6grgSxfUEzV8R7DTBJ/f4KMGm+D8ob22jk57uLy88+su5hWC91xeq3QauBNxsJJf2yLXFj4AI9OIfo6JsIXJ4jTTr3XgwcfzMpYGfnr02+PrgGEhisJ6lUlBUWk0EE5FzHeZ1henN5sp54VMBgl4ejSIlza8WVKGJ/QmSmCdXY/6LKUAggfF2t9U8PLCj9RSKqHx0cEfLt0j/8RQl6NIoXRGAL5rR8DOoyz7bDcpexFFMoT79nPX26PMQkO1znkBlqvjMxxzu3DhichlRFEgp4ZtTQGeCh4G3JMe8+u9YTC0elGrTzLZ4A2ErYliYVULqW1coGrXDjXCqutIxA3eDpFjqOpPW7+Zicl8/7Ev2yRTmoG9tPXW5/6enLw+8i6Iqh6bn/LUsppKqwCk1FqMRWjmC3lgNTSGHoeaRoxbzWJgjOphR7GGfW2F8Y4qasrIm0aq4xrJcKdLO5o/ubT+DCPY/H9rd+iXKmY7YLSxnKpzrJTs589BwtWQry7VGHMOT81u+vzn6yndX+t+8cGP4acz9cqaOpQ5UU83eysYVZEhlNMPnJNR/6JC6aaDvXivrC40dpoFVe2xFiViwyXkUEqQDXR8+fbDz/Yaa8jFEwUtgZx7mSrHdQjT0YhuRIm/Pgi/kws5/D1LR3kDw2xug1NxHzYWsW8kWLpUX26T4xy2IXjfbmVPO2uTWnHg5lixz0MpDYHrzGsJ+sL4hv5xc2am0FzPoN202S6irpab/wM6Wr47savtyR0/D9811lYNWq6KhybHJEdB8zdwK+vyB8EMIxVBluX26uaFyALnrzw6NubsQCe9MHiOSKKMKeYlpiKmvpLflY+OaeL+UqHpau6itK1HwqbX1MN7LsDdWeR1lZqGpV7CmPDavn6Nv1zb5MG/I7otA35DDqk+nvP6gC3zYu779vu/nX1/s+8Xg+FzHgj+MzX6qyF76/5COxhrlTgS+IbfcBN85ljhVe87DEYsikh3CPLjA4Df6yymTkxue4A831FQ45tqbq/ugsXzy4tHe38Lcfht55f48NEVusQER0DgH7oK8ZXxLW+0N8BJMXr498hLeg53zC8EqCEnwwq/sODnaqcmXMcMDkfBGc67md/UZiTrvi4smwyJ3C6xFoFkM1AyO5AdqxdfN+0LPIlWvMhyN2JFO6kVfJmTub6xJKyb3jTWeuvUGWng1tPHDn35372/Bh/0KmKrasJiZlUUryVMZxMNSpvSV2yHMqZWrJnaenYdph4UyhsjfsH9W8ZlHUWBFrT29cqPAZ9ospgjY3ib3bWs+88KxLb9DadMLVaBsddjNPqSrxVGtLT87DN1GQG68ngggtc0SikRtqEnQ8HBo5sA33z/6GbTeZ/BzN96B1DUJMPdMSqlfRMEr85/pbfnpiTrXaRFgkSEtYG4VCmMTrFNOhy2M+IAH+7c3f/Xisd7foszvOcQOBIWIJj9jst53EQ19vUegBJ6P4ha1LHN69urg24j8fWNkar4VlJNaDO7KDjBanQxviUIqauAb+dfz1dlFmNlB4cq0NPjNqZmTCzuZRKZfH6lngS1dDX2Hd7V8cXRP+ycg3zgr5SfzNRab4z6oP85AMn4WsLmdx0bQW1numEG8xRvI7OiCtl6elAmRPm8QxSAEXtWwlSq/aoBbrscPm2MWDeIdmbvO7MzknPB0EXgXglaklW6H66wqHoubvb5w9d6tjWfhMptkKeBc2yTXry8CItDXF/+ifjpe8jKYGuvu9k0d/uy7e//u3LWhVzy+UAW0FQT9JNXLlfQaksTYoJXTzG5GSloaDJZp46AGBUEzh1YegnaupqWtNDXymWxjudMW6u6offTc0e7fP3+4+/fbuxquGCXoLW285cSVCICVbRa//fzG/XEvLD/+M5f737o3ML0zGI64OBWXm+AT5ViVtDYYgpQ3B5vefAXLqWZ4LuV0fWHvAOc9meZSubUW/CGzLxBuw+cXkzMLbWifaQ82uXivx7FxkTTNEp70ItBLePD0bDoifC0TMwstF8D69s2FR7+Auf0I/OUVizCxJxfmWE6QS24lQQyi2EnfysC3fAtzauPh4BxKnnqVqmn0USY7qAmRDvPInrZvntrf9fHe7c3fon75AFY8Ma3rOXE20b27WqvvOu1bvciWmK2ucr569c7ISc9CqDZV8SF1Mwp5GcU7RC540hpzouaurKvaPwW7wi2vJLipDHNJyJTUDUCZAVaFGqSdPhWMxmzjM97OZw52/wmMj6PgZZBaBSU6j0Wgl+jA6dlsaBrm8emFTqTpvHb6Sv+PL90eeR4mOmfySHaV7tIMxjemolmdVdDQXVrRijytVOwsFkP6ycPILw/73QqNK8k8lktnhWYWixVS0Ob2b285+8LR3t+Di/0LlJsck/xbPWfN5rt3hcs+j4A0TxxBb0gN8yKDIoYo+CODY+7W5IGiatqZkvamwIXsckUA50ZAk0A+YYJXfPXcJeA9YMaHUuhl2cF2IAbGMBn21QbCkafisUUbt7on9nd+CDfVXUndLM35LAK9NMdNt1ZTMx8a92y5dnfshY9P3/0/7g1M7YXZ3UlFOHlaGoLfSN/qrFEoXM0MfssD49vSDipBP6ByDUGQR2BqZ4GVZJqHQhaDiHtE786Cg/30yye2/eshpKY111cKQ5ZuM2Zz3xjWqsVoLHav3Gn14ONGLQAPyFzeCIQiNaFwLGkEPDeni4j5ULajrNxGJT0vfAzaWJBPHlH1JjjU4woJDYoRKQx2T44VzfPcWsDy5rr5YOIoUvRcVqs56LBbQAsfnbBbzdg1y1FKCIhAL6XR0rmtzDFHekvbV+cf/PK7a4Pv9A3N7UHQjCu12ZzC3GGwuuAvh5ndZLWribf5PPBwpX452d9gZld85inINBiUVF/tmnnmUNdHTx3seh8a+ikI96l8NkfuJQgsR8BsMsVQvW1q//bWM1azOYhyppOwbP2kf3iuBwLTmIwLnoJ0kbSKjLPDKpxvoa7kkigbazWrhHEnNMEnixxl+5DO5hgYm9vx1fmHv0A0vx2WrX9DffghKUpUWvNdBHppjZdurUUxFeOjwdkt4GR/+8yVgR/feDB+MByJm+kPTJ6WxsIqiGRHbrmqmdu0wJx8uajVRYgCPALCGLLAkf0tmWbONtLE2Qo+9v07Wr57HosR09MaasvHdQNMbiwILEFAq9426vYEAtWV9knEYy7abZZXBkbmtvoCoaTBcmR5U4S9Fr+G4HfVp56XQ31rjY+FunpTxsAke4eYDTK/EHLhvT8K6tuycod1/ti+jk9xyWBemiM3KQgCItALAnNxP4Rm9vFJbydS017/4NTd/3Nsar6dwjxZ2dME8xvT0myuWqVKmgnBb0paWp7IYhRDILSJKChcQ74Z1DH3qT7zFKYCu9UUQ/nL6WcOdn3w7NHeP+zqbvieBCDFjbq0biMiwDoAWzvrb2CDGa2vdY19de7hXzwcmd0xNx+sZTzmiinMQDlGpCsuLTUzY0WYfI5AsfpbmUGloI0jAp57iOWZIYr5Hb+HRa4cAbCH4Loi9aMBFM9/qiq3z0r0e46DUKDLRaAXCOhifszcQqDhm+/7fnb6Ut+P+0dme5FjnlozJ40rC6uQ+Q1BcEYzhXm+tAoVJQbxsLhKwszO0pHJhDkXIObftjVVjTx9oOuDZw73/HHPluZz5U6LV4J6innGbdy2QZBT3/YjJeyO3Wb2u+xWz+fnHvwcpYVfgBZsS2rxQiQ6g9Hp71a0agS15S30XYOa6aTGMgTgUXArFoFkfPRqwN6cN1h5+9HkUbxbkUgkan3uSO8fccXoxh21jdMzEegbZyyz6gnqmHddujX2LAqtvHu7b/IgAmPMSlrL8rtpldIYwW5j/XJHpcrHnq+cG+15FN6KZh5AahqIY+LUzJMctB5Aa4iDk33o+N72j186vuU325BjDnPnXFZAyEWCQB4RcIFOGFkh9x02iz8UidlZ8ez+4PSeOXegugyb0OWHEv2ukCMlCGgSrIr5axTfa0bAcyPM54BYJoX5fdEwOx+oRGDs09HYogX0sAsT097P66qdE1LUJX/jocedRKDrgWoJ3BOLjCkQCFd8dvbBW6e+7//pg8GZvaib7EpKdqEsBFal1KkN0exKWhqqSOVVmENFofbCGuZMS4uGKcyT10qheRD+yRB95i8d2/Lbk/s7Ptze3XjZ5bRI2dMSmHubpYkmozFeU+mcwvz8yGkz+/78zZ1/f/P+xOFAKFoeT5IfTt+2wtxKUiQlUI7kM/m1fjFFThHqiokdGwglo+3JCHjV/L5oQE59BUiljoBBLoTI/XJUavsA5DMjYn4v3hksAr14x0bXlk3NLrRfvzv2LFiufnz5zsizXn+oHLvxpPo2FxYrNHILNXMIdVZ7yq+fTw2AC8NXHgm4lVxzhYAjic+cQUT0M27vrL/LcpDPHOp+b0tn3Q2Qe4gw13XGyM0zRYApbbgmEA5H+yAEw/5gtAJCfvH7W8Mn/MG4nYGcPxxaZjqFeiJQjnnq3Djnqfxq4lncJJSxvKsShMfUNjLargxmjUKDn533V129M/psFOQzsNrHkaf+EU4eyBQLOb8wCIhALwzORfMU7LCN4KJuQADcs5+euf+3t/smjs56/AoPdbJodprVLSh5qkSzw3eez+ISCVAWIcyjITDA+efw7dMWmCSQYc2pdNn97c2VA88c6vnTc0d7ft/VUn0PgUjeogFYGiIILEMAud1wRUeHjkNTh6m7DDnervsD07s8C0FXMtZFhVFOoW6lDYx56qyDkEeSJuXGuG/CV48NBIPllm+gaa2jTx3m94pbDyePWszGoM1iDoxPez+rq3aA+90sNLFFNttFoBfZgOjZHHKzY8fdeOnW6EvIk/3RxZtDz4EAozwVpzTzWFnDXIlmBz87d/X5PJRaUYxmhxBnAFwY5nbY2ZM+gm1EQQz/tq7626gS9TtQun7W2157C5WihPwin4Mi99IFAQi/mD8YHkDZ3o85l6Gd/xI+6kN4J5VAueXHY/M7BS0OFnTJq4uLd1OEOu+O5zMoLxpVmJGXNidRgWneG6i8fn/iabvV4kfUfPTY3jbWVJ/QBSy5adYI5HeFzroZcmEhEIBm3ninb+roF+cf/BVKPz7l9gYVYb5y8w/TO0x95GUnlavFSl52HaYKhDlZ3+gzpzBfVEx/Kw+aIB12U2D/jtaLTx3o/PC5Qz1/bG6sGAKjFcqsySEIlAYCTrs1AO38Ad45cLwsmhBFHr1xf+LQnMfvgp86hVDXzOHMZsOGOs96uibU4VPn09EEbrAV6b7soPl9bt5fDcveyxT4dVWOcY8v6HfaLQsg1skX+URpDGQRt1KHVbqIe7uJmwY/nun89cFD313pf+f6vbGnwdXekLLICgPgoJGrqWkQ5ii6kteDrz80gVg0CJ/5PJjgyAAXTPmIuhrnfHdr7f3nj/b84ejuts/aW6oe2YSWMq9DIjcrDAKgUw0Hg5H+EwjkNJrLwBq7aL3bP7UXFdCcLG+6slIbfepICY9BmyZDOynl8izWFU2dmwWa2CnPFWs/I+B/wCRhfp+Y9daCfOaZ1saKfjPqqO/oabiKs6SYS2Gmz5pPEYG+JkSlf0IgELFBC6j9/vbIK6cuD/xkZj7QoJR0THLw5WYUuxU+80Seef4RYN5tTElLo99cTU1b2R41zaYsuntL0+VnD/e+d2Jf+4ftTZV9IszzPyJyx8IhYLdbgqFw9B4EYjgWXbSiqEv8+r2JwwuBEPNAVxw0v8dgvSpTShbnO+pdfRzJZ5R0NiWljTnxikMsSWPKDDNuf9M33/f/hc1qCTTVlo8iYC4o6WyFmz+rPUkEenGMg66twK6649y1wbeu3Rt/YWLK2xJROKRXHmUwq5MBjmZ2RrUbUQkqXzWbf3gaA22iqmaOaPYohHnyeuaLhspye6CjuaqPfsdnDnb+ubG2fASLiPjMdZ0tcvNCIIBNaQSc6f0nD3S8z0C5cDRuB0MbA+VsK945ZfMdU3zczDej+yv/76XmU8d+IU5LgCrVV+Sp06qHzYhxeNzdiSqML6Gq4chJuMFwtlDEFmLirPEMEehFMAh6NQER7Sako1WfvTZw8stzD/9qaNS9nYFxK/bdJI0BA5xiZkdqmhUMcCazDc3Kr8dOKUgBYR4NgThGyTVHoRXFZ/fkwYh7m90S6W6tefjske4/HN7Z9gVqmfdhMVl5sl7gyX0FAZ0RQMQ4hfr9SHTxYxR3seN9tSL6fQcEpim2rIYCZbpSXEWrZc5E9XwHvrO71NTV995MozviWlZq6gziC0Zi5r7h2T2nUfehwmV1Iw02LLUTdJ4wadxeBHoaIJXqKf5gpOLavbFnz18bhnY+diQYjtmTGtphZmelNJrZbeW1EO75p54khjTzR5SIdghzVFBLpOYsx9dkNhqgjU8d2NXy9TvP7/rv9dXOMZj0JEWmVCeitDslAhDqYQjzG1arKTw3H2hEcZfqsRlvayyM6b5MYquR7+rvSTan1k/I76ZbFeoMlMUaQHpY0DCr3rllKwd+OTXnq7l6d/SZSpdtFsVpAiCf+Qx14f0y3OuHgAj09cNe1yfDdFdJ9rdvLvb9HMQQL/iCEdQ2XXkw+5zaODVzFlpRGeDyf1ATp6+c9cyjpHRVom9Wbi9ItlFb6ZxF+dMPT+7vfB8+ukFhpsr/eMgdiwcBCMOozx8eePpg13vBcMT+1YVHP52cWahTZPVyOapQtqp7W9XsjlA5HVR1NX6FGwaL4r9nlbblB6qyGZDOVg2inFdQZjVUW+0cB9vkbZA8CS/EOk0vEejrBLyej0Ud47I7/ZNbwQD30uXbIy8OTbjbUj2vzKJGtFtYz9zs0K1ZZKNiNLsS0Z4iCE5Nh3HO7uyuvwph/sGunqbvTcay5A5/3VoqNxYECo+A1WoMIfjzvC8YrhqZ8GxFgaRDcJdVkNjlCXmtFFWBbxvSPqbVV1A19XwfjKg3KSF4imUgSTEXusaYzjY45m6FheHF5vqKfij3UeTm3XYgRS/fLZL7rY2ACPS1MSq5M8Igq7h6d+z5L88//EuwOrVEoqllohU55jaY2k0Q7GpKTJ4PSmmY9OkvD6GuOYV5snrMNMdzcdjZ23j5jae3//N2lECtrrBPG01GEeh5HhK5XfEhoLGuzQ2Nuy++cmLrr1Fx0Hjp9ugxMMzZTEk0cAp1RqJTkwYZMsPYdOiUGlujEMsrPnxwvy/LjlF9+3EDyy9/fOru34JNLtRYXzGCdzkEa5u8uzqMymq3FIFeYMD1fhwEeOu5awNHYWZ/fmjMvRVEFknHmMQxZotNKYVqRq65Xrv8OApAxMLgaNdyzRc1SsulOHBRqK50+BHR/ujonvbP9u9o/qam0j4tJVD1ni1y/2JDABaqiYM7W7+eXwjW+4LR6odDM9tRAXFFOpsiWCFI49isg6dG2TTrYXqneeAHUimY+xWf+pNymoF0cBVYB8fdW6FIvNDaUNV3cGfLKWArTHIFnmAi0AsMuJ6PYwQ7Ukm2oYLaX99+OPm01xd2KoUenjhUZjizxY7KaVWKMGdN8/wfakIrK6YpEe0IglOZ4J5sD3NrUa91sa2xagSayW8P7Wr9oqWhqh+BObK7z/+gyB2LHAFUEfR3oj7B0b3tnzKoFXSxldiYt+PdNi6njqBQZ8U0yFgUccE7nOBpzXcfuVlAqhwy1dUKbUpDnnyPWdgpEo1Y7g/MHK2q6J8G1/s4TO8eMb3nezBWv58I9MLirdvT8PI7hsbn22/cH3/2yu3RlxCB2sSgleUHd/FGBMGZoZlbnYhoN+s0BSjMY2ElRY2BcGSCS2ZqN2N331jnmtizrenM80d7/w1+uAEE2Eh6mm4zRW5czAhoFdrCPn/oGuSm0e0NNKGyy0ujk942us6WW9+pMYPMwVCGzBBQQmnkM/nvocomh4BZheVV1dRXROyhcePTnuard4wvIeX0ToXLPsua8KC1lQyV/A9J0jvqtJoXqPXymMcIwCxXiRSSF8HR/iKEeUMwxEILy3RzzXxGMztZ4Ewwuet1xFh0BTXN1SA4CvOVMprtQ5rLwv5trWeRa/456ps/cjqsQiOp16DIfUsGAZfTtgDu9DvM9ECAnM0X6H9tbj5YvbKOOrVmNfKdfnRd4mA01GhNgz3NQFOByir35DvN5QY59AZE6DdfuT32cnWFY6q1sXIIv14oGeBLvKEi0Et8ABPNZ+GVCzeG3771cOJoGCVSk2Wy0E9uMtkQBFcNDd2pW8+VqFilvrlXqW2ejDyG+3yLyRirrXRMH9/X/vGhna3fgD1LImN1GxW5cakhUO6yu1F//MNIJG5/NDSzD1a48mBo0bwyMI3vG93oqpauR266ih2sewyQM6OG+iKCWxXGyWUuNCw8/lDEdu3+6PHqSvsoOOs/jcfiPgS3JqXAKLUxKfb26hDWXOxd3njtezAwtRuBcG8hgObwvDdYnYqnXaV1rQaJjEMljtDpoN9coXWFuZ2RsckOmux6O+ofvXB0y3vbuxouVUGwSxCcTgMity1JBEDJEAP98XxPR821Z4/0vtfbXtePd2R52XKlb+omGtULmTO+LGgt352n+d0Ewa4EyyXRHBi3M+8JMqDvMHgwfvpwZHYHqtDokVuX766V/P30W9VLHpri7wCD4Ghq/+rio+Pnrg+9Bv9VA6gkVzRcrXuM2uY0tTtIHqMPFzR361xMohH6zb0IiEMFtWV+fJrqbDazwWkzz+/d2nT25MHOD1pRcAVVqIRhqvinnLSwgAggelzRapvrKgdRz+Cjabevddq9UD0zF6iHgFzRErK6KTXNoUErhVx0IJxR9HTNdQdDv8Itv7yeOxWKEPz9I5OeHpDkvGu3mT1ge2TE+1wB4duUjxKBXsLDDj+5a3TK280UtUu3RhHVHnQkS13hTprkMYxoZyU1vQ6+yDFo59TMo/Cdk0xmufmPfO4VTqtna2fdrcO7W784sL3llPjN9RoRue9GQKCmyjENN9qpkcn53uGJ+S2B4ITT64s5V0a9syobAudgeqd7TZXneuSna+b9RfC9K7Z+mgiWpbLh4ajKVvHt930vtTRUPNjWVX8F1eRC5Q6bbNx1nJRictcRXL1vjeC31jOXB358f3DmOIJR4BRP/vIyqt3qqNGVCY6rxyICcyLwm0fDfi21ZUVUHjiojYaWhsrB157a/r939jSeB8NU6kLoegMo9xcESgQBq8UU2dFdf5HxJrVVjpnVBDWFrEoCo2/nVMsfTO/4TnaoaXWLZTS9n7069Nb0nL8ZbdNnh6FvV0vm7iLQS2aofmgoqF2NSGtx9Q3P7L94c+gNsEv1MEVtZVQ7U03MiGZ3qDztZn142pWWcRFR0tQWFFa45aZ2nmKGGbC+1jkN7fza0T1tn7U3VfVhMZB88xKcg9LkwiMAroZH+2HR6m2ru11T6XCnIpJR6iY8Ln2qn1RXgvBAD6taBJKLEhZ6GRz37Lx4a+iV/uHZffMLoZrCI7d5nigCvQTHGqxMrjt9U0eQb/4yyi3udXuCSQhk1GpMFtQ1t4KnncI81UuXKwSKqR155hEUXVEC4SDYaVpfevAch93s37+j5eKR3e2f11e7xmwWU1DLu821CXK9ILDhEShH0ZOO5uq7zxzs/BPiTy5ZLcZQMi1cDZAj4Qw/+u6XqZ1TaaBgT2Y14KZjbt5Xjlrvh67ANfhgcHpPOBzVg8lqw49/Oh0UH3o6KBXZOShTWHnt3vjz1x9MvODxhav50i7frSvmMOSZWxU2OKduwlx5iZGPGo2o9K5MV1NTWX6wrHHRQWDMYlN9xdShXW1f7t3afAaMWD7s7PVTH4pszKQ5gkA+EKgqt80e2dvxmTcQru4bmds5OettCYVjK83YS3LTQfOmlytdec8ZcEv7PnPkGZi3PJUtBhY570K4BiyWL1WW26Z2dDVew0nhfOAh93gSAdHQS2xGkAJyyu1ruf1w4qmHgzNbwSKVlMPZaFKrqJlRfIXlUfU7SGoRURnhwNlOU9/K1WPRUFXhmN/aUX99z5ams52t1fdREpWSXw5BQBDIAAFQqfp72mvv7N3WcgaBZjdqUGo4meld8V8/Nr2rNMy6HEowPalhUZmN5vckkfX8FWJ8THf7pvbcfDB5YnJ2oc0XCOsXnatLR0vjpiLQS2OcHrcSvM7brtwaeQmFEHaD59m6PGVEPRF8TtDKaWo3KaYw/Y5YJKSQx9BvrgjzJDZA/gpUkPdP7Ov4EPXNh6jT69ciubMgsPERaK5zDbx0vPfXve21t1HhLOnmWA1KY+lTusD0Nb0/DpBLYXqnCy4YiVlHp+Z3nLna9zbWsZ6NP0qF76EI9MJjnvUTo8g7RwDcjst3Rl8CvWITU1SWHwobnBVV1KCZU0OHPSzr5619IbXzkOI7j0VWBsIlcs6RtjK9s7fh/J6tTd8hmGcKu3gR6GuDK2cIAikRqKl2TiIe5dTu3ubz8KuP2azJA14VgY7sE9UUru/B+unqZ6VYUahi0QZm5py7NvTq0MT8Nol4z/94iEDPP6a63RGUihX9o+7dqKR2BEUbHCulIuojWyyKMDdBQzehippegXDsJH33UdQ3Z2Q7GaqWH7QeIOfcvRsBPPCbn+5EwQbknC9IIJxuU0RuvEkQQD63t7u19u6+7U2n92xpPF/htLiT5YMpZDMgoUnFHpkvuBSyGSVADgqFYnpfKVp4DgJ4q67cHT0xODa3wx+MlqNuup4aR766VzL3EYFeIkM1M+drvHhj+BVwtT/t8YWqYyvKoqIjkPBmk0UJhFP85joxRREy+ueUFLWQT6WaTKJzc4Gpq3JNPnuwi/Sul82mMqm6VCLzTZpZGgjAn379AOqngzp5nnXJkx2qPx0R79DU9U5OV1PZUjNRMr02gLKwyM45fOH60Etuj7+uNJAujVaKQC+NccLONlB/6dbIa/f6p48GQhHr8h23WhbVqpDH0NSu8CzrdoBEhpHtSs45SWQ0tqglzzODc7quxjnf21F3c/eWpvMwuw+YjEYR6LqNidx4MyLQWOsa3tpZf6UH2npttWM2FQZxvK+Kpq5z+Ipa8Y0aOiPrV4oX8ryDR8P0aHj28Pe3h1+e84ZEoOdx4opAzyOYet0KeZvm8dmF7uv3x58fHne3KPSOK1hkTEognMnmwA5ZX1M7FwWa2CMQ5jEEwy33z3GzAWarELTyOwfg5wMzXD/S1AIJbmq9cJL7CgKbDQFEvQea68sH4E//uqet9kHSMouKRY3Bcfqb3mkV5NrEqHcK9mQH/z4yMd9+7e74s9OzC+2IgNczDWdTTQkR6EU+3Ci+4rw3MH2Itc6nZheawyi+sHKXDd85Xh5ytVvA1Z6KQSofXVWEOUhkogyEg/9crey0jEQGv7HZLCFSVe7qbThnt1ukHnI+wJd7CAJJEIA/fX7/9uZvoalfMpmNoWSetkTE+6LiT19Z2CWfwHI1UBgqKdBTuP0CoagN6Wsd1++NPwOymd3hiJDN5GMMRKDnA0Ud7xEER/vNBxNPXb49+orbG6xhsOryzLAyhd6Vke0MhNPXd86HUyuPwNxO7vZkPjmn3RKDiX1sa2fD1c7m6gc2i1n42nWcI3LrzY2AzWoOoLTqdVIqt4C8CVp78iwSbL5j5HjXOeJd0dATAXIpKGFpZZxfCNZdvz/23J3+qSMIsBVZlIdpLCDmAUS9boESiWWehWDt3b7JY9DSd0K4w6L2ZCwr/6UKcxd86LaUZq58tZHBcExRI5EMf16+A2esXmNd+RQ4p890tdbcLnfa3BLVni/05T6CwEoESNJUVWF3d7dW3z66p/3bxtry8WQ4KaljiwiO01lD57O5TK1leodWbro7MHXgfv/UYTBe1kQiMT0DfzbF1BGBXsTDjEC4RpijDg5Pzu9AaVSn6jt/ssEoRwyBbldqnZvADqcjx6MSJRsFG1wUJneywyVPhVk0gDxmeP+25lMt9eX9ZrNJKB6LeI5J0zYOAs11FYMn93d+AJ96H4sfruwZiWZUf3qsAKlsCi2swvOeXMyQEnZuPlA9gFTcG/fHTyBHvXnjjMb69EQE+vrgvuZTIbzL4GNqv/Vo8uTEzEIHJ3+yg7mfNLObLeRr1zelk6kvEWjm9KGrfrgf2sSfGNleXeFY6G6pvQ1aykvVVfapNTsqJwgCgkBeEEDd9Il92EjTMlZd6fCYybG+/GAKGxQD1lzQnz2Opne1vGoqelrw0JsQILf9/PWhN0enPL15AWIT30QEepEOPjjbbeNT3h7ma4KMoTpZMxkIZzTbFVM7tsF6Kudq8QUsAvSfx1BNbcU6AVu7y2EN7OlturFrS+M5pKyhmpolJOb2Ip1g0qwNhwB96XU1rtHtXfVXd/Y03HM6LEnTRBnYqrjLlIBWHY9ExLvCHpc8N50Wxzmk5F69N/bs6IRnC9Y9MbvnMCQi0HMAT69LMalNmOSNg+PzO/pH5rZ7/UH7yo32opJ3bnVWK8FwqVJE8tVGpRQjeNupnSO8fcVtSRgBge5F+sy323vqL7rsVk++ni33EQQEgbURMJlMcQj1MPPS921r+dZlt7iTucUeR7xjE643g5xSdBGWQ5reoXUk7YQvGLGA270TrsUt025/E3k21u6tnJEMARHoRTgvQqGoE5zt2wbG3Ltn5/014XAyznbV1G5DvXMztPRktI956xqjY5GiRmGu+s6fbA/NaVhIDPW15VO7ehvPd7ZU34f5Xaqp5W0A5EaCQHoIgLilrL2p6j6tZAhOnXDYLCl86WqpU77Legt1rk1KJTbFl75ypWJs0II/5BqZnN/aNzyzyw8mufR6K2ctR0AEehHOiYVAqPrOo6njAyNz++E7t6/gkFH85mSFs2nmdvrK9BPpfOFpamdFNSUHfsmjVN95maGprmJ2C2goWxsrHyEv1o1gOGGFK8K5JU3a2AjQxYWa6TPtjVX3tnU3XG1uqJgge9uKAy8uPOm656TzuRTkZUZyvSfneFfOQZ7b2OT8ttuPJk/4/KHKjT1K+vVOBLp+2GZ95wV/pPJ23+SJ/tHZbpjfFff4DwcFKviSEdnO6Haas/QU5ry3EhXL3HMww8He/sTzFmG2gzYehyAf2dJRd62m0j5pwr+z7rxcKAgIAjkhYLGYIwiKm9rWWf99a2PVYCq61ziD4xDtXphqxox4p2BPLnKYGj884e1FvfSnfIFIdU4AbOKLRaAX0eCj8pDRFwi5xqY8PfApbUFBlnK1ROqTKjFJG+g3Vzjblb/pVY2UPjZyQIeVqmoslUoBvvywWsx+1Du/tr27/nuQWniLCFJpiiCwKRGAqd2L4LiLKK16HVp7JClhG6lgKUkV07u+MCk56UrhllSZOEhh8wSqh8bmtqI0dIc/EEHtZzkyRUAEeqaI6Xg+tHErcjK3o6LaCZRHrWNFtRXvGVNASPNqQREW+M6Xqe/5bR3NctGwopmrvvOVtzfB3F7utPp62mpuUEN32M2+/DZC7iYICAKZImC3mf29HbXXO5ur7kC4B1EYKcUtIMxheqcBXu9DMb0rzHHJ3YO0Rs77QnWPhmb2Dk24u0E0o28ert4dXof7i0BfB9BTPRJViKx9w7N7IdBPLvjDVcnOYxU1M0zthWCF4/NjEOhKiVREuSfb5Vc4bcGOlqq+1obKR1Xl9hnkvorvvIjmlDRlcyJgQQxLpcvuhg99sLetdrDCZWPhhRVg8DfxQqSwKU+mlk7Te3I3IWN1AoGI6z7ItFAvfSfoYCWFLcPpKwI9Q8D0PN0fCpcjsn3nQ+xQUTPYuZJhCS8D6p2zqppSHlXHeuc045MiMhZDIZYINHQI9GQ765oqp3tnd+MF0E0Owaym/zZfzwGQewsCGwgBBsjVVztHDuxsOV1b5ZxO9nLShQbBqXz0c939ACoD9CjQU7HHhSIxR9/I7L5BrIOsY4F26Rftu4HGOtEVEehFMqgR8BrPe4O1o5PzPWBMagxFkmvECVY4Na9Tv4M7dxZfSaSrpSroUFPpmNze3XgJKTJDsKbp7InTr79yZ0FgIyJQV+Ua27e95RQE+lTyt/MHga6887o701U/ump6X3lgHTQMjs139Q/P7XajjkUYBFsbcVz06pMIdL2QzeC+CHwzojhBLSgQt03P+dvD4ZhxRewZtHEjqBxZiIXR7WRe0vNQirAgCC4ege+cJrmlNK9487H7N1SU24KIbn+AohC3qivt0/DTiYau56DIvQWBDBGornJM7exuuAh+90cOuyXM93bFQV4J5qMve88zfFRap6vBcRToat305UccGwqUjHZMznq7+odm98x7grVp3VhOUhAQgV4EEwGhb2UIgmvoH3HvgZbexpfuyamOeucaZ7uJVK8U5jobopRUNXK2Ixhu+cFQPavZbGCpRvJG19c4R21Wi5RILYK5JE0QBJYigFLGC031FQNtiHEBV4QbGSlJg1sV9jimsBXAxpYIjksl1Lm2zXoCHTcfTjw17fY1yYimj4AI9PSx0vVMCPL6gVGamQI1K6Q1U89Jn4jIdvrQdY1s13pJBqkYqF4Z3b5CoKM9NqspiFrntzuaq+7abRaJbNd1dsjNBYHsEIDVbBHlVUPtLdX3tnTU3kf0O17olVI74UdPlbOe3dNTX6UK9dTBcbPuQD2Cg4+BCrYt38/eyPcTgV4Eo4vodsusx98IIpmd895AebJYN74ATFMjf7ve6rmyW0cQnEr1mqQQC/4Oqlc/tPNrHU3VdxBRKyVSi2AeSRMEgWQIsJRqR0v1ne1ddech0L3JlXA1MG45rbNeiNLimDC9J1MYvKCCHUAtixm3rwXro6SvpTkQItDTBErP05iiNjnrawWhTOuCLwwVfOkB+xP+TzO7yQr/OTR0XYPb8WiVTAaV1ZCypqS0LDn4bMazwB/nb2+qvtvSWDlgNgtvu57zQ+4tCOSCAGNbWusr+nrb668izdRrSuZHVx4AohklKC7xyeWpq19Lc7sS6Z5iMQuFowbUsaiemvO3zsNqifoWy9ZF/dpWyncWgb7Oo8e0DDAjtU5MezqQpmFNQsSmmtshyOk/L6PJXU8HOsukRlkmFS7xZTXPCRVfRFRSCyJN7VFXa/XdhhrXJPxyoqGv8zySxwsCqyFQVeGYammseNRcVz5a6bKFU4bgaClsi4s6B+ks0dCTRbxzXwFiGQvYMttGJjw9wUjUISO8NgL6hkqv/fySOAOVgCqQF7l9es7X6vGFqkmIioYnEjeTWbCSvQ2J3z3+G3/4/Rc37IMj7p3gMD4WCsfsywmdlMARk1UxtSuEDNzR6phaQh9anDSv+Kjmt2XheegtXvay+YVg9bkbg6988O2ddkTpo9jx4219Ao+l2/ylGC39WSnEpHxQDRabGRMWnKGWhsq+BtRTB41soCQmiDRSEChyBOAiCz0anplrbarqH5r0bJ/3heuWryPqC6uWVIXrXV/FQcGLke6MeE9OPYt2WBAU1zk47t7ZXF8xhAukJPMa80wEehovIgLWas5fH3r54o2hl+/0T+/FzrGMXmZl/qsfpeqv9klwGy6VhEuF+eNzFRZ2CDFwuJtBe2iMROOOJ1M5lGg4para40IsekehsrIa0tWiUUS4J2OWwu/CkagZjHbbkDP//0ZVtcR5CTwSPJLLNz3JbHnESomMgVnQhCIv5mcOdX347NGePzhsLQy0E4GexvyUUwSBdBCA/3yhrbHqbn3V9EFUcqxbsZQom3WtrKoStKazls4Xn+b/RSwDy4ht+GiUgjVOz/q6h+FL349c+nT6uNnPEYGexgwApan7qYNdHwaC0YrhCU/vmM/TgJq9di1YNKFlLv1OCO1kd18q2JTzGLSiTO0k7w//aLKopVLVF0xvia7RvUKgq3uWlQcEvYmEDyC/saE5ib4m08x58XJN/QkNXZH6qOEMzumx4/s6Pzm2r/PTHV31V1zw9aUxNHKKICAIpImAw2r2gTfiHshmBvBa7kryZqs10o2Mm9FfNKjrHctLqXFCy5c25qRPuX0N0NC3hUIRV5rd3NSn6T9qGwDecpeNpp4bF2+OVPn8wYpzN4bfANdwJ03kEG6pqw0k73syYZ9iK8yJDjIZRUMHYVIKdqV8QczdOSle6UNfxGe1Ay3DBkR7EdUTV7gU1moX8u3jKOay0FxfOXxwe+t3L53c8rst7XU3m+rLh4WkZi305O+CQGYIMDOlrbHyfl2NcwDvboQm7eV3SJjcaZ3TX0FXyWVSscaxDR5v0DU+7e3y+EM1JOCS0syrj7kI9AzeiZ099ZcqXFa3PxQthxm+CikV9mhM3+gRRoIq7HAQ6roGw3GDDGIJBsMpuec0t2f1RqdnReDtrSZjsLGmYuqtZ3b8y8mDXR9t66y7hpzZiAjzDCalnCoIpImA02HzQUDer68uH0mqEvM+fDFpdtcxTmdpc5X0NX6UIJwnrY9sgi8Yts26fc0zbn/LQiBcgWvn0+zupjxNBHoGw17utAU83sDA80d6/kjt8qvzD3+C1IomlDnVxdnEAiwU5EajzpHtCgbkdNai25mqlnWPVncJ8CUFKc0iGKzcB3a0nj2+v+PTgztbv25vrupjtDwLSmQwJHKqICAIZICA1WoK1VQ5ptubKqcQQd66EIis3LcnfOkQ7Km05wweueqpCbY41Z0Iob5sI8F/IoXNjpTe3qk5X3M4EvNbsenP1/M32n1EoGc4otzl7tnafB4R2cap2YU2BMkdQcpZc/43tOQ8NhesTCo3x2oxFmjoSrpa/g9S2oKEZhG80iMwrV959kjPe8f2dXxWX+2asFvNARHm+cdc7igILEUAJutobaVjqrutZjAYjtR4/eFlgbg/RLoXxuxOOa6a3X/IgX9yzODadI5NebdNzy50doD3An8VgZ5iWotAz/B9B4kKNchJ+HUuGAx7jfbTd4MfT3vewe/sGd5q9dPppEaamhIMp9QP1v8goUwsGlBY4vJ9cMMDU3qsobZ8/Oie9k9//NLu/xvsVfernPY5LjIizPONuNxPEFiJAGPKqyrsk92tNTeGxz29iwYv8ruXmeOUMFaSzCSSUPRFkuZ2hTWODJVJAnERfOsYnfTsmJzzd8YQkKtva0r77iLQsxy/6grH3O7ehgugaq0PhiLO248mDk/MrF5IgLtQi60cjG/kZGfq9up2bSPyz81W1D7XubKaAoESTe8wOCoa4EOPrkoBqbrZIoZI2K/Sw3IDsIqJgjtv4OXrbqt9dGJ/5/uHd7d+3ttWe8vltHrMJpM+5oAsx1UuEwQ2MgJIM42h3vg4SKFuXLk79jxezcbl/YXzjVwTlOqFgYKxtQz4TRGzg4wa89iMp316bqEdGTEi0FcZFRHoWU5Z5HSyutjIwMjsFxZQnyI4zhYIjTl8/lAlfOrJ70q6Q5Q+tTgqDRarS/WNZ+2rzrLhq1zGXHcl332VQ42EZ/BcQPmOgx42WUALb0EULCajAcVb/Fs66+4iLe3jV05s+d+97XW3YOkQQZ7/IZQ7CgJrIoA03JmultqbFU7rGJaf7SsuUHJJ8R9+TPyH3osUNXQExsWTPycSiRumZn3V8Pk3w59OxjghmEkxyiLQ15z+q5/Q3FAxAoH1mT8QqTCbyqLf3xw+Cb9UZbKrmOMZCSBIE0LRSIYkK31HpTQEEOaIgA8HPPjMG6LQ0NWI+BT56lgQqqrts7u2NF55/kjvH04e6PyoqbZ8WIR5jpNOLhcEckCgtso5A5fh3apyxwQ0dkVirwhGUznj8GojfS0l93sOjVhyqRIYh3x0yvNkdgFo5YZgKGqb8wQbUH2tCRwgXgTV+vPz9I11l1KSJkWJPOqAh8AcN3lod+sXJDENwPz+aGh2FyIy61Y2mCxsoD0P+wzGgGo5MsMEz6MQrEzZA8gXOwb2uBA2JF5DJOQxREMQ5ilM7UpKmsW0iPrL43u3N3339IGuD/Zuaz6N+ukDwvue/SjIlYJAvhBwOSyeumrnRE2V3ev1hSrDEZUh6vGhRLr/QIOZr+emvE8iH52m98cFYhJnc92MW5DCVjMz729B/Qik3RlEoCcBUwR6HmYqc6dxm1tgNAoGgmQ0Ate5N3gsFo9bV5jfWfwEfueQkhKCKHaFp70QaWnZd1Q1sQcNkaDHEPLPGqKok55KK1c2KWajgYsFfOVfPgca16f3d32skfNk3wi5UhAQBPKGAFih4kxfa6ytmA8Go5XhMFNVfxDpdKE/STKjt9ldUWsU0zvMfstCcpjOZjBhba2dm/c3o4hVfgOQ84bq+t9IBHoex6Ch2jX+8omtv0bEdswfDDvAQdw7Nx+oXhFEymhOBJ7RbE1Tl91Vg0A5Zx5bkq9bcWccUbTxkN9tiAa9Sq56KmGurQex3vbavmcOdv/pxIGOj7Z21N1AvIHspvM1JHIfQSAPCMCMHq9w2eeqy+2zIyZjR9JbaiQzav2kAhxaLnoywzs3F6DerpzzBJog0KXyWorhEIGex3nKGuG4Xd+th5Ofx6KLlq++f/guiBD2YmfpIC/x0gNlUw2LEdQewa8Z8W7BS2NW6F0LsRNOo9OwILAeegTugTA08wiFOUzuqQ660SsrbAvd7bUPju1p/+wpmNm3ddVfq650zKTxNDlFEBAECogANXTURp+rrrQPoyjSLixP1ieWHiV1jdHuiZpL+q9LSvqaWthi5YFfBsNhGxSkFmQVqX5KOVYgIAJdh0mxo7v+CshThjy+YK13IVQDTb0Lu8plvMmaXzriMyz61ElsNNUoJvh1P5SKa0hLCy0oJvawf3W2RRNT3qzGQGdz9YN3nt/5308gmh2c0X1Wq9RJX/exlAYIAkkQgOCMV5XbpmsqHGPggeBOfdnCo0h0fCDU8V/9xbn6kMf1IZZI9UTF6GAwQoHehEItItBTzGoR6Dq87pyALrvV8+zh7vcQRRr95Mz9vwV1YSsC5kzLXwwq7vSp0/zOyWyxV0JTX0cXEXbkzC+nRk6feRTpaakO9sVsMcXhapg8uLPlW6SlfYoyh9821rpGSBajA7RyS0FAEMgDAtDQYxXltpmqSvskNHSExCVRihW+CQTLKXUd8vDQNW6haugJXvcnT6bJ3Y+Ka7MePwR6TCqviUDXf0ImnoCCKnw/wogevQIfeRmKuLR+fzP+wsOhmS4l6OOJQ+VQX4QQVdmMVbOTiZp6gc3v9OuzDjpT65iaRmFO9rhkB2u92mzmECLXJ/Zvbz79zKHuP+7f3nq6vsY5zk1M4dCWJwkCgkCmCEBu0uTuBuHTFAQ6Um9W6uHLi6Vk+oyMz1ci3XnVyu0F9xTwoTsQFNcIa2cxBhxl3F09LhANXQ9UtXs67daFXgSFvfXsjn9EtPvi6LT3L+Fbd4GFZoWsXlSCz3yqEOekhqauVlgrzMG0NGrmYf8cfObwl8NqkKrkDJvncFgC7U1Vw8f3tn/68smt/wqymJsuh9XDgMDCtFieIggIAtkiAKVhEZkn8xDok9iAY+ee5E7MyFHoWAuioCvqjLr+rTQHcHMB7nnDnDdYHQiJQE817iLQs30j0rjOZCpbhPD29LTV3Xj2UPefYb4yXbgx/OrQuLs5Wd45tWGStSg7VK32uclENjl9o0wVshiY1ynIo/iOR0H9qlRrWdlJmNIN1eWO+a1ddTfhUvjToV2tX7Q3VvWBdcptEhrXNGaFnCIIrD8CqKuwCBegp9Jln0X1Qz/f6+QHguLKGBinP+OqIsehRSS17mMtikYZ6R6x+QKhCqyrZhR6EkvgskETga7zu6VNuqnJWe9pByhQkc5WFQiFn51fCNZwgi7djDKFbZHkLdCWy8AkpxzkftdNU0fwGyLZaRkI++aUiHY1kj3JDhkvFChukV/umkVd+Msn93d++NzR3j90NFc/1BlCub0gIAjogIDNYgq5nBYvLGteEEHFkZGzUqprfnSD4kXU25Ge0M5Vob5cn6C1AG20MNAYAcdV0Nhn7VZL0qB4HeAqiVuKQC/QMNVUuiZ3bTGdm/duqQcRTejc1aFXEOBRQ1rDJw8yOsD8DUY2RUtWTFBG+NQ5VPl6oei3R/QqfPdBn1sJyIsjhU6tsrbyGWyCFUUdUCltGrXLT794rPe3h/e0fVHpss2h/QgLkBrmBZpG8hhBIG8IcOUxm81hpJbOuRy2YCTidya1vFO4QpgWhs0yYXYnY9yTlNJcmbBqmTz+UN3cfLDebjHDR2lgTQ05NAREoBdoKkC7jYG+cPbAztav6b9CpGb59QdjR8cmPfUIonuiFQqfwyJ86kGfEvWp/A+aepmJWnuuQp0+MTK/wV/O/PLAglIyVWVnWvk6c8MBk1y8p7128MDOlq8Q/Pbeni1N51jDvEDQyWMEAUFAJwSwLoWRujaNyocBt9fvTO5LZz46BXphtHQ1dY2KzcpOx2OLZgQb188h2r0BAbgi0J/ESAS6Ti9KstvCT8UpOjA+7fkCJQFtkVjMDPPR06FwzBmNkQr2yaviMXKnLyrlUxkdby5z4juHIWOQC7TwKLTxSNBtCC3MpSyVqgTCMP3OYQ22NFZOoOzph/CZ/x4R7WccdqswvxVw3sijBAE9EOByA1N7CIFx0+B2x64+maGbCoBaqKVQh5K6Br+9yi6/NCFdsRSYUPwKAj3QjDXzdqHaVCrPyUE6lEoXi6+dtZXOyeN7Oz5GYIcVO07Tnf7JAyjmUqu09In3BoQz0JwVYhdlhwzTO2qWlxmzCFAhWQz841H4yUPwl1Oox5CmVgYjVtLNByosOR1W/87exptPHej84Nje9o9B6XoLMQFIcZFDEBAESh0BpteOTMyHqirsM8jIUQgnUurgiWj3XA2Ea4Cm3l4LjFspzynQzf5AuHbBH6qNQVsv9THId/sFkHwjmsb9wKDGYi5Dg2Puj+AHCsQwSVEe8LAvEHaxmMvyQDkK4khwQQmUQxl1gxn/ycSfxU1BHFXeQvCVR5T8cpY9pb985b6bLzTJJEDj6jm0q+0CNPOPj+1r/6gNkezQ1hfS6J6cIggIAiWCgMlsjDDd1G41LTxOAV8utFUfYOF6lCJ1TdlwwGAZDkfLsV6WY93UN/2ncD3O25NEoOcNysxv1NlS/QhUhnOznkAjJqnt3sD0HviHXE/6shURqxC+LML8Dvu7oqGbzWCTW4t4Rsk8QyoccsrJ/BZCjnkUdK6rHSZo5rU1rhnQ19545eS2f0Fa2pdop0SyZz68coUgUPQIgLY5ZrWagrC8BdYKz9FZOVexWuMhXBtharehZLUdSfIi0JfNMBHo6/zKlTut8/BN/wFsTbFoNG5/ODyzHUJ9GferGt9JLTschPmdByu0Qain1tRVrnhEripR7GEfItnjqa3lvI/VYmTE6+zzR3o/PIniKjt66r9H7eGxdYZIHi8ICAI6IYAMlSjS1wIpyWWU56raeSFC4hSZ/rjq2spOsw10VYYiMSfS2LLwPeoEZJHcVgT6Og8EUtjikWj0fjTa/vGCP1wdjsZ/ebd/cpuSVrbUyqVYvRidjoA2ZdIbDVbHIszvrCS4bFuLFyKOmuU0rStmdmjlMVZ2S7L75TMYZI9KceHutpq+wyCKefpA95/2bG06W+6yesxCFrPOM0QeLwjohwD86FFEuofMprKQFlDzhNar2geTBpzr1yhtRUsaoofGRGJxM/LR7dDWRUNfNgoi0HWdlund3GI2x33+0MNnEEUOP3olyGfs41PeNn8ojA30k1KYWrdSMEXhZVUD5Yxmq/JNiU2hvwhqWbK+PS57Cia4VKYsRLkaKsqt8z1ttffpL3/hSO9vUSlusLLc5tY46dPrhJwlCAgCJYcAVxGY20NgjgvjZ9I2JxGSFOmFK6OaOqBeXfMiUQh0ZAlBQxeBLgK9ON85l9PmB3vc/eeP9vwGGnPs49P3/8o3Hm5JqlVDe1coYpViBtDUyfuu1FI3KZHsSmEVmOYjoR+C35L1mpuFuhrn9HbULX/5xNZf793WfKq9sfIRU1lEmBfnPJFWCQL5RIBrjSLQlQItSXTiRDxcQWPiUjvSycMVjUbLwpGojYk/+cRiI9xLNPQiGsWqcrsH/vNLrNA25wk2Qt6+ODbtbWUxlyc1dfrHkU/+uEIbzfHlysY2EoJm7ncrpnnmnCc7SKHohIm9tso5e3xfxxf4fISI9q8ba8tH6MsvIkikKYKAIKAjAti4x6zItDHD7K4WY1ruKS+0wZ2NSHySdFwNijMhKM4K0ivxoYuGruPbkYdbV7hsvtl5/42XT275X9w5n77c/9bErLcZAXNP3h3SXgl6Uyq0YZsN4b0YBbscWN+UsqfQ4pMdjGJ3Wa2hzrbqgT1bm8+8fKz31/u2t5yx2ywBbBqSX5SHfsktBAFBoPgQ4Duv+tBpcldqJaMa1LJjvWT68nZo5HGRSNwMgW4Rk/vK+SQaevG9YwZqzm5P4BQM6ougi7WcutL/5ujEvEIR+6RLXaVxTQS9UYgrPvRlHMiJLjLH3W4zB3o7a+4/e6jnz689vf2fG2tdIxUuuxY6X4RgSJMEAUFANwQQUR5HYG4QlSHDqengEvb2VTTnvLYwuSU9YUCAcmOED91KS2ZeH7sBbiYCvUgHEelj89NzvgvMt/SHIhWQ0k/PuP0NmMjLzO8kgomA9Y2x7zwwxxkqssTnpfJCLBogvGe2tNfdf+pg1/s0s2/pqLtVpN2XZgkCgkABEEDUbRyFl4LIZtF86CsfyrUjDkWhbJXg2nw2VVmvFOVkpeOeVFjRWMzIqmsi0EVDz+e80/1e1aBk3Lut6UwoGrXDVB69eHP4hcm5hfrF2HKGNwjxRDxLkj0ri6vApO49uKP13PH9nZ+c2N/xYXN9xZDuHZAHCAKCQFEjAIHOoLiwGhSXOr6c8Th08RXiWC3fnTKeUe6shy5BcSLQCzEf8/YMkD3EUcBFKYyCXXQ4EIqUx+7Fj83M+WtZBW0FUVxCmGsbW41VydDWWDl+aHf7qWcPd713YHvLt/U1rnEEwggne95GSm4kCJQmAqz8iHUmTB86PXwpe6GwThYu1D31k9S0NVguzaCoFpP7sgETk3uRv4cWk4lze25i2nvaH4xUYCcduXJ79OmZeT+KE6SOYaPAd9gskdamipEju9q/fe5Y7++2d9Zfbm2sHCzyLkvzBAFBoEAIQJAvzrr9SlAcHln0QbHU0GFyX1RN7pK2tnyaiEAv0IuT62Pqqp0Tzx3u+T1KEpcFAuGKmw8nDs57QlWxZQFwCSpYu80UammsGHv5+Nbf01+OHPOzNqtZyp7mOhByvSCwwRBAyhpM7mURkFUVTgXPAUMoMmVKpUqVXUuOJQiIQC+R6UDzO5rqHhl3fw6Tky2EYi63+yZ3gy62MhE7ovqeFhXmJ/jLLx7f3/E5zPUfdDZXPyh32jwl0lVppiAgCBQQAfrRkVFT9Np5AhKsd/SfM71OBLqY3Av4pujwqMa68uGD4Fuf8/ob8Aaabj+c3AO6WCfSyw0mkykOcphJcLLffvZQ95+P7Gn/rL258hFM70hWl0MQEAQEgaQIKCG1Sro5AtrxVdSUqmgjKqfKSCZDQDT0EpsXFos5FgiG+0E887/hT49NzSw0QFtvM5rK4pUuu+fAjpZTbz+7439s6aq7Vl/tGkPtdQl+K7ExluYKAoVFgBTSZREUaKHZfQ4/JzTfZBrweojSpe1YjJehnpTJwDrQ69GWwg5Nhk8TgZ4hYMVwusNuDUGI94Gu9QuY3Guv3Bl9IRiK2PDvL4/sbvts19amc5Xl9jlwsieS04uh2dIGQUAQKEIEbBZj8OTBri9QytnDkqRp2rHTPO2JDmdyTUphzQQflHWeaIK1sgjhXNcmZQLwujZUHr4SAbc3UDs87t524/74M15/pOrY3vZPemBuR6GXeeFklxkjCAgC6SKAILMyBJuRGz2RBr40CbZY5MTjFHVaEUBZG5EiUk+OcLEMVLrzTs5bggBeQCMKFVhC4YiTu1b6ykkSgSAXMUXJTBEEBAFBQBAQBAQBQUAQEAQEAUFAEBAEBAFBQBAQBAQBQUAQEAQEAUFAEBAEBAFBQBAQBAQBQUAQEAQEAUFAEBAEBAFBQBAQBAQBQUAQEAQEAUFAEBAEBAFBQBAQBAQBQUAQEAQEAUFAEBAEBAFBQBAQBAQBQUAQEAQEAUFAEBAEBAFBQBAQBAQBQUAQEAQEAUFAEBAEBAFBQBAQBAQBQUAQEAQEAUFAEBAEBAFBQBAQBAQBQUAQEAQEAUFAEBAEBAFBQBAQBAQBQUAQEAQEAUFAEBAEBAFBQBAQBAQBQUAQEAQEAUFAEBAEBAFBQBAQBAQBQUAQEAQEAUFAEBAEBAFBQBAQBAQBQUAQEAQEAUFAEBAEBAFBQBAQBAQBQUAQEAQEAUFAEBAEBAFBQBAQBAQBQUAQEAQEAUFAEBAEBAFBQBAQBAQBQUAQEAQEAUFAEBAEBAFBQBAQBAQBQUAQEAQEAUFAEBAEBAFBQBAQBAQBQUAQEAQEAUFAEBAEBAFBQBAQBAQBQUAQEAQEAUFAEBAEBAFBQBAQBAQBQUAQKGIEyoq4bdI0QUAQWAcE4vF4WSwWM/GzuLio/IzfGZd8yvjzkqYtaj8r60lZWdmi0WjkJ45PLPEzf28ymWL8aH9LXLcOvZRHCgIbDwHzxuuS9EgQEARyQSASiVhmZ2dr3W53NT/4uW56erqe3x6Pp5Ifn8/nikajJgrppc/iBsDhcATr6+unnE6nn5+6urrpqqqq+fLy8gX8frqhoWEK3zO5tFGuFQQEgZUI6K6hh8Nh8/z8fNXg4GAXF4llO/tEi1bbqSttxCIR4KLQ2to6igVherMOJhZbBc9Hjx71crHlApotFtSSuru7+5ubm8eAr99sNuekMQWDQRvHeGJioonfWPDT3jDabLaQy+Xytbe3D7e0tIxn2ye5LjMEOJ8CgYAdQrqK84pzanJysnFsbKyVAlwT5o1TU1ONFOr4O8+r9Hq9LmruyZ6GuRTGOzpDAY4xpRCfrK2tna2oqPA0NjZOcL41NTWNQ9DP8J3G7708t7Kych5zMJ5ZD+RsQUAQSCCQ9oKbLWTYyZffuHFj7z/90z/9+7Nnzz4FAW9dvqtP595YBMb37dt37d133/03nP95OtdstHNoCsWCWnHlypWD/+2//bf/6/Llywch0JeaPtPtsiK4sXhG/uEf/uG//uhHP/pzW1vbMH4VSPcGyc6j5nbhwoXjn3zyyVvffffdU1j0yzHWqRboxxsR9gGL/uyWLVvu/epXv/pnCIoPYJbNaXORSz82+rVLTeoQ0jUjIyNtt27d2oP3dP/t27f3Dg0NtSU2ZNiUWbgxo+DnNz8YH5rcU8LETbzf73dyw0jzOuZZlB/8HLdYLGFu3iDAvR0dHcN79+69tmPHjtvbtm27t3379ruhUMitmePjCdP9Rh8P6Z8gkC8EdBfo3MVjYa8YGBjoxqKxC4t3Vm2nhj86OtrS29v7EBrEVe7m7XZ7JKublfBFDx8+3PLll1++cv78+RPQ0jtz7Qq06WZo1vZcNP1EG7jYQ3urxlh1QzDshuaX9vyamZlpo6+VWmKufZLrV0dgfHy8ua+vr+fOnTu7MIe24N3sgUbehverHfOhBZtG+2oCOx18sQHgadxs8mNJdg3myVa0Y9u5c+fGsGEf4aayp6fn0datW+9jc/cQ1pohtCPEeZHOM+UcQWCzI5D2gpsLUHwhuUPH7jyO3Xs2GqUBO3cLFoAOaKeHdu7ceefIkSPfo00TubSrlK6lhkRtCv0/fObMmRegQTXk2n6MhxKglI3FJNmzNY0qjrGO8d6ZCHSeT3OrtnhTe5dFPNcB1q7n3FlYWCifm5urodn8448/3nv16tVDnEsQ6N34XR023mYIT2rfhmw33Zk2Fxt9y4MHD7qxSe2itYj+9s7OzqEDBw5c2b17941du3bdhBY/hA3IRE1Nzaym5cu8yBRoOX/TIFAQga6hmbWvl9dzkWGwDky6J/ni0/e7mQQ6F+SbN2/uhWb+1PXr1/fAvO3YYLOUC3VOc2SD4ZG37lCg3717d8dXX3310qeffvoGTezwiTfBLO7CRpkR7Hl7ViY34nO1Z5fRFYf2WDGvqyHgt3344Ydvw98+/vzzz3/98ssvf/bSSy99SX97JveXcwWBzYZAIQV6ztjSLAyzYMf3339/4tKlS4fh6/PQD5fzjUvgBsPDw+2ff/756+j3USx6Feu1COsIlQjzPIJLixY04EqY1Xf+j//xP/Zx3ly7du0g3V6Ia3FSEy/GA4LdgI8drhc7Nh116IcDG5BO+vehuV+GRn+TpnkE3oWKsf3SJkFgPREolECn9pX45NRfaKo2CPLOU6dOPV9dXe3Gv2cRYOPP6aZFfDEWNwu18y+++GLX6dOnn79///42LMZZuS0K2M1szKIi0PMwQAnzOjTyDgi/rV9//fXLsOqc5M8QkhVMNSuUST3X7nDTCm29FwKdm/gjTz311Blo7F8cO3bsAuJo+rU4mnCuz5HrBYGNgkChBHoCr5wXbb7k8AVWQsC9ToF+9OjRC1jEgvTPb5RBWdoPmiIZvHTx4sXjTFWD1mUrlQV5I45HsfeJqYO0XsFP/tb777//NoING5iShngGa6nNG7YXGxADNrQWtL8F2RNvMmMGAv38K6+88gnN8Hg/JqxWa7TYx0XaJwgUAoFCC/S89AkC3MSId5gQGSD2DHfsuPFQXm5eRDehNoVAwEakgD2Lz3NMJSq1RbmI4NywTWEaGeNLoJXv/O1vf3uElhxsAI8h02BnCt6HksOCLgJs5F3ws2/HpsXFjQrcUB3PPffcN4jKv864GhHsJTes0uA8I1CSAp1CDS+1FWbEnQie+TGDZbBwDW+k9Baa1ekrZ1oR8vefRlTyfgYN5Xn89bodLTE5W2P0atxGui+FOVMFSQaDd+Gdjz766B0ET+6hFWujCPOl4wWfehnS7NqRZteEDcx2CPMaxtYg1e0BtPVpEeobaXZLXzJFoNACPW+LPHfs2KE3Iyf7pT179lxjqguEvBe56RvCp8ZFCtp5J7Xze/fu7YCp3aFDIFPexiPTiSfn544AhTkJXGhi/9Of/vQzbPyewVzZCQHv2IBBk48BoxkefbdAsPf++te//mts7Lf94he/+Jenn376DH4/LKREuc8tuUNpIlBogZ5XlOBXU0zvjOAlGcXx48fP4wGTeX3IOtwMC5YRJsU6pKcdgEvhOQYF6SDM9e6ZbBZ0RJgWKmz4WpHGeYyBb9jYvox50sUYCz2EOTRf0i9HsGH2kcIVn3lyGCzvIjeitAxAk7aT7x3tqYIP3MXo9XwetNLhGYb+/v52bGocZJ8jQdIzzzxzGuvCkETB5xNtuVepIFDSAp0gM2gMAv0EFpgFLTe95AU6FiQnTe1YrE/gcxTC3VWACVUMArgY2lAAqHN7BDVzkK3UUzP/r//1v/5f+D4C07NiYs9HjAUIggwQ1gZWSsM3aVsjCED1sIYC+ddB/tLf1dXVz/oKyxkGSS6E+esg4x82GO3ISOmCJt2pRdhbtCpuJLHJC4EN+wt3Qx0sFD/FM2q4yUAkPHcPg7mhLFcLAqWHQMkLdC4MZJBDWstxfI5i8fCggMtwKUe9s0AG0/KwUB8j+Uc+FukCTs1s/ecizNMYJFpvmEf+2Wefvfab3/zmr5hbTh96viw4FOZIB/OyQA4YGRWOdbxPIyimMsECK9DQgwxAYyGdJRr6E+VTKbQZpEfBTtpnMtSRbpYCnu4jpF5u5zvLAi9pdHnNU/h+ABM7N8CkH6YbAs/5ktSxaGtwzRvICYLABkGg0AI974s2X2YsDFZotFu/+eablxggR5pIjM9CqY0RF2sKcEQobycjHKOWYYFIWtEqT33L+3jkqV1ymyQIUDOHi6mVqVtgfHsTPvOTFJa5CnNo4gZYuEIQ2JMU3tTAyaWOoil3GGwG4T7Gcqgsi8pmZUIVzOBOCne6kND2Ngja7ZzXrElAzn8Kefytke9wLoPOjT2IaKqYc4/NfIiC/dVXX/0MZvj+jRJXkws+cu3mQKDQAl03VJHSVY4o3x/Rv3fo0KFLWET8paalQ3jbmGuOYhVPIar9AEyJlboBJjcuKQQozCmkGMH+X/7Lf/l/sThPPoQ5QaBZHSb0B4hBOffGG298yABTlrGlqV2rw5ALxwP97PyMoP1jfDfpJiOnPFPrYCr/Ceb7SQj5bbkWCOLmHpg4kX//JvnpWXud6wGeO5FraeCSmizS2E2LwIYR6Nyhs1wndv47uFCwkAMXkVIZWU37qgNhzquMWIYwbymVtks79UeA5DDUyCGsfspgSWxg63MJfqNWTo0bGSK3nn322a9RxvQ6ypfeoyCnNq6HqVqrdc7NQRTm+AkGsYKvfZIMcNjAHmQAKKqv9SKILqcofW4MmNL6L//yL/+OmwdwwX+BDf54qW3w9Z9V8oSNhsCGEehLctN3MOoXPr/xUhLorBuPiN0emgwRC7AfC1DaJkguzvR95ivQaKNN8lLvD9wwdmiw3TSzw630AtI1WxHhnTX9L0zQMZjXp1m1EGxrn7/55psfsmwpa9IXCistCp1kUEMo2XoHG4ubdJdh08I0TSW/HP3Oen2CGb/y22+/fQH3dCOYbwqbhwCeNVeo/slzBIH1QCDrF6YQjaWQWnqsFRxGXyJ25p3Ylb8DbeM2XuqbCN5ZKPa66WS+g2WhlfSu0FC2YrFOS5gTH37YP5hN49B6bMzRzfLIhn89y0fJZekiQLZACLgeCPIXGSiJn7difmf13nKuYPMXR+3xUWrHf//3f/9/79+//xoi16ehvSoFzNfjYLDdwYMHL7PoCr//8Ic//JwBrngnurFJzSrOQ4utqWRuPoL8PLj3CO7l3kjkU+sxVvLM4kYgq4WhUF3CQuNDgNsMg2pghqugn3w1M2OC+xnm6ibQX77AyFyksHyF9hZ1Khuj2hHotA8a2FvwoW9LF18shF74PgfoXmCkMwOMgFOxjKlsENIdyBTncWPHlCzM5ec++OCDn2CzStpTS7a3xfswS74GELB8CzP3aQjPKzB507+ci4882+Y8vg6bCfrYfehv+MSJE+fg9/Zi0zGG3PpXuMGFu8GWzUOwbpB8qpPR79jg32FUPrT+Pj3cCdm0T64RBPKNQLEs/kn7BYE119vb+4BRq6B6bIXQOpCO3xALgw2BNs8wTxbRug+g5Uyv96KVauBYTAOBTl3QSI7B3H4MwTxrpvJQ0+LmBYveOE2mTNNBWcy9rHGNv5nXsmTkexLJ/fRBgFX2MDf2woX0EoT6Cfzbmc2TMPcNrEgIs/aN119//UPOGfrMScZSTKxqaA+tBP38oFRwkEF53OSyUhxpjzOd11wruMGFu2I378N0O1oDcH9JZctmIsk1RY9AUQt0vMAmLEQLYH/6GgQVHSwdit26c60Xm2ZnaKvNzNFlsA1eYmr5g9gYFJXWSHMiU224YLP4CoR7Wgs2feYk/sBm5xGikj9AEY49XLRyjRIuotlaVOO0HrhwbmD+dvz+97//BeMqWCM8m3Zw8wc/8gJM7GffeuutP7/77ru/o1+52IT50r6x79i8X6LwZTsh3N+4cuXKftZ4X+vdT4YRN0IIuHua6azc1CBexQNXHH3qcggCGwqBohboQNqMFzq8a9euWwhsmYQP8T7NjjC9O1YbBb70pJpknutXX331KtNXaMLDNfnln8xhKjCqnQQhWpra09Cwd0OgpzUe8JkvwnR698iRIxdgSrxL64X4BnMYjCK7lFYbjGkdKY1ZBxyb2VZyFGTTTJivg7BS3X/ttdc+QjT7Nx0dHcPZ3KeQ12hz2Y334y42IR/Qv09aV3K3Iy1t1Xc/WTu5wcfGuRob3930zbPsMjb4DzVTfyG7Js8SBHRFIC0BomsLVr+5if5h+vko0JlewzQUCPRd6bQJL385yWbgZ+5D3fTzxZSPypxiLNSdXGCQhrQXvtKqdPrEcxgNzMUZvtBT0DrmGBCHX2fL0JbuY+W8AiGgFVw5gg3sCwgM28pa5tk8mto5SWJQXvgcUrc+I/NbNvdZr2s0Lfo0gkWDjHoHO54Z3zvYnkw09YSbDu9bN6xhrzA1D2Q5o7hNyZFPrddYyHNLA4Gsdv0F7JrSPry8Rr6EP/7xj/+AqNxLMMMHaHJe62DUO4R/3eXLl48zvxtaT9ta1xTi7zQpUuNABO5TMKn+EtpDWjnnXKCxyMWQYvQAwX5fgqTje8QJ+DVTOwV6sY9nIeAt6WdAczSTJhUBYa8i7ep5FjbJpkOwbMUZg0KXzF/91V/9L2jmgxo3Qza3W7dr+K6wRsPPf/7z3yCQ7xQ29jPoW1YuGbxntSxmQxcGN0pMB1y3jsmDBQEdECgZAQAz2RyE+VUyTcEPdpdUlWvhwV08XloLzNkHsEC+jojZnmxNl2s9K5O/06QK82E3NhqHYVY9wMIV6VxPgQ6/+UONCOQai2VQO99AvvN0YNjQ52ADWktqVJLHgJegFXNl7Z1rEkRI4frKK698jo3f12R+o1WnWANDVxtQmt9phdq3b981ZqywmhrS0NzZTAJGvbM6IwNIiTFplrO5j1wjCBQrAsVuck/gtsgIWGjcbviNLyISvBHm9GoIwu61TG/U0iE8G8hChc3ABQpELJKT8ENnnbCdy2Ay55xlL6mdY9E+iH6kRe+q5ZuHDx8+fOHtt99+j4UncmmHXFt8CMCdZEHwVxe0yJN0xzBdM9NWapXSort3776BPPP/B4LwOoS5N9P7FNP53LRiI+6jMCePPLBpx3tTQbfVWu//8n5A4zez7gOCZQ9xLcH6MFtMkf7FhLu0pfQQKHYN/QnTGl9mCmSa3hjhjZ16gBHfqx184SnUmdJFLZ2md/jhatdrqJhPj+CcXaB3fZfR6em2A26GGIpl3McCfZUYsNpVuteW0HlZmVJLqH8pm8oiJkxTu3Pnzm4SyFCTzKZfcMFEMT/6ac2CZn6VNK7Z3KfYroF1IcZYGmrqiB05jaDQvmz42RkgR3M7c9NpsWM1OPwuK/KaYsNI2iMIlJRAp/mN3M+MeoemehHRu4/S8aVzmJHu5mAFM9LCkoAF2lDB+06GLzy7DZr5fpjbD4LysjrdKQh/6BRN7YxsZ03qhPlUzO3pIljc51Ebx3xoYmlRfLZgvmbl38VGz0tyFgSBXmCVNI1itbg7n2brmEuPIL8haOqn6EZg/Eialz4+Tav5YKEwB5nTfhDPdECgZ2wJyfS5cr4gUAgECmlyz8sumIE9TEN78cUXP4fJvQp+xk76oNcqIamxRtXR1MbcdNJd4ndDhcxNZ/Qyo9oRtXsS2lhawpwWCKbXIBDuITi33+dCZrVaiyb9rhCTdDM8AylaLvp1aQ5GVHtafATLcaEWS1pXEsfAvXRZ2+xtKKsHLVPsGwUytOyj2CR3pJvuuRQv4F0F8qmnSTeLTcIA/lay7xTdeNwQ0gXBWvSJD3+XYg4oazHTAbmekg6Y3/w32fS0z4aZN1SkiAVxIUbY1BkZaE1aZf7MT7I1hhZhfvheESOeQ2yAU3gJTvzbYrGkDRdSoGezLicm1ePNAIFjaVSa3lhfmbm6WAj3IJhoVY0m4WuD/3oLiSqYBseiDWhUQQgmSG6BzUcH6SxBInMSC0paGhi0kPi2bdvuUjtnNSxo6u5VgMzLpimbgZJrckOAm1OagUkBzKDJbO6GQLhx+szhP7/F4kRaOmM2tyraayh42DcWlkFfb2DzU451oCHTBrN6HQT6cbixbiJ48DNcn7cUtkz557MVBnwON4Kw+tXR8kcLD7N60LdK1p+H9aGdSkQybCiQkPkwRDcGue5p+aRFh2uipuz4SjlPn9gQV7hUXNj8KdggNbiRtODEjFlGxIjpkJhDrO63Qqhzg0MrEDEhwRlxpNzAezbKQM3EB/jN408ZW4synbPpnF/sAj1pHwA0A9rGIcyvPPfcc1+zUhkmspKfutaBAXTR9A4heYeLAnZvfdB4ySWt20ESGRTV6ERg3jNo8xEsQI3pPowmVMYMMMKXL1+618l5pYEAFx5qUbDc1NN6xIIkTF3LtPXUJMjTjpzz8yxEslGZ0LhIM0AOfX1APnps0DuzEehY0A3YYLeDqGobF3usA/NYB3IKlGUGDd7zHSgus5MCM50xpOaHjcUkU/PIZJdOG5huh8DgBlj6mukyAAZdzJpBumMrBRYEegW+6/H7ttVccrDmUIhP4Llu1r3AvBnCv0eYIcE0YShKk2TrY7tKIUOC6yzjUFjXAu9SHZSn6j//+c8txIduVqYtA6MWCnQIcTvGvQHBlVWrBVZS1gCbKQhtLwNOufFhQDKsxJPc+JCFlAIfBGZTrEHAbBJukPhNUrR05kA+z8l44cjh4dmYcFJewyAi7LCGmWeLF7MbwUS9+B3NKqs2kaZ3vsA0e4Nwpp/8zriAJBO6HNou2ska7b/5zW/+Bi9aezoP0qLaYwliEFbF0tqazuVyTokgQDMgFyEuzFhwmlkLPNOmc65wwSVrIH3nmsaQ6W1K5nz2FRvzIdZRhzA8CYrcvXjPaD5Nuw+Jc7EWMI1tNxdgCOTRbALtEg8l6RUEyI/+83/+z/8f7T5L168VaxmFLQR4CC6Sr/7dv/t3/4OBjLiXJ1UnWE0RAqgG/e2iYgBL37NY93Zy3oAW1472s9qihdomzcmJmg+p7of1sxHCv4GbD83kTv78MIUULBd3kR58nW0i7z/wHicNbzHGZJASWGMSrIPLagsw2cXURNRB2IfNXjOtFEvwWWpyB0RqXYxkh1aS2ow1uwVYNfMcshXSZUucsBmj+T2iWTimWHeEtUO4sYbCeB+B2HTpRugi5XchLB6FFOhpv2zpnEhzIl4gN7mZGSBHWkeAzWCiVQNcOHjYoVkRlHaUnNYwT97UU6CzYhapWZlXTJ8fXsq0c18xQfrI8EW/OaOVddwlZ7PZSmeYMjmnGNqQSXvzci59epgfLTALcu6mzRa49OFYKAzQDjzMfqBbZjNs/NDfBWa6IED2JlL9DkHzasumfjpTYLn4U+PXLGBZa+kU0NScsTnLiMAKfbinmX1Tcg6wyh6zY7iBYQouhRbT92CZrKZAy2YyUrnBh246ygF+FDcgNjmN+DQDlz3YNDxDhkEybcL6cwHtfFRMQp19p/ZNhYnlpxmHwn9DmDbgU8+iPtlgw2sSGVKakphwZxKn8qX3hGBvpVKJYNattHYwaBnujAG+j5QvfCfp3sBGazZb90q6fSh2gb7qIo+dD+ZjZIaTjROQdZSxKK75MnGAMOi1DFAjuQtMMqP0y2EHmvXLnApwTKpGvBRPc1dHc386A8OdIXw2QeyMr8G/9ykXrjSE+aYUiOngWcznUKBjMehhuhoWn7Q4CZb3h9olBNI9mm1pIi2EJrDemHJDj3d9HsLwNq1X8JVWA7+MN0QQiA0QlHtJo5yPjJF0Te0J/DhW1KrpNkzGO0AzsmZe3wYT8stkEGRVxmwsOemOmZbmW4O1qwbYbOOGiRsIMhgygwJa7731LrvLQECu+djg9GINPwKT9yvA5SiLcqXbz3ydR2sPY6LwacFmTkk3xXr9DGMSyHXAeC9YPO5Ae38IWTNCCwh4UEIMtstXGxL3KXaBvmZ/6YOC4LvBkqmsrsbdJXez6Zjf8DI3JcoqIoL8Azxses0HpnkCTe1sE4T51n/7t3/7BTX0NC81YAccwwL9CJr5ZaboUftK91o5r7QQoJmWBXrISUDfXjatx+I6jliSb+j3pGKRzT1K8RqaibmJIYkOhM5BVi7MtB/kpEDcwhYIzXpurnA9S7gW7GBFSfh8a6lV0vWCB08mHo754IDwrKVC8N57771LpYD13bG+ZeyWybZDVC7QvhrGHcEC2kXLJlwEn+HzJTZQQ3QZ5OKmyLRdjFOgeR3vTDu4/V+nIEebDmAtb+T7w6ygdNb+TJ+b6fncHJLSG7VEXgR2JxhAB2vyTWyIvjt58uR31NrRl7l8C/VSEegpFymNRWqaO3UGyWBg6xEpvDudQcVEdZEvGzumaZq1IYBZVjIvWjp9ozTDYJNxAMJ8H4NU0p0U9MmwZCwG/nSapvYEPptmMU8Xy2I/j0KEAU3UhLBAZhXdzvlLSmQEOY0n0muKvd/5aB8DlhAHM0CTMDSerLJVgLkRQlMJJiPpE95b1ohP3xmfh45wDlBIc81I3I6mZLhhOj7++OO3kJXzGqvu0YyMDWBWVMDZNjNRuRLPdWC93ELhTqzoq4Y78HMIqLO4d8EUDm56Tp8+/SwFObNC4Cffw0p62fZPr+to5aB1BeNKq1sl5lgTLQrMzGLw4uuvv/4h5NV3+FteCcJKRaCvijt3OZhoMy+88MIX3Glruenlawl1vDQGTM5qCN1DNL9TkOLlGsh1x8mAPZpguDMD69eLDD4hQ9VaB3eX2FDE6HthVDt3dKVYUGOtfqb4+6ZLuWPgEhbGKpoyMUcy1i4TOLIcKINwaMrbTDSmFOikcaZ/krUe2HctayDtKciFF+b6SrrGyKNPLHFxLtHJGW2qKTC1gD5TwuSPPlnpj6WJ/de//vVfQTM/wMCutdaztDudw4kQSrXA6xlYNXoxZ+vZZszfK4z41tPVw1xyuh4QP3Dwt7/97a9gWX2FylsuPvIcYMjqUrS/mqRi9KMzgA7m+O9FoKeAkoQT9KVhV9uLHdxzmADbIFTT2s0iuKQH5ps3mbrBPEM8IqecQuYRczdGCk9MwKfTzTlncBMIZAaOHz9+lloHX5I0fOdZTS65aP0RoLaBudfBXNhsWsMNIDd8nCfMjU3kymZzr1K9hnE0NGfC3TAKIegBllVrZbos7ysFKlOdqAxwc5CjQM8YSviDrSQToqbOSHYGSUJgvQFh/itqoFg/nJly1mfciAwuQBtNaGM7OTVo/qZrEdbEs2i/LusVzewYmzqm/QKTv0bw21Fugqk4ZdDsojiVmVisJ5CKzCbXRm4IDZ0gUEvHwM/QdA5zxkfvv/++DYEcPekARO2IEZIQojfhk+vDBL2Xi+mdZhVq5/SLYuKnTXoBgR5ExP75V1999WPmEmcozDPSDDRceE0216UDq5yzCgJcpDA3KjhXoPFQO8/YQgFhtggz+5gmzL0ZzpcNMT7UdqAterERfsTgNuZgZ7rQU8skIQs1wGwK4uQCpJZ1U04LAYU658Mnn3zyxkcfffQOtTls+tIioMqlDZlemzDDM7+bmxC6eei/xrr1GbBnBci8rim0TnA9hfvhbShrT5MgphiqZmaKG89nnhzjEvjR49gwAl0Di6aMR8xNp48H2no7I0jX2rFDgJexGAapIBGZOKqZ3TLOTedCQlIQTLzdH3744Y8RwLJmNTit3Qb4AONYlPoZNMFcYlgc8sZcpcfEkXvmjAD9a3bkFdfhOyuqV8yZMOcM6Us3k+98OfLAIUj6VlrYINy7qPFmMjr0XTN9jemlDFLM5Np8nEv/OS16LBrDNQS57D9DkN9hzo983F+ve9CNyHRB+viBm43pWgcPHryST02dDJt0P8CC+gaE+TNa8GLJaeZLxoCSnJ+8bnoS999QAl0LkJsl9SVTvrjDxUvahd3jmnOavhiUNH2a5AnMbcfLNIWFIqOIV+7u6Ydjmgd22G8wlWbNB+MEmk5h6mP96s9YfCXNQLh0bp3JObpMsEwasNnO5Xzhoo0FMCshwghjCnMyVW1mgc53lsKcwYHZ4EC/OzVjBCf2rJMQLSMHAQpHvYQNnrJ+QHDVrKWIrPf7Qk2dcUgQ6k1M/0W2xY+JP2iqv0XbQrm2j8oRhHkXtXNG+mPD04PnbQSZpdtauxHAeWLe0OwI4TyDKPFvuev+4x//+BcQ6HVrTS4GnMD0zvKVu5geQl86dp39mdDCkhsYL+WLCLA7xgCItZ6Z0M6hjQeRxnAbgXBfpplzns6t1+sc3SbrenVIj+fSzMvSnRAk7TkQylCQjbNYUTaCTI9+rcc9ycLFoDjEEHizIe7QKrBVwP9evTTSvBB9oVDEPChnUR5G2zOugqb/TIQ5FQK4XqbIQUCyrAQWS9tP4hqsiy4GANJkTbZM/M6aD98824q2d9JVwMBMWEsGce+BXAloOBbMEoLF8x1utrIl0EngAMKlMDNB+M5wfWdbGXvFDSGpk5ONN99TcuMTO272+M4yG4Kyhes9FLiKQsyTdJ9RaIFO0DJxHmQlHBgow4pMHAQWu8Cut5KTIZ0oUeYzIpXtRfIX04SE9rrTAZP8yhDkvTS1I5Al7Zxz+kFpNoXv/xJZhfjcdJ5X5OdkNW5F3qe8No8LBRcGmnm1/OOM7w+LFAPCuIjPb2aBzsBAYkCBno1vUvNjU9ixNnpB10Q+GwLDDKWjlUKF82K1jJiE/xXWw0XwU8xDSHkpnFiXgm4HxlTQbaitXY/nFPtG7Z+pb3RHglFtFyljuXmgJRHrI6u0ZTwHExeg/Rby4pOOFtbGQVTDjELDHsg28l0LhGMG0gEWs+KmJ5vGQVgbkL3kxntC9rYh4HSLFMlUnBinlBDqqd4fBq8xTY+Uu3xPKcT5b8YPkBCKtQSILd0mdJ1BDpSTsXANWZMwu2fTpVWvKejkzXvrU9yQAXIMziBDD6lTySAFwb6L5qG1DgxYJYTy23xZuCnANQtrBcjRNISBbYUg30t6V/jOW9d6TuLvrObDfHOYqb7hy4hnZWTm1+4jAjRdwIvoPI1akulKWfkEySXN/GtyRafSMIqou7o1hf2nlYLaKXDIOIeciy83/RRw6+FD5/M1AbCmssM5ww+E0QCtkGTJZEYMXQ4sDkJtkx+6Y5YCTm2XsQWMSGeQGQUUTfs0ZUOBeYGFXBiBne0gJfrA9F/cg8Ga4xqV7tr+ziQPZeYHCt1s14rn1GX7jkCYz8Hy+TWtn6xEyABSpidjI+TD2htg6uNaVh3g5k6Up2WsAOcIMeSHwYAa7et2tHcnNyD47M4Wx1yvK3aBnrWgoj8dqSiTpHTEZO1hFStM5jUZlshvjMleztx0pGW8BL92HLvFh6vlpnNXTz8PzO0vkzQAz1lzgaaZjCYg5A8/QBu/ZRGEzcDBneuE3SjXUxOjGZTR1dkSylAzZQAnF/JsBNlGwZKLMrQmLxfobDY2FJDUipluWmiTeyZjAPNwlDETWCsuI/jsEsmEqJlTI8faEczkXowb4CZIqwc/SB84udsZS4D5mLVgh8Zfxftws0CNGMLvdjoV5JZtPsogyOsoHFkhLZsUL8wFAzKWHkBZOvPaa699xJxv9hVWnIxTkjUrQ8J8sSJYGXPvIccBKaiXMSbf02XL2gz4dxdTEBl0vaR/mVqpMxlWhZB/wx70j5A6FTuzyxC4x/HCbsFnTWFLQLDr2vrBBx/8NOFzwa+SRp1zEcCANrCIAfMkU9UfXg4yFmMDWK6GGdVOYU6/zjqkHWW9Ydqwk6ZAHUv40LEBbIApLyuGOMyXCP2m9JnmSoZUoG7r9hhopUHNUpGxhp5oVDabAd06tOTGUE4Sm//7YBf79t133/0tBQg3c9TGM+WP562plUJ5GWQALu/FIGLmlXMdQyDaNi1YM6vuwYVQQ4pYUhGzoiVu4s3kRtTGGVwMt8BuWEybMrk2UT0N1oExZju99dZb79PSSqz0IunSYhfmoZzdI9c93A1fov+HGGQNi8VxmuVpjscGPiFvN63JPac8aZreYRKZQZWgc+RARoDcz6Gpr1m8hROIQW3ctXKnyZJ4GJD7TBNaPrlIDMIKSORqp8mOGn46B17CMF4i5sx/yB12HoR5sQnnNc2H6eC0kc+hGY9pOdn6LrmQk0yGmulGximdvlEYF6tATqf9q50DYeSFUnLjnXfe+QNdiCzPiXH35UpRq2meC5iHAZqhEcvTxyIi5EhncC8Ec1bplKw1TmHGzQKFG+7vz8SXntjsUssl1Wwm+FGg05LBvoBv/nOW2MW//blitVobND52avCUD9Dp/B4WZuFGApaGT1Dq9igr5EFz38fqm3RP5KMQULI2FUpDX7fFnTtY0mJiYn0OcLdDm67jhFuLipWCmTmPLEpA3zZ9VJTzCRCZL8pBQXraDgbCMUAC5qU1tX9OOJjHYtgk9MEMdJ5mM5pMM5m0cu7GQIDzJ1cTL7WObDS0jYHgxu6FVhZ3AWRTlyDM/0gBxTrltESs5ffNBBlN2E5jXVTcFswaYOYFlRS6HzONhOfaCeWmkaVMWceCcxRH2hZILfK/guVh0Y6MguHoyqSCxII9DHzDRqXgfB6spEbLLoMV6XaglQLWiiHIoSNQLLu4eWKMgx4b0EIJ9EzmV17P1QLkpig4EUByjtGJ0NK3ITJxzb6zEAIZ5DAA8whAOYV/zyXS2MjDzRQQBsKhUMAL5GtPp+GccNgczLCQDHPOuZPLY8WdYtPS04FEzhEEBIEkCNAvDpfhHcTxfPLzn//8N1QqmMGjF1hMM8Mad4/3p8mbAWAwGR8kj3omz9SCPSnU20B//QIzEMiVgHuk7Q5hRDkq0LFgTkbPpuuJChiE510Kzkzana9zl2y2GJw9w/6zuhrrcyC+YC8VSwZwYiO+doGPDBuVEVgZ3jsfp+dFQCVqJzP4jCkHDFRIh/SFplCa3lmrmiYo7qiw+7yDHWycwUys1EZzCnmGMenTskLAYhDGju0BC8nQcpBHYZ4PvOUegoAgsM4I0IrHNQZa3SDN7Azqgk94Uk9hnugyA9ggRPvhe/6AaZXQ0KuhBHUzFStTWLAuNjNQmKlicHteyOR6zXpFK2gml/FcUqvS/ZL25iHTB2Ryvmbqpyk+DPdviOmEcJ9c1VxlGQUypvPcjAcpnZuuco6uEX6rtY2md5ZYRRDSafjFj2CyHiCxwlq56fw7rulg8RaaxmlKwcAEYErqQgGFN2mW4g42nYmHl5Q554OIUL3IIBT6mHLEM9fLM35b0nxgWpubNO8lpwkCmwoBWvGQUz5EKx7TWZk3TTN4oUBgJDhM3ff4bKx9LVgrSaySlgVyaRuhNDnBr7+TaV3whVflkxI2FRZcr8mLzyJdJArCeYOM6M+niyLbcaA7gzTFlCHcdOjh1y+0QM8Gi7wIB2rG0LjH4Y/6Hpr6N5xg0Ly3cbDXahRz08FX/CpyGIdhtr/IzQGu3QlT+4sgaehJR5jzGfStYKf6HV8U+lQyTTVZq53yd0FAECh9BLjYMy3tL/7iL37DEsoM6iq0QKLwoe+epm+kj+2H7zdjgU7eDyg7LpjO22kVZe43RiervPR0R5X+e5i0e0Ekc5wR7mjDHazPNG3rpbyk2zQls0DvdpSCQE8bsLVO5I4IZqBJEjIwRxATrTWdoA8G0LHqEfzl+997772f0ZxDMzzM7mlRNNKExuIrJDVgXjxSG85u4FKXa26QVhmnXK5da/jl74JA0SPAgFls9gdIikW/K6yCnkILc4LEQDkIw2kG4bE0KrTdWtIUI9sno3eUyg5oZluQCredbgMoUGtuTrRIdR/Wy3FsCCpgEU1bTvF5FOoMUv7nf/7nv6OWDvfm13juxHrgWOgJlzZQhW7YsudlNIlWaysDJWDuvo4guYsUypig29fyDyU0cATT7UBUexnrJ2uEIK50cKEJDZNzjH4klnfFCzuSznVyzsZGQDO7Zc23qdGEkhbRBKSKwme4sUdM/94xABdrxFWuUeSmyJSUJZ8tJGslhPFoIu2XCkw2xWtgAm+CQN/BTYqWLbSmtkz3JmKNhqBwNUOgZ5S6RgwYpPzFF1+8ik2JncQ0LNgFK8M0ORtoKd2osUulItDzNk8ZWAJte4KUidDSOzHwNQj6aEnnAfAn1eH8k1oU56qcy0vvx5xzbCDO//KXv/xfJFtI51lyzsZHgH5RmjapOaTj+lmOCDeWZJsjnSf+VjAf68YfmfXrIYKmpuA7P0U6V6anrV9L1CeTnIubC3K/k28Dv8q4pCsFOiO7yXmeTn+40aVAJzc9lKjtuCZjgQ7NXqkCh8IubyKyfDesDN9BU/8SFtLTVK5wz6w30un0Yb3O2XQCnUAzMIE7Nuz+PmfxFuamk593rQA5mt7xychaQJID5iJqaXMXuENcr8FO8tw1d8pF1NYN1RQuWnS7sEoW/IudCELKmC0Oc9HCYhHkvQY4Bc+3LZYBIScEFm8Gbjmz4fzWospjECILeWATy2h9SGCYYDgjHSsFKGNs9AiaynTMGC8ETXkAZDb3GMRLBYjZP+nGDfF5WF+bsSHYwapl6RCq8N0gDixYRRpZXNudabsTqXN4pgsBctuwvtupwCHu6WVQwvb9z//5P/u4LtMKwiA10m5nWUcj06bpev6mFOiauWUCAW3kQ/4eppgODna6tLDpjghfUgRnuJFvfhH0rle0nWG6l5fyeVktalqHc7m2ZDDjokXtHAvXDBaTUDYCHQurmRW0uFDCb2hkqlPJAJDHhrKWAn2lTLNKR2AsfzRdYjB1+0DhSQrdvOcGp9NV0rti879AQQ6B04885aIgmyJPPto/hYyeAQjAYfjRO4D1mjUxlvaZ1eRIEsMx0orfrMpsyI0MNg4U6FdJRQvLwBGMMXn204HyiXMo2OmDh8m/hx+uyeD+GIdCdwdZTzcQp3AHBDQPmSePjYMH72RQK24TTtAJ04JWKv73TSnQEyNOfl9GQtJs+Zvf/OavIdArM54xq1zAknwoCDBITmFGq+bz3hv0XptCmC8Zu0R/s7KU0OSeqP6kaaabVqAzGpvlkrMp5MFFntq5nnzfa72v1A4hXB6y9kQxFmli/jTWsOuoS94LAd2dqXBlnAfTyci+CeFMqutVpTPJWMjTQcsmYp32sJJZphuJpZgnLAr8RjuawQBaB+vsflhrfXBtBOnbZ9lXbqaQWvyINd1ZzIXEXxiPAObVY/dHMQv3TS3QOVAsjAINvR0EMcch2PdgUbBmYk5K9aJyx42dH03t32OneVkrJbjWey1/3yQIaH5Ccj6P0l8Ik3FVpl3HwmhlcCZTMLPRTDN9XrGeT60PGl096UqzeXepocNSMstFvZD53kvxZGwPTcEUJtQQiw1rRttT4GHTM4u524X2ZbT55uYTmjI3XXSLrHktBT7Gdf748ePnML8V6wvGd+tabtF0cKN/HR8L7luL8/kx0ErL3HVsHqZI2co66dzE8JvR+fh5mm4AFmLBeXM8J5vKbem0L5dzSkGgZ6W9pAMKox1pTgK94TXkXF4g3SEGq2stnve17s0dP0w3YeaSMk2Nu71iHPy1+pHD33WrJpRDm4rqUgp0aiHwT/aRBhKNa8+0gTCz20ivSWGWjWaa6fOK9XwWuaH2R/dDNsGFtKRpC/fEeglTbCTC2NyNQCscWV7LvBhwp3uIQgyCfV7jIF9TKC/TkMsYvMlPOgKd19L9QQ2dYwICr/2sTAgtvSofQn05pths2PFphWugdenfEhlK2Gj1M40QNTjuY+P1SCMpG6VLguPFjSA3ZeutvZeCQCe+ugl13pxBHz/5yU9+j0WhAT6iJgj0jCM5l+22uUBMg0Dma3LAa4QKxfBeFqINGb3oyxqUy7WF6Ften8GFisIcG8uMazSzISzdi3zbXlqYci3ykteOFfhmTKUioxkEel02GxvySmDD7WHK2HoVuoEgUCrnaRzfmTuLdcacgcTEB9/0f2e8HlNDZ+2LTOIctBKvUa7Pf/d3f/ePwMf7b//2b3+Be7iyscRkAxGfgw1zCywL1az+hrX8Oa7n1NgZVIc8/dsIGHygmer7IDvcGvXsuvjdS0WgZzMWaV9DTQmRpTeYyoY0ia2gK9yFRSIrbKidM8+c92LeJVMvMikdmHajk59YLAKxWNqRI5z6XZ4IiuPCAO0nK/Ysmg2RcqmwcG1mgc4YGAa1Ipq6kYIj01HTrCVzHIv1CopjbXuY/Mc0zvZ1T1dbjiEFOk3QFGaahp4RzBwXmMxpOi/PZNNFDRjHHDk8uHFj6hssqscw75Uy2HoLdt4f84sfByy4DAZUGPNYCY/zBSb6XQxkpDuCZW25+aDfnSRisBxNc4NYSK09K6GV0UiWwMmcNBiwafprsDi2UlOH1tOcTdNpvkPwyLV33333N6yjXkBhnk1z5Zp1QiCRtkYzJqKbGdGccZ0DrUxlEwUZzc7r1JV1fyz9stCeevDukrkxY4GeMLlzLNYr95sCnVXCYHIfXXdAkzRAy8iYYiR+Nu2jEKeGzk8mAp3P0ipmjqPq3Of0Y//jP/7jf/jggw/ewppdDhO+RQ8T/Fp95LsHq1A9Pzj3GBU5bMimwB9wl9Te/DA+i1YX1psvlBwQga6NHH0gGIw7YEY6c/bs2acZjYnJklbRlcTgk94VaWozLLyCAT2Fn2fXmhjy982JAHftED5+5sAy4CiRh5wJGlzImIPNwDiWBYYGFF6P+s+ZtDnf57JeNkp0tmATXg/tz0EcMz347mvCdGS9fOjZaL2Z9jOX85lKBitIgBuebDDGs3FZWcam+kSb+Xysx4ol9T/+x//4/6MFlJXcrl69egAU3m0QmsparbfGvhqG8O83gB7cybz706dPPwe/+0Oy7LH+B+bpHZL0oB9ZY5DO+IlA11DiLp2LKycMNPXvmNsL83sva6KnAyTPQQToPHjazzGQQ+hd00Vt857HRQo7fA9zYJl3zKpWmQRkJhYv+o5ZLIhpV0AzKw2qFEeBLgcImUZuZrTKWhkv6NA8WT97nAQjxK8YyFyKdSzojuA6uV7t04hfJli1jT5rugBo6oYQ3Yd0ui6mo8ECQKrXgjeR7yJcAvy40A66bbdis7GfNUNg7e3kBoSpy3jHR2jt0Euwi0D/QaArOydo5mMwl/+OJkxo64ycTSsVhgsBI5Z/8Ytf/G8SyRR8RskDSxIBaoeMs2AOMvNtsZG0ZtoRUmtevHjxOLMpMG8HC2Xey7Sd+T6f7yiLcDBHmQtpNvfHZmoW2ShXKdTXU1ih7bpqbtlgU6zX0ATPXPaf/exnvwdN7ncQ6Hugrb8EApqnWP2SZn2SDfGTKatdPvvMiPxvv/32xcuXLx8Gr/wraO/v3nzzzQ9ZGhdt866Vi59NW0SgL0ONOcFkKMLE2ALygadg5tkFH51lNVMOBmYRvq9x+s5J27gOOeeyGGQz+4vgGgp08BU8AnPVTezkaTZX8mIzOViIAoFCx8FXfUbzTxZdlHQm/Un3XOafMygJm5mTWMQzzuPnc+giA4HJXaat5WISTrfNG+S8dV9vNGHogx99mEQ8TPdjFU2u24xGZ045f4b5u4GBeBDsii9mKcGMnmORMP+zOh3maRU09n0MrCOnPYT6BzTDQ7aM5ZtuVgT6slFl3XT8KgzKwZvwf5wlqQG0gI7EhEg2CbizR0T7FS6oTGVAIMSq1IZ6TiS5d2khQIEOX1sfaSjhC34Orc9YoGMTUAHBtgOm506anqG5zmx0GljGDmADVAm6zp1g/NqNTXdGdKSJWYKYg1lEJ9+l+XadNfSinrjEGwKyHAKKOGcs0JkayPRMpr3lc+ME8zW5RFhsZQxtvAyrahMDJCFAd3OzB1N8N33aJB0ikyDdWkydw8eSKdtdtgNEFwBZ7q5cuULXQA8rwDF4k9YFvKtj+bSoFVKgZx6tki2CebiO6Qdvv/32+yTuwCRpAOmAI5mWjsFY5O6elXxefPHFLzdZznkekN7ct6Bfkiku5JNmLnQ2wXFkvoJrqJoVsWB+3AuSpO+BqmcjI0t2PGpgXLARFFiRaaAWz2fuN0zuE9DQ72kaeuGdryUySNRymRrIQkDpEsMs7RpcklEWdyHOeuX6J4q6MF+eAc604OC9qAG3SCs+bWw/BSo1eChpLIhUQaIbCFcKdzNT66i4UdDr5YdnEOeHH374DrV14kChrm1I8jITCinQ89LgQt2EFH9MOyB1KwZ/CxbL7Rh84/LnQ/APIhDuDM67zHxE7ECljKW6g894F1+osS2m52h5tvMsq8v8VRSQ2E7CmEy0By4+DN6ERrIb5udjSJd8uJEFOiOa8T62Mh8ZEc4dHM9Mo5uh2cXgGhsFMcgdmmtpttUrUKmY5lu2baFwpGbL2gHZCHRaP4C5nwFh+dTQl/ZHy/fm+suPQtaE92gSG+YRuGTu0nrFjSAZQVmlkOyCTFHmN9kW8ft6KnDMcML57Ge2cKW8ju81nlfNTCpGvdMyhPd9Jl8sc8Uu0NdNqyctLIAeg6/jAiMVEY3czIFYPshYEG7++Mc//iOCmu6yalbeZ4DccMMjQH8gfGtTnEPIrNgGLaIzm3xqXnvhwoUTzz///NfQAMZJP7wRwaNWRYa8M2fOPM8FOJs+YjH1Y8N+A66Om0wvxRiIdr4KkBTosFK6KNCzwZvWEOawU4jpJdCTtUvLWqC1ip/hpecwzREbwnZ+SM5EDhJafZg1QdO9VvDHiXfJBXN9Oc302fQ92TWQKc0o5foSC95wM09lEOfl/L4Wu0DPF35Z3YcLLQPkaLaBn+4gBtaOQbVTqGNHZYCJ1E1zHaPaJec8K4jlIg0BBmPSVE5Bxc0jhFbGPmFoFrWsO33t2rX9mI9zuPW9jQYwcLFiwW0htzesEYewyWYt+IwP4O1GAOtVBiTqZQLOuFFFfAELq9AaAi23Vqvsl1FrSZxDZjXOy2KIVSDnPzbNEQpTsvNhLliZNZFgo6MWT0plZlFgvnVzs8w4FUbQ0zyPc2mez9gytBQ0WAvqEJ3/CtIl56AU/gl/m8gI1CQni0BfBUEKdAzcKALerqPIyjcMZoBg304/Cycm/B/fkpKQu6sNoA3l0xqSz3vlOsdL4noKdFIF0weO9JsT8LVlLNChPRnpK0SKzKtaTvqGE+jUEmlqR3XEI9Ci6tnnTAZY850vkhUOG/ELLNGp1fzO5Dab7lyaqxmhTRN1pgKdmJOwB75tD/nYC6mhpxoozTzPWu/8rAhihmBXKhnS/E7zPP3wTI9kzAY1eNKDk5kwl4lACwEsascwF8chX5ihMpkrTawI9DVGhBGIiJIcefXVVz9mNScEVHRysBHNzoIuf6B2vgGEeS7zUq7NAwLkyiZZBvmgmRPNIDcyFWZ6a2gQ1YyWZ1lWaFSnGIS0UeYntXMIlZZvvvnmRUQMH2IwU6b4sHoWKTrp3mDFLPw8mek9Ntv5jFn46KOPmkheBIFODT0jCGBmj9JXTBpUbp5yFVoZPTzLk/E+0vytRM/zFqSY1TY122Ad2of88hdAHHMQ1rQ2kpAxMDXTg/Sx2JTWElea/Fk+F3M6mEssR8YLRqaN3gjnc1dJ9jemyFAzoD8Jvo8bNJEyTa0I+lgsGnGu7cj1+iIYiuyawEUOG0U/X2q6eaAZsJ5AU6Z34yJBbncsNof+9Kc//eS55577Fve4lel9iu18ChUWoqEg5wc+yLbVUklTtZ9pqWSDhHXtlGbFyHdXM5N2+X56nu9H3Kmhsl44NogtsJBkHCwGk/Y4gw9ZBKsYtPNsIOJGhFZZrvvMgGIQNAX7Z5999gYtRthodvO+mW52eA199DTv853nRhy/otUgq0MEehqwMUAOQI+DUerya6+99jHJOxjMQGGO3afknK/EcNMK5jSmU8pTEiQzzJog+1U2Aj0R8X7r1q29v/71r/+aiyg0i2FuSkmAlEv71uta+jtZr5pMYCif+Ussnlux+clKO6fZFxumS6Ropu9yvfpUKs9lACL5DUjUQk6ObOrNs84710tiXyr9Xt7OJSZ6JcAOm0kW0hmh5YHR+8CmAtaxGgjnjFxAfA7mspOuMsZqkYI4F4wKKdBLdpFPmIigFdzDovhvDOpIlBLMBXy59gkEls4P/lySwieXMaX2wtQ1WoNoeodFaBt9xtnkxEJLr8MC8TSjuJnnTv882ubOpX3rdS1TjRjsB23o9Y8//vh1xrJk0xbEKQRgar/HdFQGsyIrJZjNfXS8pujWSJqTQV16BLFDB7LFnWVh6eKgQC9VDX35mDN6HvStY6gA9xkttszPB7PoSVgxlPKqmRy43sHUOc7zTCvRLX9OIQV6Jn0synNJ6apVxlpk1OZG8U3qAHbRLUw69DHvt+TGES90gJG3LOZAKlhWk2JObKYP4yaAfj+kxrzCoCT6L5F6c6sIhdiqXaPJFybNnf/6r//6N0zJY5ZJplgkzsfGZhjkT5+DZvcWYxayvc9muY7YQ5A3IT3wWWQUHGGWTyZ9T5AkMY6DdQayLb2ayTMLea6W6riAVLcL5I2n2TxLgW5ngaVMa8Un62uxC/SiEgwa764Qx6z+1iTGrKjGrpAvei7PolDHiz2H8rvfamVR2yHQW7O9JxabrVxYmZrDlBws0ufySTWZbbvSuY7V1CBQ9jBq/9NPP32DEcbpXJdEm2JN7SisHvcQU/BNMaaqUTMjfS3G3oXNly+bfubzGggoE4tTaRSqO2HxyTg9kJXsoADNwOfcT8sT/h1MJyCOZn3GgbCCGgNFiz1wEab3YcZTwb3lzmYMmC6Hd7yC7HHZkPYsfWaxC/Rs8JFrShOBTWdiTzVMTPFhqiRThGjGo+8SC70zE/a4xL2hpZvgA+2F7/kXEBhOauq476hGwVm0mJOWE2lCnX/+859/ClP7m/DhdmPBy7gSHXGAIImCPe8uSaJocmdcQTqCpZCvETnSGfcAi8w9CLP7DNgje1gh27D0WRQwzPVntTAI9pZs2oEgsmnWwyANK+MV0s33p0BH3veWP/zhD3/B+hiIJD/FMdN427Npiq7XMGCOREW02mb5oEW6IvLhjhCBnuUIyGWrIpCtdl60AqaQ482FjwsEBNpd+Og+IakHzM4HSWiRaTtoeifDFVNjqAVS6/+bv/mb/6lFvxct3tDM9yFV6m183mHOLzDISpgTL2A5/9Zbb/35jTfe+Ih84sUmzNlGbtoowGh6/cu//Mt/1UowT2c63vk4n5YRbKAamf74wQcfvEVNPZv7QojPIpvgNC0imaSrcZ4iXqkDnOdvMLMIZuy2d95553204VE27dD7Gs4npJ1FsiXMYdEaZgJoG82cGAszXiD0BkfunxMC2S7Q2QrgnBorFydHICFwYGqceOmll76AxtaEKNhmRsLCPJfxWFGoQwM0gSd+B3NpWUCI5j34/JRSv9AEs06TyecYsqIXiTwQxb4NKXc/RQDcm9jU7MCGJCthzpxzBK+6WaoSxZO+YsqRVk0xn83Oy73IOYDx6cH4ksffTMEOoXqG5txCauocA3JtcDP15ZdfvgKzd3umHaSLB5tS5vuP0yrCbKBMtU9akyDUScnaQSwYnAfXyxlo+7cZkJzvsqOZ9nHp+Yw1AKNcOU3n2dwHm50gzfWkxc12U5B4biEFerbCJhuMNuM1GS/0RQZSoqBLqfcjb7DSPE4hxDrPrBR1+vRpO9nRsol6Z6NYXAjXN0NY/ox0lu++++5v6PuDdqjUlF4v3zoXRPr3ITwaGFENzexHLDLDKH8G9mUDKIUKo9qZMYCqiX+i2Rd9DGjc3tncMt1rspq/zF9mm7Fpa3nvvfd+AiFWz3KfMDmfxvgMacVjYnpaFxj0hk1eI+bZs0h5/BUDMrOp/od5ZCD7GTMJ6OJgoatMcadg44dUs+D+OExc6JKApeV9pB1eAT5k5wxQ8+dmQU9cVht4ciGgLVUMiOMmOd1JsvQ8muqZVqoFauYkJwsp0LPpq1xTmghktaiVZlf1a7W2CPqwWJzlYkH6SWiwzAXO6r3VIt/LWPyFaTa8HzYL34Bb4RPNxDujX29S35naGLTTbRTkECbPMxCOXNroc1bCnE+CVhtDMFYfCtV8ydQiVtzKVKgUGgsKdZi7y0DkUgnf9XOs/gVrxQ704QtyE0Aw6pY3zyA4RmjTMvL+++//FG6OPdlmFAD7EObT9/R/03dOCu0ssVRKmdLdAg24izzqrHUArf8c7v0duQRI8rKe40pWN8zXZrqI2L5s+glrQ5CppVpcS0mZ3HPafWQDllyTNgLrLYQZFKLsytfzBU0brQKeyAjh48ePn8fi/jG0WSuKr+zLhhY20WQs3gYIjQoI9SNaOcl6FqGAELnBhUVLz9Q10pp+Wgpt+kqhke4mjSZS7F6muR3mVWe2Vgia2bFARllfniRQjGon+14xmWjTmToYH3LWH8QY1cHl0oLAsFaU3LxJymny0OfLDM8iI4yr+O6777aTuAfZBG/huUchnMrTaefyc6BlLrKN3CjC+nMpX+2kYGekPfA4xpxtWpjIXkdOAVhy+hAbMc16CPl6Xjp9p/WIFi9gdpK4oV0ZMTvS+sEPLRhM66MrId3AwVTty2qnn05n83iObALyCGax3ooLOIUVczHJY56rL2kd+pl0Q8RNCqPWmTaV7UaF10HIjf3sZz/7PXHBwkEqznYI5oxZqZbiQnMhq0hRWDCaHvnZN+Gz/wyRyeexyD/A4hjms7nIaJ+MtYcEsxgDnVgSlvm65GSHlaCeWg1T0mBSPYpFeTvHHoLenK0w1zTzOBm8UOzi9E9/+tPfk92RDHzrMB9yfiQsF6z73gOh0UAqX/TpW2xQvoAb4SI2YpPslzavOD5pjw395NTISYgCK00totkP0GeOmIU3uHlg0ZBsMirYYZraaRJn3AIyCx7kG3taMLD57GZcCQsZ8VncPJDOt6enpw/zdpameM5XYpNvUzyx44fYYTPaAtfQUWKHefw83EauTAYd7TPAdz4HYT7AjTRdQrm2txQEeiYYbdZz11u7zhl3piRplcJeZxCMJtDZr+UMcms9azkWhcBm6TMSG1BYUBeZMuWHgPwOi9t9bFg82Vb2og+VfNgvv/xyOU17n3zyyRtYiHfnmrfKohL4uGDW3E4uaVaSYqoSNNwHXJD5YS4wCsawSEXaQiMxSIkFChpnFU381MBZtYrBbgi+6uHiTM0mG/KcZBOBCyQzA1g4iX5zsJMtrDVhivXvnD/Y/FAzLceGbiffCwixfRBcDxBbcQ3a6WWMzSNyDKAPafeTue7M8caGaj+sPQeZngYT+05y5VPQ54IH5/nrr7/+EXL+H6Sbd77K85Iqc6xXgA2NA3O2B7hUsYY5tVtaZWAVuEjfPQPxOG9x77wGfNKyxBx51vSAMD+OjfAJjMluYpopbtx40DWBjRqLKM3mKsz5fBHomY6CnJ8uAhlZVhiFTZMaTH8vYtHfowlyaqCJD5+7nLRm6TNSCf50Bfpa5yXrT6pnUvBFsSDH4EOcglBxk/4yF6YszQ8Zg/C7g/v+IREIxMh1LGxZ+5oTg8lFkrXFoeDUQCvcBU1rgsKcZCxcKBltDbPiLDcWXIi0gKTI8uhlWiSovWCBqyAPuFZfuvJ3v/tdI6wKnWjvdgpzCPJOLMbljAfIRSNPtB9WENLmjsCvepYChWWNsyX6SHeCF+o8CnbgaABmDfBz19PlwgAx4ggf8iNtbMY4NtRKlwRYcbNmZfwFrSMcD0aL//a3v22li4WaOSl1MS5tmEM5kZrg2TFs+obo26Z2zvTATCPbl+C51ruonEorAqu/YbNYi38uoj97Kdy1TSh/eAA3zhSDS2mOJz4MPKOPHxvrMC1QqeobYGNTRrz44VzmhxkiSONrIXYsyMJ6C7Bw9TIGJNO5oJnapxhnQHcaxyzTeyQ7XwR6PlAs3XtkJHT17Cb9ulx0oCXUY4HhC7pcO9fz8brdGwtbPTTfOqa05KpNs5HcyTMViIsRNgrz//RP//TvsQHqIXa5dIJCgx8KV2o/0Jjpo2zDBuspPouLIYhC3NB8RvAZxOI9ykWSC+PS52qRydVYWLch5agVi20N+l9LohJiQA2HQoaR7dlUpkrWR6ZIUTNH8NjXf/d3f/ePrFan+SMztijkgqGe1xIrCjC6SSBkXBDMByBQttOkTYHFccHccHOcSKLD8WF76B/HJqCDGystJbAHgqmKY4Hf2TgWuWrlfA42U0O0ijDAEhaER3nQzteEc+mc5XoBhaABufPPIhbgOAR3gGlgoFEegWXrLjemNG3T0sSqadzs8V0CDoHlGw/iAXwdrDJHHzmtVtw80ZqBed2D96KVREDktmcMwpoNXXYChTkLfjFQky4hUhHnyzUhAj3T0Sju87MR0GnthjPodtb34wtKwY4jJ99wBm3V/VQGr9Hnlg9hzsZqvtIgzK93+W/6pOmHBt/2iVyFegKMhPBglLkWae7CIlSDxa0NZvMtIKmZp0bB6FzNNfJ43nFxxDVOtK+WPnFoL1Z82H9dsMbCGGVAEbVyEMd8CDP0tXxEC+vS2DzdVDPFU7ArmiHdGRDcLawtwc0XBP0BTeOLUzuHcKrGPOE4OHCePVv/eLLmM0WNmwf4sU/96Ec/+hPxz4cvOBuouBlNzFn0mXOWm+kWCOBupkMy4h6b0HkKe2rqdIcRL24Glj6P7xE3PMSOmjlJf+iOwoahmUGK+H02zXviGrhMbmID9EcK83xyIxRaoGf6VmctHHJGXG6QCwIybhp63I1rRyLPPhdcH19LVimSbNDESvM3TYPwSW9hQCEX7HwL0IQ/FwubHQLEjn41LenbE31KaE5Lv/PS6SWYUiuHhcKHPOc7rG0OYfIehQkpU7WiGfl8ZFHfizjDAmJkmhnGxA7LSKU2NozjKEvMhYQFJl+dgVBkAOIQ2eCYUUD8aRnJhy84H21kf0lKhI1MKwLYWjV61Ti+Y3QN8RmJ7+XPS2zA8W3ERsGkfee8MaVrCNYUplN+jViPz+kuyUdfE/cotEDPZ9vlXoJAKSCQV0Ge6DAXTQjuBUb50uTKheFf/uVf/hY+wxfoD9UDmISA1uPemdyT7WDmAEzL92Bi/+/UdKh9kS63WIRJJv3Jx7kpxkbXjTWC8cZQROibX/3qV/9Lqy/vzjP+Obc/YW1K7AXxTRN5xmbyfIwR7wFz/xSzVThnWVKW1ox83Zv3EYGeTzTlXsqmV2B4AoGlAj1TC9WqUCZSlaCdkR40RK2Cfjn4vZ+BRtJFX/hGGwssgGHmHiN163um1yGo6Cz8t6PUSPMsTDYadHnrD8YgCi2zH3S6X4Jj/c/wA1/Jd8EbzuVEymPeGr6ON8IGNL5r166bxIw1BfDzbT02oMUu0EU4rOMklEfnBYG8CvFkLeLCALP7IAOSmIPNYDmk1RxHIM92+rKZz5yXnqzTTSissWGhdjPNiHvSf6Ku+ZcMKKK7YSOY2Mk4BisDq8CR7rQmG85+vYeH48DKdUxpJAMfxuED+s61dudtntM0jjnsQdoZsusGzFqdcCVgs9QOuobgmggzvfDNN9/8gBsg+s0ZmKfHBrSkX/RSG9wibK8eGyZdTMxFiF3RNElbGBYhBGaotTIPl3myLK6BVLPXkeK0o2gam0VDyP6FwKsJCnJqNwwooiVivYKvsujCmpcgWGsBPtVPGRPBojTMDljzogKfwCI+EEbXGYCoBXTd1EPL5KaGQu8f/uEf/hvogN9BwOfTzPOmL7vAXc75cQzAQynkG4jx+CM23J+yNgMj3PUQ5mxsoQV6pgIk0/NzHoASv0Hedsk54iBCPUcAs7lcI61ZwMLnY946zaAUfIjwPYTI5/1MX0KUc1aUntm0J5drqNkgNiBAjRzmyRs0s7OQDBnBoN2QDSyUy/2L7VpGXLOQDFOsyBrGqGzmVIPFrwVR1YVepx/DQ60cG6cI6VxhEbmEnOmzzDNnQKZepD3U0DlvwVr4JbM+aYlBvvdWci4wBxwR7BVaNkyxDaPSHtIP493zoQ/DEOZXEV/wHchjzmCjfR9z2q9nows9UTIVOJmerydWpXDvbPDK5pq1sBCBnhyhgmxQufuHUB9n+VVqBFhMdoAv/WdgtXqKjGBLcmgZwbvWWBbk75oP3IBNSZz1oek2gBAZhmn9c5aQJWEJc5vXs7KWnkAwjYp1w2GW/ZAbl2+++eYFUoqSwARCvZnkJSQ7yXf2Qqo+aW6OReb3M0aBbGYM5qJwZSS7nm4OTXv1Ym7eItsfrDIfA4cjYDB8/uuvv34ZeeHcmNaQahVWqaKZw6RyJS7AbBYBmw9hLTtHixJjDJhKSdO7nnNoPTT0TPvD1UYPgZNpO0rl/FwERr5w5n1k3J6cMfnCNu15mDDDgzhknlotNJ0Z0MZ+TmYwan8gyTgEQppeBNRlzHKVdiMyOJHc21gIvSAl6Yc2fgXR+5dpWmdMAKlNNX7uguOYQRfyciqj91mM59VXX/2U9KkYpwMoyvI0qtA9g3S05lwZ3dJtJHOjoV3eRBT716zExyAu0qlq1dMKsgvU5nAMQtvLQi/kaicucCHtZgEZBn+ScZD59awVkG7f9DiPbgKmTCJy/T749r+GJeMc5y83P9ycZkv5nGlbC6mh82XMVOCQZWTDv8SZDlqK84lTppM60/FIp6lsB8sl6nHvdJ4v5yxBQKs+NY9fzSPYapQmbGqC1Nwp3MnmhsA5ksa0IMe8EQIjr8QjyQaD2h9N6vAb+0kxi0VvkqZV0Jj2U7NhOg+/yexFwZJJ4ZESHnxlnWNwHL5YTGYcpvY5bmZofua44dgCt0kbx4rFSUh7mg8LSyLokGQ0JInhmFArhwvgMmMyWNOcVK5046zHWGjCcBaYzIJvYRDsb8Msm8o5ArdEr4ZFA+IOGlg/HdkdtaTK1duaQbpbFqMhrTM+4+SOpyuCTIXEDGM3Vej5WBCBzkAPskphl+3FhLCuwfGrCAKmLeB8NxakBBtVobEpmecB3wiwWsBnFhpZRYqJvKKACOkG+cm1ZN8SoBZxrwjG2ofJ7kZbKkusatryTUgmm8kVGxhqDZzzGhvVus8naBAeNIKf+1jwPmaRCZDR9JKTmtoONPfDYIJrocZDIo3EPGI/+G9u0tJhGUuYz7UOPy6Lm3jvNTKcILVxmpepkdOKwE0GBAcX7s14rJg/WpzAQ4DxEGPwZwovVF07AGrTkygMcoLlVUnpqpGg0M2SIEBJaZrn2Cz5JMoV0zrioZCkaZ18+BwPUvwyWE+vAK5sBlkrg9uHa/swFz/hZpS4XLly5SCtGaxDAMvTVlYkJIWrNneZAqfMXz5T+92aj186j0lAo+HA7xjXNWx6xhlPwE0P+dhhxbgFAT+z5o11PEF3gc5dH8kv/tN/+k//37//+7//75mYRkiYQb5d1jPWEYOSvjUnFsxi3/Ll4+QmZWGaHVrktQzUICkJN1xpXpfyNJqckMbyLVM0/vqv//p/si1rbN5yfWRRX8+FliZU7trJIV0IH1q6gFDbolZM3y3N2jRpsj45+auxGDaw5jT/TcpL/K6edK7Q3l3ky2ZRlcRimex5DPwht3iibCze4Wlo4dN8HucI/YlY+Kb44fvNFCUG8PF9T7f9m+08ChNEeo8RU76ziDT/GNYV0pp28JtjxLHiuOFTTx8zy9QuyeUuo6ZLwc0Px4FBW9T+MTfHuX7QpJ4YE3Kd081RTMJ8+ZhzbaF8oWuCpm0KVxaf4UaVH66HTAHknIZlo50pnHwnOa/x72bSJiebR1wXaRnCPec4Z4k5n8M69IxL4btMzPg3zl+moHFOs7bBes9L3QW6tohNoKP8yJFnBLQXbgi35WddDwYtae1Y97asKxAl8PBE9TY0lWM2jQ+1wDKN77uWZsyEgOeCSGHOwCz+PlFoJdnmnL/jwkZzOTcLXBy56CUEBRc+ChMuhhstUl3vYdcipBklPQxhZKR2zpK0WhGcOo4TBRmFOn9m4ZWlY0RrHDdO3EDRF85oem7mKJzot4cAKynriLb2MdCMn7kE/pindpjdq1gdjUKcRWm0TU8dz+G/mT1AfJIpHJyztKpxjtLVQIHOOc05TBdIQqDrHbGezXzSXaBn0yi5RhAQBAqPgBYdz8IVY1zgE6ZJjQ9cMVsmfl6tdVokeoIrmyZ3WoMS3+TSptk3E3dG4cEo8icymhom5wADxei7TTCrJdwjScZJwZ/dSrjB6GrT4hloQt4w48E8bwjhKQpk9pcbVeKSsFYkeNnXmsMa9/vSecufFfz4XYyHCPRiHBVpkyCwTggkIou1xzO4UY4iRUALoJMxWjY+iQyPIh02XZuVaVS0ro2RmwsCgoAgIAgIAoJAdgiIQM8ON7lKEBAEBAFBQBAoKgREoBfVcEhjBAFBQBAQBASB7BAQgZ4dbnKVICAICAKCgCBQVAiIQC+q4ZDGCAKCgCAgCAgC2SEgAj073OQqQUAQEAQEAUGgqBAQgV5UwyGNEQQEAUFAEBAEskNABHp2uMlVgoAgIAgIAoJAUSEgAr2ohkMaIwgIAiWOwIZhXCvxcdiUzReBvimHXTotCAgCgoAgsNEQEIG+0UZU+iMICAKCgCCwKREQgb4ph106LQgIAoKAILDREBCBvtFGVPojCAgCgoAgsCkREIG+KYddOi0ICAKCgCCw0RAQgb7RRlT6IwgIAoKAILApERCBvimHXTotCAgCgoAgsNEQEIG+0UZU+iMICAKCgCCwKREQgb4ph106LQgIAoKAILDREBCBvtFGVPojCAgCgoAgsCkREIG+KYddOi0ICAKCgCCw0RAQgb7RRlT6IwgIAoKAILApERCBvimHXTotCAgCgoAgsNEQEIG+0UZU+iMICAKCgCCwKREQgb4ph106LQgIAkWGQFmRtUeaU4IIiEAvwUGTJgsCgoAgIAgIAssREIEuc0IQEAQEgfVHYHH9myAtKHUERKCX+ghK+wUBQWAjICAm940wiuvcBxHo6zwA8nhBQBDYOAhEo1FzNr0JhULmWCxmyuZauUYQSCCQ1eQT+AQBQUAQEASeRMBsNkdeeOGFr/x+vxM/R9fAhxq5YmaPx+Om+vr6qV27dt0WTAWBXBAQM08u6Mm1goAgIAgsQSAYDJrD4bBV+1Wq9XXp7xWhbjQaF202W8hiscQEUEFAEBAEBAFBQBAQBAQBQUAQEAQEAUFAEBAEBAFBQBAQBAQBQUAQEAQEAUFAEBAEBAFBQBAQBASB3BCQoLjc8JOrBQFBQBDYMAiEI1HrvDdUMznrbbPZzMG6KueEy2HzWC2myIbp5AbuiKStbeDBla4JAoKAIJAuArF43LjgC7vu9k8e+ur8o1/W1bjGTu5v/6C3o+4m7uFO9z5y3vohIAI9DeyHxt3d7399+28nZhZacHocnwRNY7p0jcnOS/fapS1MWFSSWVb4O36MZfjva09t/93Rve3fWMwmSYNJY4zlFEFgsyKAPPiyYCjqHBh1t164PvTK+RtDr/UNzx62Wk2RuXlfw6tPbf/nBX/ogt1mDplNsp4U8zwRgZ7G6My4/S2fnX3wi/sD01s0gZ4QnmlcrZySSnin+n06+atLn/34PvzBBIne1VZ79/DutlP4pwj0dEdJzhMENhkC0Wjc5FkIVw5PuHuu3xs/+fXFhz+98XDieCAQraCg9/kijupK54Tdbl7oaa25B3i8mwyikuquCPT0hosC1o6Pg/IyvUsKehatBgka3zB+XtCeno0VoKANl4cJAoLA+iBAE7vPF654NDy9++sLj37y9cW+d6fnFpp8gUjF4qKhbBH/mZpbaPzi7IO/ikRjVtcLu/6fSCT6yGIxiz99fYZszaeKQF8ToscaNoV6MQpzNnApJz9ZqtBOkeXpDa2cJQhsPgSomY9Nejru9k0fOnWl7y1o50+PTs13RqJxWxyCXDmw4oUQJDc6Pd9++dbwy5Uum/vZw91/jMZid8X0XpxzRgR6OuNSZojDMR2GJTuGuV6sQv3JnsQNZfH4Itu6Fqd0OgjIOYKAILBBEAiFoza4Eeuv3R9/+syVgTdPfd/31vScr95kWlmrC2uIweePOO4PzOwpKzMaKpy2+QqXzQONfRzxObK2FNmcEIGexoBAmMcRIBK2mEyL4Wjxu6QXsbOOxOJWtNUGs1rEZDTSJC+HICAIbGIEIJzLoF1bBkfdWy/fHX3+6/MPfwahftwXCFUZkwjzpVD5gxFH38jsjs/PPfgVNgSOl05s/U0sFh/GJkDWliKaUyLQ0xgMCPRF5mGazEYD3oiiN2aXwWIWjcUtkUjMBouCL40uyimCgCCwwREIBMPlD4dm9ly6NfrSmasDbz4YnN436w5Um0xlSnrMakcMmrpnIVhxp2/yAArJxFxOm+fQztYvkbc+aLWYGbcjRxEgIAI9jUGAqX3RinKIZlNZDDPfnFSiM1cMx9qvRhoPXPOURYPq5krtJ4ePzBKORq3wh9GOVvxmhTX7LCcIAoJAtggg0M01ND635dSlgZ+cvtz/o2v3RveVYc2iMH98JAq6cllZJuG5vFGoT876KmOxsaOwvsP9uFj2jL37z9DUx0VTz3Zk8nudCPQ08KSGboGGDpM7zEuPyxgvuRIvhtmCEohmA18S3Y/FuCEaiaKOMl1YTwp1tXWqaQ0aumUxrgh0OQQBQWATIgBha4S/23b26uCrZ68NvnXp9sgrI5Pz7XDDrVQHEksJ17DHy9yT64vJWGbwBSPlCKI7YTYao9DWo0d2t32OZ4yIT339J5gI9DTGoMwIH7rZFDabjbFk4pyTnwEjRqNJ+db7WIwj4s0IYwGc5UwtSXJAoENDj8RhcqdHXQ5BQBDYjAiMzyx03APz27ff9/304s2R18emva3BYARrVXJuqjKT2WA0WRTFZDEWNcSioSdg4++jcDvOun3lN+5PHMeaGII7MlRmbPkGa86o2YSFSY51Q0AEehrQYxLDh24OmcwmZGeuUIqVX9FvXbBjDVobmv1j0UULXryEyb1gTZMHCQKCwPojgMA1q9cXrj57feB5sFz+A33nk9PeOi5gyYQ5BXVZmclgtjkNZqsT51gMkdCCIR6LaErDkwscNHPD5MxCzbmrgy/CHRmE6T7itLd/BouAW8zv6zf+ItDTwB7Ma3GrxRiCiSllRKfq0sZ/Fcm+vkoxWmCCyV2JcheTexoDLKcIAhsEAbK7LfjDlRDgvQx8u3Jr5MU7fVMHff5QpaqNJDlgVaTL0GwrN1id1YpA51pWBhci7fKqYKemvtyxvmjwB6OVoIp9OQIXH6hhfTu7Gy/B/D4l5vf1mVAi0NPAHfMdAt0UspiRi57kfHXvWkgVXX21kpr/1fbR5G6FD92OyJXSyJtPYxzkFEFAEEiNACulQZg7bvdNHb58e+SFU5f6ftI/Mrfd4w26oH7z/0kOCnObwWKHMHdUGcz4NppsWM5gOcfCp1wCF18EcTtqzM4Ph2J+j8UMIxPz9bDgP1NVbp/hMrh/e8t3oqmvz0wVgZ4G7qrJ3RQyIQ9dfSuWCW/+U/ngPwVR0DVxzrYk30coAh0aul009DQGWE4RBEoYAeaXQ4Cap+Z8zYNjc9s/PfvglxduDL0+NbvQHAzFbIgBSto7xvuYLBDmEOQ2CnNo6Mr6BuFNdYGCvswOXzoEOiNxomFq6nSRP7noWJDO6/YGG788/+CndPeVI6VtS0ftDbRpXszvhZ1YItDTwJvEMuAvDplRuSzpq6H9UpHlBbG2a7uGVBY0vHB4mayMbkWmif5RemlgKKcIAoKAPgiEYImbmvG2Xbo9+sJXFx7+9OHwzIHx6YU2WOhMKYJmlYXKAgFudlQYrPZKCHZ70oBeBslZHJWKgFfv5YNQX6mpg+PdMDsfa7hyZ/Qlm9UcRIpveFtXwzVcENCn13LXZAiIQE9jXiCIJGazmAIWkzEl1aESS14QYa6Z25XMkuSGd7x2ZmjodkS5O/ASikBPY4zlFEGgFBFAWdNKlHfuvHRr5OXvrgy8AV72V6JqdkvKFFoKabPZDn95lSKsTWaHJsxXmvsULd6KulSKMTBmCPsXDZG4H8L9yaUQioOiycNC0INnv1Vb6ZiwmM0hrEPXJfK9cDNLBHoaWMPkTupXP1I0ourEXia7NXO7YnFnXFxBBPuqDzEhSMURxs4d5jgR6GmMsZwiCJQSAshgMVMzv98/ve97CPPPzt7/JYRpdzy2CAd4cn85FYAykwn+8gqDzVmL4DeHwQiz+qrROASFBSzMVmUDsAhz/KIhboiFg0l96miTcXza2/7FhQd/icIu9soKmzsYjowjEj4ExaiwgUalNKB5aqsI9DSAhMk9hjx0pGYYkwbF/XCLYpmvZWWRSNyJ1BUnC7TQxyYvUxoDLacIAiWCgMcXqrk/OL3/24v9P4W//NX+kdmtgWDEkspfTi3DaIJQhq/cCjO72Vah8GYw8C29g6xy6vUMhgvGZwzxCPzpy3gwWKnNFwjbHgzM7IZFM+RyWueP7+v4eGdPI83vcuiMgAj0NAAGO1LMbrd6bBYz6ownU9HVXezyyZ3GrbM7RWFySnz47JW3CQajFUhVqYrG4xLlnh3KcpUgUHQIwIRtmvcG6m8+mDj27aW+H5+7NvQWUtQ6GPe2evCbXYlgt7mgmVtgYkeeecaZORD+1Op5xLT89DiIZ6i1Jw7aDSnUEW1veTA0szcSXbSRo2Z4Yt7TUOMcs1ktTzLVFB3Cpd0gEehpjB/ZkKorbJMuh2WKJVRxyTIhCbJVRaoWsvDQKk57vlCooDSHF5+c7ml0UU4RBASBIkcALjQryFxavr85/NLZa0NvXrw59NKcJ9BAOtakB7Vy5JLTrG5z1SimdiVyHQQyGQvzJSLbCPO7zVmj/Cbsc0O4Q0Yv09TJEe8PRJywIuypvGx9B8b+xacOdr0Pq2EfguZEqOs010SgpwEsgjoi1ZXOiXKndRrmpiQCXdmWomi6oSAh5WRzVf30yc1li/gjdshOvOwQ6FFr9i9vGuDIKYKAIFAQBIbH53sv3Bx69fSl/h/fHZg+DF91PbVhuARXPl8T5mp+OchibC5NmKdrYk/dJYXiGpq64k+ndu6fX0ERy6tRwtkAn7r51qPJw+Fo3AbiGb/CKBuP35eSzvpMGRHoaeAK1qNwrSLQ7bPkUoCAhJB88iVioEgZojwLkYiuPhmkD0rxtyTiWjV52d2eYF1ENPQ0RlhOEQSKFwFGsk/N+lpOXep/h2QxII45glKmLmUVSCLMETCj+MspxFWfOf3eXC9yF+YqShpNrMYop+StIzktFmUV1R/8f1ybaD2Y9QQqb/dNHqQ/nbUlnHbrAgLlZuxWS7B4US/NlolAT2PckH8Oge6YhIbuZi3gpJcoJqcCEcsgWFRxoSfPilea5wuEbG5voAZmOtZETyr30+i6nCIICALrhAAj2aHlWu4+mtz/1YVHP/v+9siLAyNzO7z+sCt5frmayGqCj5w55jSLM79cCX7TIaeW9yVNLN2NfHLI71a435Md/kDYAVfBc/Fo3ATimfndWxrPgSvjEUm7JGA3fxNMBHoaWMLnE8HLNU+Bjmj3aIClB5f5jApKFJfIP0c7lChV0jQuOyjI8RKVI+K0kr43/Fl2w2mMtZwiCBQDArFYzDTj9jfBXH3s/PWhV1H+9I3RKU9nIBC2Js+LheldqZRm07TySgS/gfFVEeZ6Zd/QR28xWGEJgCUdaWwxlfdd0dR/OJRAObgkoWC4bj2aOErODpBeWckoV+Gyu/HnJy8ohgEo0TaIQE9z4KClR//wxc2Fcpc14A+FayLhWJLXRGFX0HLR82XeStVA1Y/OnXEyBZzpauFw3Dm/EKxbCIQr8G/JA01zrOU0QWC9EIB/2YjAMcfQ+Hw7hPmJry8+evfWg8njEzOeBmzMWdd0RdPUSmkgi4G2bAHrG5nflAIryWiq890xJdnGAvIZFywCNASUGSIBj8Ym9+RGgjXYEahbc+H60HOVLtucy2Hz7tnadBbK0jjX13w3bTPeTwR6BqPuRDWh2gqH2+MNNIBW0ZJs48sgERiR9LBwLWupat5XX+YkGXP4HQon0I/esOALVdZVOaYz6KqcKggIAuuAAC1rE9MLnaev9P/424t9P2WU+PwC0k9Rgzzlgah1RrAr/nJnpZqSVhh2q8dNoqZuwbNV5x6KuQRJEUvz+5NCPRZbRD31iB00tS+HwrEKh83ic9otPpjfPeD5kFrqOc45EegZAGi3WRZqq52TY9PeLq8/grfmycmqpK4lfOkZ3DfrUxO56Elc5Hyv4H+zuZHWgqCaavGjZ42yXCgI6I4ABJoR7rGq248m9p+/OvQmSpK+fm9geveCL2xnJHtS+UwGN0SbUxu3aZHsSqW0dTgSVgILNHVWZ1PLrlKor7Sm89zpuYX6Gw8WTzTVlQ9y3Ty6u+1LNFsEeo5jJwI9AwAddgp014TdbgliTiIwJZnSjOmpSc8Mbp3VqQqVY0KoJ3GTYZGwuL3+Rq8/WJvVA+QiQUAQ0B0Blj2ddvsbHg5OHzh3feiNby4++tnIpKcdfmYGyCQX5vCNMyiN5nVWS7PA3q2SxazjwRQ6EzR1WAtUilgI9SCFO9yTyxZLEOTQp1579trA21zG6qqdE3AP9qEE69w69qDkHy0CPYMhRB7lQk2VY8yOymupLlMnsl5BKMueqvivVKGezI8OUhn7nDfY5PGFa9GmgjDMZwCnnCoICAJAACb1umv3Rp/79Mz9v7lyZ+ypmXlfPVx6KYurUDiaSRbjrFZ85hZo6WUgkCmKg/nvZgTKoW1Mk4tHI0hnQzzusmIulO+IFTAMjs93mE1DbyL9bvG1p7b9E/pwqij6UaKNKJJZUBroOWxWb10lBDoJEpI2WdXOC0YByzYwvzRpVhoS5uNx25wn2AyzXbUm8UsDaGmlILAJEIBAs0IT7zlzuf+5764OvHP59uizEzPeGqrkiuVtxf4dv2M5U1RKs7DsKczsStlTJZK9mA6VN5558LbyWkM4MG+Ihrwr1kYulYgZMACDjrNXB95m1PudRxP+9ubqB/y5mHpUKm0RgZ7BSDkgyGurnGMgRPAmq1CkVGErpA89YXJPVkaVQXEglZn1+Os9vmBVgWwGGaAppwoCmxeBYChiG5mc70E62ttnrgz86MaD8SPznmBlMkGuCHgGwLLsqUIWA80ceeYmC2lc9c6myXaMaH7XKGJJPIMAuUiEhs0n3eTctoAitmxgzE2h/qM4ovxfOrHlf4F45pYQz2SOvQj0DDBDUJyPAh156RDoCnH7k28ThLlKh1g48Ym9sFYgHa1Z8li+KNz9Tkx56+fm/fWKVV4OQUAQWHcE8F6a7zyaPHgGAoya6YPBmV1gdnRAmKUws7PsqfmH/HIKc/w7/Upp69NlMtaZylChDW4BWi0XfbOGaASUcssOBv2BItaAiP5tEOTvwgLqY9ot/OyXpJZ6ZmMnAj0DvBAU52uoLh+pcFnnLGZjOB6J25fLbqVMiyLYVa+2nukjqlVOCY1TdvDLJTZyWg1klQL1YsP0nK8ZWsEMNiVCMJPBmMupgkA+EUB9hbord0YOQDN/B2VPX+kbmdsOGldHIhZm6bMUVxrZ2GBWN5H5DcFmZkSRG81ctkskJIZeAqvdQGarRRDPcD2MRuhTf7KQFXuDKH/z4Nh853dXBn9MgwQUpwA2OoMg9BLze5qTUAR6mkDxNORLBhCZOVFV6ZhxOqwITo3ZY8m0cQp0Tl7sUFX/tl6HwiyjbhpYcQlsTEsPbioQ6W6GKa9hcNS9zdRuYmKoCHS9hkPuKwikQACb67JAMOpC2dPDn5y5/7cXbw6/ipKibXg/Uwa/8b2mJq74olEtzYQqZzQKUpNPdjzmkdF93VGfrloi1Zihtcx/ZUr0e7liwWSQXIpl0+APhs3X7o/tJ1Oey2bxHtnT/jH6ex2U22s9QuYeEBCBnuE0sJhMoYZa1yjyJ2fAl14RC68kVFc19EIRzFCeq4UX1Ndq2bwvM5g9/mBj3+jcnlrUI8YJkxl2WU4XBASBHBBgjvnsvL8JwW9vIy3tzRv3Jp5B8FuTGsme+sZ8n+PxiCEcBPMa6VSf8JevlG9KqVSa5hFhTk1e72MxHjXEwgHkm3uhddM/nkrmkvmKrsgYhHkEP6YuM01BHwxHTQ+GZrdFT937P6jTK8VcgpFxpAv79e5Tqd9fBHqGI4hCArGmGld/S2NlH8oZtoLtaAWTg/oi4mVlmcEM75/V6XwIed1pxlqmpfNPXl+oqW94du/2rvrL8E3BtUUDvRyCgCCgJwLwAZv8wUg5fMNdIIw5+fXFvp+RxnXO469jfMuaZG6QbvEYRFosgJiytQ1rrHVuYbEUCFr9jzKF3jUSXlCi2CP0ja8VO6SsOmksPThl3hdy3O2b2lFdYXvLZjEHDu9u+zSMWuoslCXrV+rRFYGe4cxHOcBIQ315f2tdxX1MrqO4fCU1E3ejce5KM7x5lqcrGjrLqSZ9XVAbfSFc82hkZhd8dXUFa1SWfZHLBIGNgAA3ziEQxkxMezu/PPfol5+dvfdXE7MLLd6FUHaq81rCknt6rAAmIyPfC5HGRrdiBJp5GG49ePJW0bqzGk/0FwFy5os3h04gU6cOpVfd4H9311Q6aWEs0MqaVcvX9SIR6BnCb7WaY9B2B1saqx6g8lrSKkHqu6dGuydKC2b4mIxOp0CHjwmETCtD2akFePyhiv6hua3ISa+DL88En1RMfFIZQSwnCwJpIxCDMJ+aXWgFdevBM5cH3rkK0hhWSguHlaqHqxzJt+TpPRiLDvzUal56ARjjsLDQCknLgZ4WgUAw5hie8PZ8ee7hr2JIw336UNd78K/Pmkym1Hb79ADbkGeJQM9iWGurHBONda4hl8O8YDYb65Hvvewu9KHTAkXaQ6aV6Wx4TxBRpHgOotthEotVMycdGkI1ShbOo8HJCxdngYdcIggIAkqJ0DKQxdihlddfuzv27PmbQ6+Bl/2VybmFZviFrfquAixlakI0vEOrf67niGB9QzAfi68sgqt9NZ94rq1gSpt3Iei6enf0mNVq8pGpc0d3w/e4r8QCJQFXBHoWM66qwuG5dGtktKbaOT05F2hfiAaT4ggPmBocpwha/V7nRHrcYxrYJOa52GLchNS1FmgKHd1WMx1yItCzGHu5RBBIhQCtcRDeLTfujT/1xy9u/ofrD8YPQisvh8aepjDP1pKslVJGQJzJQhpYfclmlEj1WAiBeiEl0E21gOu3viEWoWzG7au6dHPk6UUsZEhnY3CcCHQR6PlbjFwO63xbY9XDyVlfhy8QbFopQxP56GqsiN5KupKPzihYfpSX7MmD6aDTbl87aBa3tDRUDuOvC/lDQ+4kCGxuBFBYpPrmg8lt8Pm+DBrX1x8OTe/0gSwGm2xKuoQJj99LU1FWk4JL/6aEvaaSmmVIWTWhypoRaW1JmebyOjRw68FfHkNUewyR92uQaGVjFk/sapbubspYzAVCveLmw4ljNdWOqXPXBs07uxsuIYV4Lq/dK/GbiYae5QA67OaFzpbqO0Pj8ztGxuebkmZiKqkaCUI5/XawahdUga6mryXWjR86t7hYZpme9fcOT3q27dseO59lt+UyQUAQSIIATe3Ts97m0cn5rlm3v7GuunwMn1FNCCec40nySh/fbLkAVxkmysqiSI8tn3H7m/AMF8z6K4JwGRBrBA0shbqOinJimVFzyeE7V1LpFE3mybXNZDTGKly2ORDCzHOdXEJPu7T/y80RyQS5urBpD8CjTFaLKUYsBkZnd3W31tzB30SgL5mPItCzXJ7IYtTeVH23rmpyGFNuH6ToitBS1YdO4aq3MNc6oQj0FM9Cphp2uM1jk55epH84suy2XCYICAJJEKiucMwc3tN+ant3w/W/fC38XxgztuS0dGzpy19c5d8WBN6yaMtvP7v+H/qH53YFwAG/QivGe89gOBOqnOl9KDsTRUNHKh1N7ssCzunzLndYPCcPdHxydG/HF9Cir9kspiCNlFrb0sEiWTc0z2KZAWtv0IVnVJbbZ/Xub6ndXwR6liPmsFkWOlur76CO7yhmGv3RK3NFlnC7J/zcWT4urctUDR1PShYsi9doZj5QPzLh2To7H2gKBMNDDrtViBrSQlZOEgRWRwCaI9cAaot51RihlRvvDc7siUTi5dFYDOv1SnmocKZDoNPkrrfyQJY6kt0o5nbmu6/kvjbYzKbI1o76Gwd3tn7T3VLzyAKtWuZPYRDQN3qiMH1Yl6fYUECgFeQytVWuCbPZvJhMM1bS1kj0UoAa6YmAOOU7BSJeX9A+jrzYsSlPN2ow164LcPJQQUAQSAsBZKdYEMjaOj7t6SLTHLRzV7J0dG7kTahsxupmuh7KehZRguGUCPckuecgfYlDUQi0Nlb1t9SVj4ow13VEVtxcBHqWeIO9KF7psHrqq53jzfXlM/AVJd2FUqjHEaRWiApsqlBX/eipduoqc9XUfvBI92bZdblMEBAECoAAakU4h8bcO0fGPdui0ZhZjWV/8jBquef81jsgjuZ1auYKa92y4ipsFdc4EL94e9pq7tZWOyYtFrNk0hRgnix9hAj0HAA3mU3x+lrXyJbOujuVThtLqiY5mK8JWZ/kBcjh0akvVUzuoJxN4UuHqd15f2DmAAT6VubN6tIGuakgIAjkjABKijoGUINhaNy9LxyNla94pfH2UitXyGRW2cTn3JDEDaicUKCHoaFzPVu2etAYWVtpn+tqq7lfXW6fMZnKxNSeN/DTu5EI9PRwSnlWU61rcN/WplOp0idUs3vhaqSr5jcK9ORDGwhFyx8OzuxGZH6vxhonQj3HOSCXCwL5RgC+6jK8q67+8bldw5PuHmjrsKcve1VJDqdo6KB7BamMvoeafcd0tSiqpalUr0+2R9HQq5wT0NBvMGBNLeosRyEREIGeI9r1Na7RXVsaz8LUNJ5KK05UX1P96frPcXI5Mzc12YHAGoPbG6wemfL0QrDv9SyEanKEQC4XBASBPCJAYY4c9qqRsfntqA++Y9YdqI7FFpNyWRgtmoauO5kMaV7DKpkM2eGSWhwXF2urnOPQ0G9XuKweWBT0X+zyiPtGuJUI9BxHETvRmc7mmrvNdeUDleW2BZiZktxRzUdfXIzqPsMVPzrrISum95VtgZndgOAaJ+gpe+/0Tx2Z9wVFoOc4B+RyQSDfCMzM+1v6Rmd3T057QVwVdjIdbOmhvOdghmNkOwPimIuu64GI9qiWqqaY25cdZpPR4HLawiwt3VJfMeCw2xakXoSuI5L05jrPgsJ3qNBPtFkt0coK+3R3e83NrtbqQas5eSagYnZHMQP9CwVpNJCKH51muJVCnb8BOUP79btjT4MEo7nQmMnzBAFBIDUCsOgZkY3Sdbd/6hCyUWqSZq6UmQ1m0LyaIdBZB11vKspYFAI97Ec8EMlknmw7LZB2mzna0Vw11tpQ0Udzu8VsLEQNV5lGyxAQgZ6HKWE1l4W6Wmpv9bbXXUE1Nl+yW1JDL1xwHKNlWIGNQn1la/g+zsz7am/cHz8+7fa3SHBcHiaB3EIQyBMCKPZkGZ309t7vnz7g8QYrV2bILCIYzmyw2MoNZaiBrrcwpwRnmhoFeiy6MnCdnsRyp82zd0vTWVgr74AMR6Lb8zQXMr2NCPRMEUtyvsloina3Vd/a0lF/zY7CAaly0mmqKkT6GpsIcY6Xnhp68iFe8IUdA2PuDuS4doCHujYSiepPM5UHrOUWgsBGRgCR7bYZd6BlBGmlI5Pzbf5QeKXJDwLUCEugGQLdaNSZTAbaN4V4DIFwajEWKt4rVHQDtfJ921tOdbXW3Ib5PWlZ6Y08bsXSNxHoeRgJs9m02NZQ9agXZneUVp2Flp60KAHzOFlDWDG96xwcx6A4tVhL8uA4tgUBctaBEfeuu31ThwLBaHkeoJBbCAKCQA4IoFRo7a1HEycGxt07w5GYM9mtFGY4CHKLFaVSdaZ7ZTU10rz+/9v77u82riRdEjmDSCTAHESREiVKsmRZktN4bE/amZ0Nb8+Z/QPeX/b2nP3h7e5smHkeh7Fly7ayrEhJzBkMyDnjfXUboCiyKYEkmknVPjBICui+/fXtrltVX31VyKdkiXDEvUVb0yL0OBZO9Dbf8jZbZ+Ghc7naLubAbr7KBn036K37LpTjcijZ8Pd2uEY8DnNAlt4pROOkXDo4q3U68la7of1LPZLlSlpoPYG2jsbZpcjQ2GzgLEpkZB8eCg+Sd88IMALrEEiksk3PplbPzy+FB1GqtrkRC/U8R+6cas9hzaklk4L4gaaOBwWF2gu5zKboIj1D4Mw0oOvkSk+785kLJWsQ3GLvXMEr8rpds0F/HULb+HfqMIRV6k2wPOflQ+vUUpW0kMmB30lnwW0Mhsy5EJ7YuiadbkiE9nqQqzsbiac9pEa1vSPwpxkBRqAeCBCPhe4/kFW9ozOBc/7VhI9K1TaSWoXOBDxzDV5KK8NRaJ302kVnNdSfb240VSaDnuvtcD453u2+azRqtxDXqgdCvI9aEGCDXgtKNX7GatKFj3d57ng91nHSNJbPpZMMLHnpe5FPXy8Fu/kkaNGxGk66J+aDpybnQ0Pol86M9xqvNX+MEagnAnmkv1YjqdaphdAQvPM+8FpMRdyfL2fM8DvC7cRuV4EMp6x3XlWFg3dO2u3QcJdLExr1mlRPqxP8Idd96kBZT0x4X9tHgA369jHb8htmgy5OefS2ZtuE1WRIoXRjU+SdvGLJoFOnImW99DVtdxKd2EI5LpsTDSB8IxPLFyEH21dHOHhXjAAjUCMCeZDhJueCpyncHo5lXPDWNxlQKkNVqbTCO1dTZzUlo+2VUHs2HYV3TtrtGxulNlCpWsnjsKx2tzlG2jy2Ga1aDTeet/1EgA16HdEHGa7gbDItox5ztKe1adpk1KbkuG9S2J3IccoadDq1ahc2iDzIGnVa5SdSOZSw+S9DOe50JpM3Foslnhd1nBe8K0bgVQiUcL9BsdGJRfU7eF3BPWiWi+6RMVeRd05CMlR7rqBFp+cTEeFymThK1uB8bCDX0pPLbjVGJQfGPk4sd7V6swPDV35vEeAHd53xVqtU5fZm+9jF051fupvMATk5Y6kDG4y66MJGt4ayComUdyPxCdkUAI6ODmyayYVQP8hxw3PLkWNQprLVGRbeHSPACGyBAHVARInasedTK29NL4S7M+iBvvlebRSa7Vq9qWLMlYNT0swgmVdIvJIxl9ka8QyDd748CGa722Gax3iV906UO+Ujs2c26ApcynZv0+g7wx2fed22aZ1WU8Tdueko5J2LunTy1JW15zDm1LAFBn0LvWc0aWmAh2CbXgyffDS2dAla79wrXYF5wbtkBDYigHtPBe6KbxSqcHNL0cF4KqtD9ckGh5iqVYgMZ0CpmqmiL6EclpQOLOTSqD2nCDo9nDbIzuIvcFxKPo91bKjPex39LJbgnbNBV+6S1LxnNug1Q1X7BzHBV/u73Pd6252PWlyWFUx2eaMNY06hLaVz6RSao9I1lWjasvmSi+UGxKf8q/G+24/nPllajfUQ45aaRNR+1vxJRoAR2A4CxGzP5QsGtEc9/nDU/y4Y7m5a/G9c/9O9q1Yb4KGbRMmaJOmszEbRQxKSKWQTCLnDQ99wGHI+tFp1udllXu1udTzvbG16bjUbosqMhve6XQTYoG8XsRo/bzToYgM97juDPZ6foB4nKwdL5WuUn5Jy6cSWq3HnO/wYGXNJDlamaQuOvRJMtDx4vnQZnvpgDAIXkKAkGSreGAFGQAEEqH1xJJbxTMyFTo1MrpwPxdL2TYeBBVUjXaYxWKQ2qVuQW+s1vFKlTC2fTQpluI2eCDWJsZr00eHjrTePd3vumAzaRL2OzfvZPQJs0HePoewe0HWtcKKn+dYZyCFaLYaERrYLG6rR1xPkFG4fTMZcNHKQlYMtN2SyhUYw3l1js8Hh8bngqSy8B4Xg4d0yAm88Apls3kzlohO414LhlAve+suYCG0oeOxQg9MarShXw+24hfJjPcAUuXMw2gs5GHNot8tFDukx5mwyLr99quMLUoaDt85CMvUAv077YCGROgG5cTeQPyzjhh3v7/Lc6/I1TaTRAjEUTVs3LbAFQa7YgKp1Ieeo5CaR48ioqxHql0Ru1m+onae/G8ZmAuebnZaFVo9tGlGEGLdBVPKq8L7fRAQonYWcOSJi/veweH6rUCwZVRseDlSB0ghhKFKFIzEZYrcruRGfJ0+hdhh08WzYsHhA3hxNWLTxTl/T2Mk+zy08H2Y1GhXLvCp5Uba5b/bQtwnYdj5u0GvzyKFPnT7uveZrti0Ut6g7pxuJwu970riFjDoeEqKMTWbDg0U1MRs4/uDZ4vuroWR7LldkL307F50/ywi8BgEqC0U0zLSwHOv76eniz8Zng8dQh75JRIa0IzTIm2uICCciawpuFWZ7AaH2fBa67RtKaskBgPEudbW5ZoaOeW+DJ+RnY67g9djhrtmg7xC4Wr/mhL7xhaH2L3raHQ+oiYss451EG9baqyqbSKf8eVXfXba1KsYSS2atEJnph8jFW0vBeEet58qfYwQYgdcjAMKpDuVpJx6MLr4LQlxfIpnVUG5640ZkOOqoptGZQWhV9lFdRIlaHp45MduF6NUGQg9F78wmfeJkX8utc4NtVymP/voz5U/sNQLKzpK9PpsDeLwmmzE60OO5C2nER81o2qLXqckV3zRSUcZWZb0rfB5EjqPwO0y7bEqODH0smbHfh5cOXemzqUzOzGIzCl8U3v0bgYAQkUlmnY/G/O/efbLwaTKdtaPd6OZzB5NdjRA7eeeiEYuCBp0ihAV0VMulSUQmL0uahSpc0euyLILke/NYl/uBwaCVJfq+ERfxAJ8kG/Q9uDhmoy6GbkSPhwe9N0GQi4meCxs2CreXoZe8N2IzVMYGY45OSXKsWVpvRBPZpodQj0M5zRXk+vrSEL/YA6j4EIzAkUWA8ubJdN6KKhJ450vvPZtcOZVK5/Xk/b604dcXxlwvImpKbRQZLKLxCoXaC1kYdOGdvzweeh4g0hgaOtZ8o8tnHyFmO9WhKzUm3u/OEWCDvnPsav4mEeRQszly5UzXn5ud5nk13cCb4t1EjqN+6QWplE1htRmJIKfdsgyGcnpgvLeMTKxcuvNk4eehWMpT8wnzBxkBRkBm0d7QuBxOtFPkC8z2c4iCmcBZ2fA5qkOnULuxQWuwge+iVRTJcpGIcJQ3pzI16i+x0dtobNBp1aX2FvvEWyfavm5tsU/h0cXGXNGrsvOds0HfOXbb+iZuiMm3TrZ/3dHSNIaubHEq/5Dr3CIR5KhfurKbaMNIcrAi/C71Tl+/0Z8ozD69EBq4+XDmV4ursV5StWKxGWWvC+/96CKQzRWMc/7wwL2nCx/7V2OtclrsguMCI65F3lyL2nNFDTqJyBSzDflMTLRI3fhEIqeCym2RNoz0tLmenDzmveUGJ4jkrY/uVTrcZ8YGfY+uH0nAuptM/uHj3u9P9LaM4Pe8HBGmDDapYLxjtVxGOZuiajNClQpGnWRhZRhyJEEJGdim8dnAqftPF98bmwoMQ2fatEeQ8WEYgSODAIy5HvfR8MPRpSsgxA3EEznj5iAdtUdVC0OuRu6cflZsg0mmvHkeYfYi3stUd75hw+1PHdXSJ3o9dxFu/7HJalwBsVde3F2xgfKOt4OAwrUQ2xnK0f+sXqtJD/X7fogms+7lUKK9sBJrIzGJjcZUeOkEB7xkFVbIcsa2XmhRCRuWEGIRQQfcGOqnNo6on3fffTL/M5ThJc1mXQxhwhkQebj+tF4XgfdzZBEgeVdyZwOhhOfe08UPqRw0AkW4Iu7xl+9riddCBDit3irelep3Lvg6cBbImOdS8M5hzDc2R6WxGfTqBp/HtohQ+7cne5tv6rUqbo96wGcqG/Q9vEDUXjWVzj0AEcaO2tNz6XTehLIwx2bnGKEw0ngvUjgcq3REuJQy6iL0Dg9d9Ggntt6GHBodF4Q4/cOx5YsarTrf3+N5YLcaQlgARFlwZg8nDx/qcCJQLjdm80UD7vNOLIo/AiflLBQYdRvvZxFqhyIcsdq1KFVTa/SKna9YwKNMLZeBiAzao8rptUPpssFpM4XRk+IBDPo3XW2OMUQVWRVOsatSnx1zyL0+ONa8F5NRl+n02Z+9M9z5/9p89mnqdCa/SQpyRWKdKk2QQ/maWjRv2Xo6QAjDML8UG7z7eP6jWX/kGHdtqfmS8wffYAQKpZJmdGb1zLW707+dXYoMogRUtznVJi3YNTqL8M6lvLlSdxieK2C151JRIfNKxn1T7hx/RQSucKzL9RDPqc+8Hit1jWRjfgjmMRv0fbhIDrtx5XS/99pgt+eWx2mN4mZBFEy+Np1YqIp3ZKNcekUSlkpo5KMB5YZwLOV+9HwR5TarFwLRdAuY8MpScPfh2vAhGYF6IEChdsqbrwSTbcRqv35/5lehSMol9r3hVhcVJxrUnBvMDWqw26WacwV4ZxRqRwVNEUpwuQwMusibb144IDXY4HNbl4b6Wm5C5fJ7m9kQqQcmvA/lEWCDrjzGm45gMugy7S02lIG0f3PxVPu3dqs+SNKKmzfKdVE3NkkaVklPnUL7pBtNEpNb5e7iyaweQjOnKA+I/s1nE+mcbR/g40MyAocCgWg87YaAzJV74J+MTC4Px1N58+bFMrHaYcwRZteSzCtC7Uql10i8ivqck167KFOTIcIRsA6bIXBmwPcdXt+2eezTRoM2dSgA50E2cA59nyaBUa9NnIRQQ6FY0AejSW80nm0qFKkH+cuGnRx3EXanVTut5BXstkSMdyLW0jEbhbb8y+DQ7+AA2NDq8bLNYgiC9bqKFqsRDKmMnu9cm7pPc4kPe7AQoNLORCpLPJnT392d+rvRmeCFfLGEtPRGb7hChEPjFeqmptZQ2wRlQu2iz3kxAzW4KCRe0fFUpq8EPVugAJftbnM+v3yu68/In9/XMRHuYE2u14yGDfo+XS7SdcehZxZWYlcfoZQFvcjbl4IJX7FY3LBAJwU5qksHE5Usp9CkUSawQgduhIeOavOGxkrJ3PpUAD2P8sUyukRFOg1azQe97Y4nTVjNU6MGnAvn2PZpLvFhDxYCxWJZs7gS7Xk8vnQJ5Z7vLwfins3GnO5jIsLphVa7DvlzIsUptZVQb17IIdSepZrzzWR1us/VUI5EqH35RF/LHTRgueHBfc3EV6WuiDL7VcYyKDPWI7lXm1kfhODMX09BtAGKTKmtFOKIIEchMsqpKxl6JwU7QZCDipzcRuPL5vLq+ZVo77d3p35/ByQ5loU9klOTT2qHCIDFbiR1xVuP5n4RTaQdUknohg33EZWM6gz2Bj0U4Rq3uN92OIRNobU82OzZVAREuNymtsn0YYq+6fWaFIXa3x7q+MJuNoTZmNcF/T3dCXvoewr35oNZzfrkzEL4XjCSbEOHs77J+dDxZCqHRNrGe5IEZ6h2tRJ6p9i4MtE5Kn6Hhw7mbRnHoOjAhtg7KnEakumcdXRq9TxU78JOm3EF478DRakAazzv84Tiw+8bAqSsGIymvA+f+4cfjPo/wL18MpMr6jbJPFfU4DRaeOakBqdDzflGPfc6nQU5AaQCRzlzIsOJPucbNiLCWi36dC9C7cPHfd8d73Ldh6AM583rdA32cjds0PcS7S2O1dpsmwKj9IfZpeggDGXTVCbcIct6p0YKIp+OHdFDQcHQOzWEKJc1DaKRDIh56zcReofgDGprm6F89YHNbAyS6AzUpO7AG0nxyv4ATCoewp4iQLLI2WzBCDW409fuTf8WjVfOr4aTdjnOi9Bqp7y5ySb1OqcyNQVKU6XGK8ibp8KoN08ghy6fFdNqVMW2Ftv8Wyfbrp7oa77pcVoQahd6OLwdMgTYoB+AC6ZF84NwLD327ltdf4Sn27wSSjrS2byFGjdsdMKrKnLERCeDS8x0JTZSrVKBM0kKUi+05TcT9pAf9N54OPtrdJSLklHv7XA+xXi4taISF4X3eWARgFiUFfoM/Tfuz/7yq+tj/xRLZFyy1SKU0kKuXGu0wztvErLLihhzhPmLBXjm0GkXoXbRRW3zRq1bmyAgc26g9etPLvf/a6vHPsvG/MBOs9cOjA36ayHamw840ABhKRB/hFXy19BPdz2dXD4XjqatcqE4Kj8pNiKXTg8HwZJThgoBTxvPGnjq9NDBA0HOiYC2uwaNWzrvjMx9ZDRoEmaTNgbvfRId5Yrsqe/N3OGj7C8CWHwbZxcj3dfvT//6PnQa0HilGVUfmxsqYphrJWogwqlRey77oV2fDi3C8zDmcVGiVizIK7ZSpA3VKtHhfu8PZwfbvulpc44YdJr0rg/PO9g3BNig7xv0mw8Mo77yznDHZ6VySb0aSrRFYimrXKKcvGbRTEHYclJ4I89ZiYQ6wvoUegchH2KREiFvw0ZMXQho6B48X7qEZi6aztamcYfVGAI3IIKPciOHAzS/eCj1R4Dy5oFwwj06vfLWV9fH/3lqMdxPC2G5TajBQaNdB++ctNqVMeZUkUbeea4hm46gx/nWqXB453mv2zr3/oWe/4aAzHWU0iJdxqH2+s+SvdsjG/S9w/q1R9JD6z2dyc0P97deWw4kOrVa1W/RvrQ3nSlo5MQmygjJo8VCA5b6gjGrhFGn4xLrvaEsyVGSUd/YyEFq9lBWL6/G+/56ffyfkLpTXTrT+SW+QEadN0bgyCKQyeVNNx7Offrdnam/Q9lpZ65A9+rm0xU9E0jaFYx2jdYoBJyU2sgrz8GYl+CZSx0bX95o+a/XqosoTYO0a8fng90tt5120yobc6WuyN7tV7lZtXfncKSOZDToslBkG7t8puvPkFY1oCTs7/yr8dZcXq65GYwr/lwSbVAl+db6b5L4BR5H2DXEKYj9LtOvnYw6UgXu+8/9H4IxG/I4zQs4j8fIrcf5QVH/q8J73H8EAuGk9+nE6onbj+c+fTy2dBliMuaSYJG+vEnSrnp45lYYdGi1KxRqLyMtVswj1J5GqB3hdqEEt7HZEoZm1KkLLocleP5k69UrZ7r+BELcNLxzDrXv/5Ta9QjYoO8awvrvAOHqeCab/x65aF0omvFmMsUPV8Jxl5xyWxm59HJJqM00kHiFMqIzFHqXpgoZbtFcYkP5Cy0oqBXs0mrce29k8SMY8phOo872d7sf4WssOlP/acJ73CcESKcdrHb1rYdz5766MfaHB8/9P0M7ZLes/roQj9GBAIcSNVNTgxbsdmW2MvqbZ0CAC8OgxxoKIMTJkV6Ide9qsoTQS+I6NV45M9h6nZTtlBkT73WvEWCDvteI13g8MMZzy8H4/Z+9nf2/yUzOlnmWv5RIZi3IU7+8B/q10j+d7koKvYuWqwpswtMQnaAgR4smDxuNuqhww39LgVjH7Ufzn4Bgk8oXizp0mHoA/Xqua1XgmvAu9xYBMuZgsDsn5oOnbjya/eXtJ3OfBMMpNy1yN1tFWghrYcxtDXpzE9oUgwSHWFe9G69Q5UshnxayrtTfvAxVODljDqJqg9mkS1Jp2i+u9P9Lp9fxnNBj8ureziElj8YGXUl0d7nvFpd1aWk19p0/kOhCowcXGqKcTEB0hoQg1m+iZr1i1OlhoUIvYyU8dWHQxfOIatRBk6PFhUxIL5bMmsdmA0MajSoLxl7JbNTHkuk8wnpqrlHf5Zzgr+8fAuTJxpMZx9RC6MT3P838zb2RhZ9DFKqVUlJyLi6VlGpRZ65DmF2DtqgSx6W+5d2i1hzeeA5eOb2K+a3XzQadNt/d6pg6M+j7/vypjr8SCW7/0OQjK4EAG3QlUK3jPqkJypUznX9CPt2InF0L6l1b5XYvQuEw6vTAEKQc6pqmgKdezdWrRGSA2O+bc/sU1kPO3/BkYvk8xg3+jSp/8XTn18c6nE/wUEyzR1DHCcK72hMEqsIxo9OBs9cfotb8x9E/oP+CdytGO5WSEvmNwuxqlKgpscAWnBbhmceFeAyJyGy1QTym3OK2LH34du9/nBtsu0rcFrDc5Yg5e4InH0QZBNigK4Nr3fZqMuqyyVR2CnWiV5eDia47mvlPIRHbRiS5jWxaKb+N8rJCHuE9Cr8r4alTGJHcdMnbIFIehfw2bkLzPVvQk9gGynn+MZcr6kkKp6vNMQrPnolydZshvKO9QCAYSXmn58Mnvrkz8fd3n8x/jHRYK2RdcYfJbLgxtdRwBeVp1BZViaYrQmAKpDfhmaeiouGKnKwrjY4W4f3dnvHzJ9u+On+y48sOn22MjflezJq9PwYb9L3HfNtHNJv0KSjJPcjkev4NLVZ1KG37dDWS9KCr02ZDCq8Z63bosMN8wuiqUdJWf++AZGcrUQAcBZIzovZ140apgVgyY/vp6cLbJA6v06mzarW60OVrGsNnWU1u2zOBv7DXCICYqs1kC6aHo/4zP/4085sf7k79LTTaO1QkHCNryyWeCSnB0Ytaota/vzkW7qgzz1F5Gox5PhuXhYWeDuCxlOwWQ+j8UPuXH57v+ff+LtdDi0kf22sc+Xh7gwAb9L3BeddHsZh0UWppmM0VTZCE1d55Mv8RJGLdELaQ3Td1Z2usyL4rQpQj9i489RL1UCd5WCwi5Dx1epihi1zD1Fzo1F8Kz/Ww+6rCmQ4NyvFG9Do1h993PTN4B0ohgPtMHUSa69nU6lvX7k7+7Xf3pn4XiWWECpzsJsLshgYNcubUdEWLn+WocrsZLy2cy6QCByOeTQQFs32LIEGDBvdnl88xD8/8i3fPdP33YE/zHeTReSG9mwtwwL/LBv2AX6Dq8LQaNVnuIBqi/AB/uDFfLOnRR/0yysQ88No3eQFSc5ci2OjkqUN7RoTfRVeX+p0xlcmhPl0NJTnSl6IadbmwHx0XpDjT9GJk8Ns7k78rFAtasN6TXpd1DuH3JNep1++S8J7qgwAR4LBgbn0ytvzO17cm/gG9zd9bWk00097lhWNwH2h1MOZohwpGuwaeOYTaSYqpPgPCXiQCXFbos1Oonfqby91vohWqTlP2ui3+syckjfbududjlMOyZ163q3Ewd8QG/WBely1HBSO4GE1kPi8USjpEsUuZTP6jSDxt31TOJh4AFYnYClGOZFzrTZQTJLkGlLKJmYRgv2jXLh9+zyGnfv/ZwiUSzHHazKvnTrR+39Uqcuo5NuqHbCIe4eEizK7BPdYEsZh3yDO/env8tyhVs24t6YowO4w5laeJWnOjDYRRugfqZ8ypmqSEPHmB+ponQw15GPONZaMvFv+qBii/Bd860fbNu+e6//PCqfavj/Dl4lNbhwAb9EM4HVBukrx4uuNzhLKz6MemfjK2dBGEuRby1OUaqFAoXJSNV4hydW+7Sro2sOgqDXn/eZB1CoKct3Ejz0aNbjP+QKzvj18//t9Q1rJjQVD2ua2zSB0kEMqUzx8cwmvEQz58CJBXTuXkIJ32jIzDM7858b8ejvmvoAHRlsac2OxqPUrT9FRr7pAarsjwSXaDBnVKK8MzzyJfTrXmEptdTpGOqtwbG9COeXF4wPfDL98d+JfjPZ67uzk2f/dwIcAG/XBdLzFaGHJqerKKfsvX8ABSoSQle+fxws8DkYSzkIdN3BBVF+F3MrLVOliUtAmjLhc73CEeUjifNOWlHdAiQiLKvXjwVH+CJKwNNfWnzQZdDH9rvHi6/etun5NELiI7PDx/jRHYNQJUahmKppt/erb4wXd3Jn//6PnSu8uhuJPuE1kCHCa7Wqtv0MMj16IVKuXP69r5sJLCEqVpRH5DqL2QS8uH2XH2KA9tgHR08syA79oH53v/eLK3+ZbdZgztGhjewaFBgA36oblUmwfqcZiXcrnCH6FS1YiyMCNaN14ORVJO6qO+cRPGVHjO+ImMLoXfRa16/QCgfYn+zngvY8khzLlM6FEI0sD6j0wsvx2NZ5rz+YI+e6poQFjzgdGgTYAvwF3a6ndZeE81IICOgXrwUdrvPV346Lu7k7+7fn/2Y2qLKstQFwYe7BESjTFa8HKKmnNBJKnbRnyUigIcjHk2EUI6C9rs4q7avGlQUeJymIJYGD9771z3/1wa7vzcZNQm6jYc3tGhQIAN+qG4TFsPUqfTkETsNYi5lAqlkgahwvNoveqWzakLA0s14/RQgDHHf1RaVu+yNsrVi0WDYL/L16nTvyKUaVpYjfZ8/sPYP6+EEq14qBp7211PEH5f4PD7IZ+Yh2j4ZMznliJ9d9GD4KvrY/88MRcYwtzcUnSdFsIaeOaUL9fjRfKukgtfv9UxhdmJ9JZNkjY7epoXqR2CTJgdf8UCGH3N9eHT/b7rn17q/9cTvc03TCYWjjlEU7BuQ2WDXjco929HkIhdWA0nvk2kczboNedvP5z7MJ7KWaFutWFQ0gOBPGSqVVeV6SGBMLmIvm9RirOj06r0USeyHKrUKSogR5SjcSTTOcP4XOB4Npc35gsl7aUzXV+eG2z9AQ/ZJTB1IUrNGyOgHALoM2BeWIp23Xw4+6sf78/+GjnzC0nIK5PuudymQgRKLRTg7PDMbeJnWeLKjodMio8FlKVRC9QYeppHG8p53Kcyw6FgG1osl90Oc4By5tShEYqMn0OvnVXgdoz/4f4iG/TDff3WRm8zG4Lvnu36HzyIiolkzjE5FzoZjCYdcuF3yaqDKLcWDkcinkps1hTgdg8K1d/Sw088h4QsrTz7XYQuUVK3Ek52/PXGxD/CwNthzE1nB1uv4WE7B2EMrlXf/eXgPWxAgKRcUW2hgy57P/gnn1y9M/EPzyZXz5K6oawxr7Qn1qCnObVB1ZkcUqMiORbqDtEW/REQVi/kksiZR4RBp5aocsacUgHgzjS0emxLQ/0t13955fj/Gezx3LGadVENp6x2eAUO/9fYoB/+ayjOAN4s5Z2XZ/3hb8mowzj+Ac0j3o0m07ZCoaLvvu5cJV8dhlbQ36W8Ojkl9Sprk3LzUo/2Ms0y1MPTsWTlKXH4PMh82VzWev+Z/0Pk1d1gwNvOD7VdHexufohvc079iMzTg3IaaE9smluK9v14f+ZviM0+tRAehMQyWG3yGxlvypMTk516movOaXUkoBBxlZqsUB9zIsBRuF30M5fZKL5m0GqKDpsxeOVs15/fe6v7vwZ6m283WQ1BNuYHZYbtzzjYoO8P7ood1eu2zljQi5zC1/B8C4/Hly+hqYsbDzAs6jfH7cSDRBh16d+k8Duse73SgVTWQ3n6SvqvJErrNtfoSiVtjQ1g7jvBgr9EYyHJTSprQ6e5abvVGFYMNN7xchNQEgAAJM9JREFUG4UA1N6czyZXTt96NP/xDTRaeTq5MpzNF1SkrLZpE4qImgatXtJmp85pKmKz19MzF+1PyZjHRC9zCrcTIW7jTSgEonCfaLSacmdr0+zZgdZv3j/f/R9nBlq/R8+HBGs5vFHTWPZk2aAfsTmgw8odwhghsFw/g7jEMknGQuXqysxipBshRpUcWY4gKIpaV6z9ofpGzzUholEvD4QeiqJbjKRWJ+rUZRq60DjI+IMUp8VD9gJYxrZ4KuO4fKb7C7StvIEe8UlmwB+xCbuHp4OKED0EY1zoLXDp5sOZX9x4NPcLP5jt5VJZxpjTXKViEKi/VYw5EeAE16Rexlw0U4Ixz6YachmUpYn2p9RkhUz35hU13Ru4n9MIs8+9c6bzL7+4cvxf2pptU7gv0Ja4rhT7PbwqfKh6IsAGvZ5oHpB9VWRiF6Egl7KZdSGQ5ma+ujH2B/9K3IcHGnm9MrZaar9K4TzpgaIWnkn9jDrUtCrlPpQ3pyPIlbQRhESiA8HPODUfOone6u5kKt8EopKdQvD455UDAjMP45AhsBxKtF+/P/ObWzDkz6ZWzsOY+3IFkENlF65Y2FaMud7iBvnMiPQRkTzrVZqGhS002SlPnidjDqNegnjMVlKudF8a0c+80+uY+uTSsX89f6r9i74O52OjXpc+ZJeBh6sgAmzQFQR3v3fdZDVGMIYfUe8NYllj/s7j+U+eT68Ow0girw6ZmU1OAHVNQ1tGydyK/5OnTnrt9QnBSzl1sUccm8LvIocv85Ckh2w6U9DO+aNt+NavEYZ3wGM3Q5DmTrPLOm82auPsre/3DDv4xy9IMq4ufyDedfXWxM++/2n693QPIOxuoSoLOWNOXjjpKVCuXGdsggqcRczbuhjzSsUHdUvLZ0F+S0cg45qEMad8uUz3RHyeytJQU54c6G5+/Pap9q/eO9/znx0++zgarWzdAP3gXxoeoQIIsEFXANSDtsueNscISlsWbRZjwKDXpJ5MrFxAO1YnHnayQyXPuVTOCw+6jFC5SC0Kwy7n2W//bIlNr27UYUFBxpw8lQL9f3MkU0jKgukXjPsS6ewnqFXvGD7u+x6lbZ93tzme5vIFv1qlKnDN+vavwVH/Bsm4kvIbSSKPolvat/cmf/94bPld/N6OSgo9TbaNC1rxO7gkKsi3Uh9zQYATxrweJZ1S5KuMRSyR30jClQhwBfLKickuK+VKFSAqCMaYQ33trscfXuj593cgGAOezJxOo+aSzqM+iXdwfmzQdwDaYfsK5CDp5l+GeMaf7BZ90GTQxh+NL1+Zmg/7qBPkVmQ5IuaQNAw9iFSgqjfiw2V46/Xgy9ExhQAN9N8bqaELMeC3UMFCGVsDHs5WEPuGIc3pm/VHBqBl/yVC8F+jucs4zo1bQh62SanweEEK1U0vhAduP5n/5NbDuV8+n145h7njAr9EmE4ZeiitWoUxp/pyKkvTaE1CTXH3m3Q0MuQF4ZVLndK2CrGLz2IxjcqVog9ladRkBUz2/znZ13zL67LMazSiooU3RmATAvWYrQzrIUGgw9s0AwGaJPHOwIpFkWvDL4LRlAf5aZ08/41C8ETcgbcuAvEQ1VDhb5LLvmvDTqFNyfnRCFMOrTtKoFeC/S9ArS44wHrXLSxH2+CpNyfTWXssmXGeP9F+FV7XU5TwBKBxT0o5vL3BCJDqG7gjnvvP/QP3n85/cOPB7C/Rz/xsGvXlUhJpszEnc0v5cWKv60CAo25pWtSb18UzFxoMaFgETzwHj5z6mBcyMOZbeOXVS2e3GJJ0v0KP4bt3Tnf+hfgjIMTFkAKrVxL/DZ4lR/fU2aAf3Wsre2YehyWAnOJnVoshZDbqozcezvxmbDp4XIQDtyD8VEOFQh2GGruQYAwlwXdt0iWFOiE/SwsErCoQkBSGXe6pRVw9WlaUcgUtpQ3Qr7pjYSXe+85wx5cXT3X8NZPLr3Je8Q2b0JXTRWUEKjhKmkA45bvzeO7j6yhHezK+9A56mLeiJO3VzznRMc0sNVlBaRrVmNfHmCN1VVV9g1AMsdmLRQqxSxwVuU00I0azpb4O18h753o+Q535nzrRYthi0rIxfzOn9rbOmg36tuA6Gh/G6j+BHPpdCwy6Sa9JwrBTSPJkvMKAl+0uJUps6CFEXdsoBF8SLHipR/TugvCCdS9i/8QiRjaddifK2ijv+DLm1SOl0jndQq7YgRDqp+Foyru4EutGl6kfgpHUA5wfBDZU8gSBo3EJ+SzWIUDEN/9qrHNiPnjq8ejylcdj/svjc8HTwWjagVSNKIWU3UhPSaNv0BgsMORW4ZWLjmm7nM90LCK5FQvokpZJIrwOLXZiscNTl1jscgF/ioY1NDQ7zcHTmMcXT7X/Fd75t92tzjEQ4tD8nDdG4PUIsEF/PUZH8hMIUUcQnnxAJ2eDwpTZqPkNco4nYRxdmVxRn0fHNrnHIMhGUh0unj7Cc0eTdSEbK1qt7cawV3Lq9LijWnXsqlrWJhn1ly27+AzGgkY0HrD2r4DF3L0aSraFo+mWY12uB6hbn0VaIQ7SHPdYP5IzGHlmeOVIu7hGZwKdpLXw09PFD0bGly4hctOMELuOIk5bybgSf0MqS4OUq8GOd6P4fbfGnAhuJNRUgCGn8HoexrwM4y7pLmxVX64iFnvGaTcuD/V5b3xwoee/Tva13Gx2WvzoPshlaUd0/ipxWrt5AisxHt7nHiMAo65B21IXNK1PXn8w+xv0gf571Kt7o6mMWU3lO6+aIURsgzFXIwSv0lAr1koz9N2eQ0VwQwjQEFmO2Pavqf/VUC9ovTbR7rNPf3Ch948fnOv508ljzbc557jbi3Fwvw+hJO2tx3Offnd36m/vPpn/GPyKjmy+qIehF2vOreau6JamMzYYzGh7CoNOXroQjNnxglQqxyBpF2KuZ1GKloPqWxHqb8Ij30KIRvwZ/4PRznS3Oac/utj7b2Cxf9bd6nhuNetZk/3gTr0DOzI26Af20uztwKCfboUO/PGRiZUr90bmf/ZkcuXSUiDuzWbzsImvKtshzxqGnzyeagheLAR2ObWq9bpUF195VaMCcsiIoAH+B08nd6zD9Wygx3P7RF/LHSr3affaJ+D9rGjUag7D7+20qvvRCsWiGnnyVv9KrGdsLjD84Nnie5A3voKQuy+VLmhU4HZsOfMoVw7jraMQO2rMSQFO0mTfTVkaRJLQ2rSIunIh30peOZjsJWHMN8u3VgEhFjsaDxVam23+492eO+dOtF47CzZ7Z0vTJKpQElyKWfep80bscJdP3TcCozfmJFHXrU5l8pbbEKC5/Wj2V9QoZZEelJmcEOF4teIlybsSwY3y6tXObXUw7ESCIwEahDKrzV3kQvDVi1TtQmU2aKPeZvv8mePea2cGW7/v73TddzssS/DikzqtKsue++GZ1pArboQ3bgBvwooOgt7RqcBbaHN6+eGo/z2ovXUgwmSVWvRucU5CGVEtephr9FaQ3yjEbt5Fd8HKsWihCaNdRAlaPoN2p9BgJza7YLBvMRha50IzvmQw6FKtzVbSY//+7dPtXwz3+2447CYsOhsLPDcPz9w8aCNlg37QrsgBGE8klm5aWI31oFvbJz/8NP03957OX8xmi0Z6aMrLZL4YdLW+nDx2Cm0K731XHpC0byF2I4y6lI+U5GnlN6Fwh5mt02iK1Bsa2tezp497vz8/1P7NUF/LrWaXZQEhevbWD8Bcq2UIuUJBF4qkvfefLX5wd2ThIygfXgQJshMCMRaQ3lS02NwyIERzVqOFQAxIb9TDHMQ3FQz7zuekYGwKgRgy4NRQhQw6CcQIQy5aEstvdP/QOJssxjA88h8un+36fBgGvaPFPoGwe4rnZC2zgT/zKgSYFMfzYxMCTSDMwRt6qlU3ZqEFH/S5rdOj04Hzs0uRbrSYtBSKWz9AydAK5Td6eFH+sCSF48lD2k0pEH1X1Uj91Uk+VvLYJVKeiLW/dA5C8At/QrmSOhPJN6UzOSuiDI6lYLxzfDZwaqDbc396IfTY57HP6nVcu35Qb4EsyJlzS+FjV29NnnoOr3x8LnAO+v6nQYSEDkF+bW0pZ8ylygm0PEWIXa1DbTnC7GrosatEvnyHfgwmlRCHQQMVYcTzKENDaJ3C7ZLa2xYLTMxFGOuyp8kYam+xT6El8J3hAd+1QbQ89botCyZ46wf1GvC4DhcCO5zZh+skebQ7QyCfLzSmsjnLwnK879rdqb9HKP7T6cXwgJCNhYdSS58KoYstGMVa5CuJNFeVj93F1KMwJ8hy9KqSjl7lsdORRK07tGZddlPw1HHv9UvDHV+dP9l+1e20LOo1qoxWq8ly3nJn86Se30KPAU2+UNBDx98ciKRab6Ke/OajuU8ePF+8SD3MQXjTiPTPlgeVOvqJ/uV6k8RgN8IrV+nFHNg2i72qzyAiRGimgtC6yJND7Y36HoiRvCJaRGNBiifXZDNFTva23L2AcrSLQ+1f+pqtM1BwTLBXXs/Zw/vaxVOVwXtTEEil8/rVSKJ1bCZw7sefZn53B4xieLjtFOkUHdReM4uk7m6UX6cWqmDFi3D87hjxZMjpgUptX9d6rL86yS+eu6hPb7CZ9fEWt3W+p8356HS/98fTx1pu9Pe4H3Lnqv2f0Sg79EzMBU4/eO5//8nE0uV5f6wfWv4tkWTWTIIsr55r9O/IlYtSNITYicFOXjktJHeU9gHhDfOrAK+ciG7EYCeyWxFpH5IqftWKluZaCXMUaZ/8id7mJxdPt//1wqmOL3vbXU/sNkPQoFVnOFe+//PtqI2ADfpRu6IKnk8gnHTjIXuRmlw8m1w5D8LcMfytJZ7MIQwv171t3WCEUa94T8itizA8qcNVeqRv23Oq7FqE3qm8jXTnBXGv2v71FQqZmPVatbqE+vtoT2vT48Ge5nvHut2P2jz2KY/TPO9qMi3bzIaoglDyrtchgIiPJxhJekn5b3YxPEiiMOiq9zaiQb1YTBqpidAr9U5FXwBSL0SuHOVoZNAlY07h9e0vHAVHA954UYjDwIDn0hCHwSuflkLrr1k40jxvgniTy2Fa7mhpGgEp88ezJ3xXIRIzCtGjMPcu5+mvFAJs0JVC9ojuN5crqCEd60Quc+jHBzO/A3Hu5/DWuxMpMOEh9v6q0PcaJGuGvVLqRlKya67XzqYkGfWiKG+junUizdHRXi17LbRw8B+1pnTajKHB3pZ7ICtdPTfYeq3D1zSqhxeFyEKJVefqO5mpExrC5mqUbqkRyVY/nVp5+wEqKu49Xfh4ci44gEWiE33KtWKB9ppDS4tERH10JqH2JkLsUHuT+BrbmEsitC59ReTHSRiGwuvURKX0arnWytfEl1E2VzJBD+F4t/vpmRNt1y6d7vh/Pe3Op067aRXRrBIb8/rOJd7bywhsY8YzdIyAhABYx41o6GKDMlvr1EL4NDSzLz0aW7oysxDuR2MMO0hz6teF4SV52YrXXmHCS7XsRKDbQV1wJdcpseHJwyLPXfLsXmcWKLeKntNlu1UfdtnNS6gNHu/yOUaPdbof9ne7fuppdT7XatXUsJq3OiCQzRYM0/7I4PjM6rnRmdWzM4uRwYWV6ABkez1YGJpQPvk6J1jKk8MrJ0NOHjmVoWnU8MjBaCdj/opqdJkzKMP7pjrypPDGJaIbWOvw0MU8EnKtr96gv15EVCd2rMv9BJUUN9EZ7SYM+RMnoj0WNELSaTU8f14HIv/7rhFgg75rCN/sHYRiacfMQmjg6eTKO88nV96aWAgNoaSoB0I1TWhh+boqNwGeJBtLOfZ1jPh1IfpteVpkwCtCNOJdSNQS257U5l69iWHgf6hVzyL0vtrb4bw/0N18t7/L/cDjMC+4bKZlh90YQFvLNBPoap/3pLWezubN0XjWFYmnPBRah1zr2efwzJ/PrJ6JRjOOZCavqym6gzSNGkZbjTanlB8n4hu91GryymsMrxOPDU2ARKpGaBzkpZB6jnTX0/gbsdZrq2okaWG30xRAuma6u80xgnz5HZDfbrZ57VMIr4fYI699nvAnd48AG/TdY/jG7wH5cxHfhHpX548PZ3717e2pf7j/dOFiPJW11WTR1yO4Ls9O3jrJyu6M0CQpx1UFaah+vTaDIS0fxLgRbjcaNYkmqyEBAZCrb5/q+OZtsJQRPl2muuE3/sLXAADpraMLnnl+KXrs8cTy5Z9GFj5EHfk7q+GUi+rISY//NSnpl45CXjn1Ktejppzy5KJfuXiK1fook5Z1Qtmt0ps8T4IwND/W9NZrODHpIyWDXpt6/63uL96/0POnK2e6/wLCWwDLUgqtc3i9Zhj5g/VCoNa7oF7H4/0cYQRQ761Hb/I2hOFPgtR04fnU6nloxJ+aX462oqZ4i57rMoBUvXN4YyoKvwvPXRKokV61T1uJDS8x4iUJ2YrH/lp/XRoXheMRLm1wI3Ta7LLO+VyWCWpn2dXW9Kyt2T6BBhoLKIVb5pD8i+uIeWAKRlMti8uxPmgXHEfTn0FIs/YgpN6xGkm2EgkOksINpGdQy0ZGW3RFo/A6kd7gmaspT07h9VoMOeYAMdPJ86ZQehF15CV64W9F/E0y5hRWr2086EsOlTfbAlIyPw10ue/1IYLT7XM8a3FbFjFXcrWcE3+GEVACgdqfjEocnfd5JBFII3y6Gk60Qhf+nYfP/e+NgBkPj6wD+VE7vDITWp7WfN6SkEzFkFckZYVRF90wJFJbTR4aHurCoIsQK5HmpAd4rV67MO6NjWW8im3epuW+Tgdy666nna32UYiFTDaZjasmszZmNujjRoOG6otJBL82C1EzGgfvgyC3NVIf8ky2YEqks/ZkKm/DtW+f84f7J+fDQyhBGx6fC51AOZodWNf8vKnqFzSqUE9Okq1aGHMD8uQw6mTgX72oo1ak0sKNcuDCcAtDTkz1LMLqILohP16rASfUdTpNA3LhSZtFH25128YH+5rvnDnuuzZ0rOUmNVKBp545eFeHR/SmIVDzDfamAcPnuzsEIEqjyhVKOpQj+abwYAdp7r0nY8uXR2dXhyAta4Uh0OKxS4JytW2CREdblUj3QlZWUqKrZSpXytrWiHPrjXvNw0Atuxr1xaos3jPoKZ/yOE3LqC9+hFz7fZCi7pOUJ9rTroBol8WwqO8Xefq1nmltA9nHT5ERp2uHM2vE4kwH/X8rojB9KGW88BSLuEnwKJZWY17kxa2FfNGYQ9idOqDVvjWK/LgaLU2pR7kWRlx0RKvKCG95rSUKpFi0UUhd5MRJ0Q15cfwutf6V2v7WYswrVRB0/crQXV8+1ul6RFKtJ3s9N0B4G7GaDRGdVp3Fdd5aJq72k+ZPMgK7RqCWp+CuD8I7eHMRqLZnRSi+fXEl2je9EDkx4w8NzPqjJ/yBWGcoknKi+cY2AVrHjhcGXiLTCeb868h0lXI2QZZb8+Iq3lyVQLeN0YAUhfaXmrQTSmAuh9nvdphnW5zmOW+zDeF56wx042danJZ5EhNB7XvuMJPpSMWNlAOjsYyLvHBUOXSA4Na2Eoq3rgST7YFIsn0lGO8IJ0ByS+YMpF1e84brRp3PSJqVys6EQYdnTr+Lhj8VlcGN+6OOZiKdQj3HyRMvwXCTNCuF0sXfKKQufaYWI17dvxpd20CEDCC0PtXhdTzraROvEcgFT4IEt0j15Ny9r+aryx/cIwTYoO8R0HyYBuRMSyoYcM/kfPDkk9Hl9x9PLl/CzycQiietdWM6nTdtwwSsg5Q8YMlLF946ur5JJXEvapElp05mugviXMVTr3juovlGDXXs66+pELShI4A+jbr2NAx6sLfNOdLX4X7Q1+F8RIYBCnVhhGaTOnjuWp06o4eHDy8fofmD6b2j8YkOHrgeZWZGIrYhXWINhtO+xUC0F3nxIbyGZ/yRXizUXEiz6Ek2kBCuLVoiPijEhahLnxRaJ8Y6dNfxogYqKvztZSNMERZaiEnvdJ1I/ld43yQAQ+VmlZdolFJLfr1yEenaqcGXMOo1GaNRl8a1ivajbHHomPf68HHfdx0++7i7ybzC9zEjcJARYIN+kK/OERybaJiCfCt0uS0rgUTnrD8yMDKFUC3CtQjZDuHfjXhga1/ZDlMWl3Ua8aL87AWBToRqRXMXMvAbatyrgiIVhTmJGV/x+lDOtJONDAO04Uvod52gEjfJgzeutPuaxtHoZqbFZZv1eSyT9DO05P1k2GEEyxSexzsk98i4qLYTo97JMNe+gxy4SvTSKZdVQpocw0DJIaVLvMuBeBeiKQMz/vDA3HKkb2k10Y12pXbUihsyuaIVRl9PdeOkr17zVgmZq0nfn0rPBNkNvclJ2Q1/E9dJXL8X9hxXRXjc5HkTqU2qE6d3KjGrVDCQka8a/BoJbqKeXcTWy8UmqzHa1+56fuJYy+2TPc23YMRHEXFZNBtQR67TZBBe39mEqBkY/iAjsDsE2KDvDj/+9i4QgFHXQXXOtbAc7Z5ejAzBWx9aQHkTWrcOoATOl0BZU/EVnd1efehq+J0+JTHjJfWwivcuJGfJiZO8ePr3auc2kWGtGvVqGH4t91r7Ca8n3Bl12gL6XUcReo86bAY/jMcCGnYskaHHzyGUxgXoZcfvFM5Fx7sAFgSKM6aT6awF9eHOaDLtjMWznsq7E39zEBs9FEt5g+FkJ8LpbWCuO2OJLBlx0Z5Wwq1GPKrliKJJD9jpVEeuodC6AZwE6oJGgjDU/JEIbVV9fqoVJwIjkRlhyImNvhZaJ8+cZFhrE35ZP0q6vjR+aoyCaxBvcVkWW1zW6Q6vfQzaAw8hKvS0tcU2ZTcbQliQKX4NakSQP8YIvBaBWm/H1+6IP8AI7AYB5GfV8VTG9njMf+knyIBS7+vFlXgPQrlGyIAaKPRLmt7VdtM1G5JNgxIENSkcT2I2pPW9VhJXId5VPMOqty504oXqXIVQtc1wPA1BLBJEFEB6p53Rb3qtpghjEoDU7DgMyng7vUCq64T0LIxNAC1siS1fhNdfwLiL+LkAGb4iMgtFLfq9vw5z4KYuQbmvWC5pwFXQ4GcN+AMqlIxpyctGRzPfAjzvBZSYYRHVM78S7UV3vZ6VYMwJD1xbwHeQTq5wE7YRTq8MTMJZSoVIym5UdlYRgxFENxhxgecLVnpVpa3qgZMXTprqIg9ezctvo/a8mj4h4SIouiF6okpTIx4w1iPdrY6nQ33e26f6W37saXc9hXGffx2m/O+MwEFFgA36Qb0yb+C4svm8OpHMNcELdEQTafdiINE7C8Y0ee9z/sixhZVYayKVNcEgkma8mqK82yk7kyDdEJonsvZa+VvV0EuGnRrHSCHoikVeM8pkfKR+7NtSRZG5phRe1ulUDQadNm3QaxLwylPwClMQronBcw+CVDcPzz2I0qgIXmEwq0PI7wbxClG5lA3ePIxUnkL1ImReGS68aEMG9eARgWXGDUxd8WQGSm1ZN7B1gcvQvBpOtsaT2aZ0rmDN5fLIkxeMuVzRLN5FGH0n+EoY0zAofE5hdI3wxNGXHO9i8QTYiJQIF1swz4nMRmptZXjctHiisHmVjf6iPS4p/W0Pb4kgKZUb0iEdVmMMC6U5KLo9Bkv9YV+H66GrCSF1I8oNTboYNNiTXH72Bj54jtAps0E/QhfzqJ0K5GPtECTp9q/GexcDsS6E5nuRd28PRFMdIUmgxImwvAHefSX0u40QsAxYEplLyt3CHL0Ukl/7OCWbhWmRyFmS/ayE68WHtpFLruy06kFKjrtYNZBXWzIZNJkmuzltM+mSMDpRs1EfgeEJI6cbMRl1EQicRKwmvVQ6hRc1PCHvG+NqBBfBgOiGGZ3wCCMHCG3OVCrnjKdybhh2K4y8KRLPWGDAwTwTx5MWMdsNpVeBqRDcKJa99h+Y6Y1Q+lMRe128ayq2mrAjBjo10iFjToZdioKID7z0VKrtEVXFrbr4QpOUBuCUR/lgBDK+izDcs61uhNV9DoqAjKEMbbytxT7FJWdH7anxZp9PbXfLm40Rn/0+I0CkrVKxpI5CShbqY92j04ELY9Or5yfmQ6dh8DtA0jKDQQ9GdsmIdyJ3vYjM7mqGr2NlrWEg5dulErmqRa4a9Bpat24Xy2r0oLJwwK8UZi/SGgIjKFMongh4IN5lYcwbKXWRz1N4vdiIsLoGBo6IbjRSSlCLpYpk9NYG/9IyZHtwVRYvAg5aCEl97gUBkQ6L64BQv6TCJsrLKjw/Aev2Fz7roVsfNaHrgHLABg2IhOiMlwUmeZNRn/a6LQu9qBc/0dtyCw1TrvuarTNYBEVZzW27k5A/f1gQ2N79e1jOisd5JBFAlzdVOlOA15l1JPBCZ7dmfyDeSc1gwJYfhMzoieXVuA+CJmbk23Xr89bCkO3OhqzDVFjZTUVR2y1128lFesmQVTxqMqZqDSw8IgZS0EBaWKwRzyt3uZI3+1qpWjXKIWIV1RA5/VQNP+zkrF/+TjWULt7xT0hRZFAzHoIM77zPY53wemyTXo91xuuyzDmsplWrWRe0WYxhLHqS7JHvHn/ew8FFQMl7/OCeNY/syCAA1Tn7SijROrcUHZhbipBmeG8wmvYhT+xBi1cKMduQdzci5GymXu6kH16JKq9TnlMADjnnXoHDVHcpRekVPMAe73otDSGiCVIqQjDTodKHKoAEOAQJq0UfA4dgBaI+fjLeXrdtEnrqZMynmh3mJbvVGNnjYfPhGIF9ReAIPQL2FUc++D4iAAIXSYsSI1tL9e3BcMq3HEp0VPLvPfDg+1BP3YESLHcKHj68dy1C80aE8tWUfyelOqFqJqXDtyFHUttJVwMDfLNtjVc18iBIbLDcVMuvRg5eehdh9Cx54jDkcWqO0+ltGkNVwHNUBzz3op4fOutR1Iqn8d2CRkpDsBxrbdOTP3WEEOBnzBG6mHwqEgLova0nQlgKymbUohOvJqjRUYjegzKtVkiWUl11VwBGHz87iRyGML0RjOsX0nIM5r4goNOp8zDOaZDZElS3D2b6Ct7n8fsiQurT6HrntxDb3wSWv0kftZhBEDTo4sid75kQz74AwwdlBGpAgA16DSDxR44GAqjJ1gSjyRbSH18OJLpWgomOFXjuaOnpIxEVajICb9+UR0ORLDUVkVTQdPQz/qYG6Y7ka6ss9Bee/Lq7SP6GevkDcp+pBAcqQL/820FBf33+XhrTZlLC+s9I/1qNfJAimxQyF7XgGk1ZD/lbSK0mqFQM7xG8xy1g7UN4J+Cym1dcDuMi3v1gqPvRotZPJXzch/6gzAYex0FEgA36QbwqPCbFEEA5lxbheQq1U9idftbAm7eE4ilPNJppjqWgmgbFNDDn3VF49FHUbuNnF6mpxcGyJ81yfE+NEjEVwvRqENHwXoJUbYOW2ORV8tcaIW+dTZPIatIf1krUtiTrVY3lWmm5YpjI7XitfI3+cS0N8YLZ/4IEJ6UoqhKqJGELknsO7xDBwQvld/Q3NDspECEN3nQOJLUoDHecOtJBWnUOGulzbodp3uOwzNms+hDKzRLwuPNQcssh1F5E6B1hdFVer9dk9xQEPhgjcMgQYIN+yC4YD1cZBLK5vBbKaCZ0hzNmc0UDfqefTRBZITKdMZMt4ue8EV68hQw7sexFjTcWAGDde+DFW5Gb10ulc8jRozMZDL8mXyxq1n4uFFVUVoYXlNpQXgblu4JoDENyp1udV63sOrnPyfytht0J4wx3GgaVXiiNU5U1msYCvSOfDek4KNep1fReoO5xcLqzyF/DWGsTJr0uihr5sFm8tFETauXxd/xNG4cxT0IZL6NHzTxC6xmI6STxbzF43XEzXvheDF46G21lpjjv9Q1AgA36G3CR+RTrhwDy7I2xZM4Gr90BD94ZSWQ8sXjGIwx/vmSCkTagFzykakuQqi1pc0Uy8uhaJnUu0+LvWvyMd7zovVhUg5TXSGIwlRh21TV/XZHdFoF+8bX11L6X68XkDfqLknrhbBMpTVUiBTp4ygUy4JV3+hkveMzwtsmL1qrFZ/LURQ4GHMI3a/ntMPLbULZDnhuG2gSPHJ99rVRt/a4U74kRePMQYIP+5l1zPuNdIoC8uhpNYyDeIvTRoZVOIfcydSxTk/wqXqRuSgI30GOVhF2ogxmF6aXSbArTrw/Pk/7sLgdV569LjWsqHeCkkLq0UqC/kSyN+DcKp+NEGlV4byirG1UFKLSJUDsJ3mBRIPTnK+I3bMzrfI14d4wAI8AIMAKMACPACDACjAAjwAgwAowAI8AIMAKMACPACDACjAAjwAgwAowAI8AIMAKMACPACDACjAAjwAgwAowAI8AIMAKMACPACDACjAAjwAgwAowAI8AIMAKMACPACDACjAAjwAgwAowAI8AIMAKMACPACDACjAAjwAgwAowAI8AIMAKMACPACDACjAAjwAgwAowAI8AIMAKMACPACDACjAAjwAgwAowAI8AIMAKMACPACDACjAAjwAgwAowAI8AIMAKMACPACDACjAAjwAgwAowAI8AIMAKMACPACDACjAAjwAgwAowAI8AIMAKMACPACDACjAAjwAgwAowAI8AIMAKMACPACDACjAAjwAgwAowAI8AIMAKMACPACDACjAAjwAgwAowAI8AIHD4E/j8RM/NvdMnFTwAAAABJRU5ErkJggg==;" vertex="1" parent="1">
          <mxGeometry x="10" y="800" width="50" height="50" as="geometry" />
        </mxCell>
        <UserObject label="&lt;span style=&quot;font-family: Helvetica; font-size: 12px; font-variant-ligatures: normal; font-variant-caps: normal; font-weight: 700; letter-spacing: normal; orphans: 2; text-align: center; text-indent: 0px; text-transform: none; widows: 2; word-spacing: 0px; -webkit-text-stroke-width: 0px; white-space: nowrap; background-color: rgb(251, 251, 251); text-decoration-thickness: initial; text-decoration-style: initial; text-decoration-color: initial; float: none; display: inline !important;&quot;&gt;&lt;font color=&quot;#007fff&quot;&gt;nsde@dtu.dk&lt;/font&gt;&lt;/span&gt;" link="mailto: nsde@dtu.dk" id="R5m0K3MdsQXHiXzFZC0X-31">
          <mxCell style="text;whiteSpace=wrap;html=1;fontColor=blue" vertex="1" parent="1">
            <mxGeometry x="213" y="800" width="110" height="40" as="geometry" />
          </mxCell>
        </UserObject>
        <UserObject label="&lt;b&gt;&lt;font color=&quot;#007fff&quot;&gt;Machine Learning Operations&lt;/font&gt;&lt;/b&gt;" link="https://skaftenicki.github.io/dtu_mlops/" id="R5m0K3MdsQXHiXzFZC0X-33">
          <mxCell style="text;html=1;align=center;verticalAlign=middle;resizable=0;points=[];autosize=1;strokeColor=none;fillColor=none;" vertex="1" parent="1">
            <mxGeometry x="162" y="815" width="190" height="30" as="geometry" />
          </mxCell>
        </UserObject>
        <mxCell id="R5m0K3MdsQXHiXzFZC0X-34" value="&lt;span style=&quot;font-size: 12px;&quot;&gt;From DTU course&lt;/span&gt;" style="text;strokeColor=none;fillColor=none;html=1;fontSize=24;fontStyle=1;verticalAlign=middle;align=center;" vertex="1" parent="1">
          <mxGeometry y="815" width="231" height="20" as="geometry" />
        </mxCell>
        <mxCell id="R5m0K3MdsQXHiXzFZC0X-35" value="&lt;span style=&quot;font-size: 12px;&quot;&gt;License: Apache 2.0&lt;/span&gt;" style="text;strokeColor=none;fillColor=none;html=1;fontSize=24;fontStyle=1;verticalAlign=middle;align=center;" vertex="1" parent="1">
          <mxGeometry x="972" y="815" width="120" height="20" as="geometry" />
        </mxCell>
        <mxCell id="R5m0K3MdsQXHiXzFZC0X-43" value="" style="rounded=0;whiteSpace=wrap;html=1;movable=1;resizable=1;rotatable=1;deletable=1;editable=1;locked=0;connectable=1;shadow=1;strokeColor=#007FFF;strokeWidth=3;" vertex="1" parent="1">
          <mxGeometry x="10" y="90" width="216" height="235" as="geometry" />
        </mxCell>
        <mxCell id="R5m0K3MdsQXHiXzFZC0X-50" value="" style="rounded=0;whiteSpace=wrap;html=1;movable=1;resizable=1;rotatable=1;deletable=1;editable=1;locked=0;connectable=1;shadow=1;strokeColor=#007FFF;strokeWidth=3;" vertex="1" parent="1">
          <mxGeometry x="226" y="90" width="216" height="353" as="geometry" />
        </mxCell>
        <mxCell id="R5m0K3MdsQXHiXzFZC0X-51" value="" style="rounded=0;whiteSpace=wrap;html=1;movable=1;resizable=1;rotatable=1;deletable=1;editable=1;locked=0;connectable=1;shadow=1;strokeColor=#007FFF;strokeWidth=3;" vertex="1" parent="1">
          <mxGeometry x="442" y="90" width="216" height="353" as="geometry" />
        </mxCell>
        <mxCell id="R5m0K3MdsQXHiXzFZC0X-52" value="" style="rounded=0;whiteSpace=wrap;html=1;movable=1;resizable=1;rotatable=1;deletable=1;editable=1;locked=0;connectable=1;shadow=1;strokeColor=#007FFF;strokeWidth=3;" vertex="1" parent="1">
          <mxGeometry x="659" y="90" width="216" height="353" as="geometry" />
        </mxCell>
        <mxCell id="R5m0K3MdsQXHiXzFZC0X-53" value="" style="rounded=0;whiteSpace=wrap;html=1;movable=1;resizable=1;rotatable=1;deletable=1;editable=1;locked=0;connectable=1;shadow=1;strokeColor=#007FFF;strokeWidth=3;" vertex="1" parent="1">
          <mxGeometry x="874" y="90" width="216" height="353" as="geometry" />
        </mxCell>
        <mxCell id="R5m0K3MdsQXHiXzFZC0X-54" value="Operations" style="text;strokeColor=none;fillColor=none;html=1;fontSize=24;fontStyle=1;verticalAlign=middle;align=center;" vertex="1" parent="1">
          <mxGeometry x="717" y="50" width="100" height="40" as="geometry" />
        </mxCell>
        <mxCell id="R5m0K3MdsQXHiXzFZC0X-55" value="Modelling" style="text;strokeColor=none;fillColor=none;html=1;fontSize=24;fontStyle=1;verticalAlign=middle;align=center;" vertex="1" parent="1">
          <mxGeometry x="500" y="50" width="100" height="40" as="geometry" />
        </mxCell>
        <mxCell id="R5m0K3MdsQXHiXzFZC0X-56" value="Data" style="text;strokeColor=none;fillColor=none;html=1;fontSize=24;fontStyle=1;verticalAlign=middle;align=center;" vertex="1" parent="1">
          <mxGeometry x="284" y="50" width="100" height="40" as="geometry" />
        </mxCell>
        <mxCell id="R5m0K3MdsQXHiXzFZC0X-57" value="Monitoring" style="text;strokeColor=none;fillColor=none;html=1;fontSize=24;fontStyle=1;verticalAlign=middle;align=center;" vertex="1" parent="1">
          <mxGeometry x="933" y="50" width="100" height="40" as="geometry" />
        </mxCell>
        <mxCell id="R5m0K3MdsQXHiXzFZC0X-58" value="Background" style="text;strokeColor=none;fillColor=none;html=1;fontSize=24;fontStyle=1;verticalAlign=middle;align=center;" vertex="1" parent="1">
          <mxGeometry x="68" y="50" width="100" height="40" as="geometry" />
        </mxCell>
        <mxCell id="R5m0K3MdsQXHiXzFZC0X-59" value="" style="rounded=0;whiteSpace=wrap;html=1;movable=1;resizable=1;rotatable=1;deletable=1;editable=1;locked=0;connectable=1;shadow=1;strokeColor=#007FFF;strokeWidth=3;" vertex="1" parent="1">
          <mxGeometry x="874" y="443" width="216" height="353" as="geometry" />
        </mxCell>
        <mxCell id="R5m0K3MdsQXHiXzFZC0X-60" value="" style="rounded=0;whiteSpace=wrap;html=1;movable=1;resizable=1;rotatable=1;deletable=1;editable=1;locked=0;connectable=1;shadow=1;strokeColor=#007FFF;strokeWidth=3;" vertex="1" parent="1">
          <mxGeometry x="10" y="325" width="216" height="235" as="geometry" />
        </mxCell>
        <mxCell id="R5m0K3MdsQXHiXzFZC0X-61" value="" style="rounded=0;whiteSpace=wrap;html=1;movable=1;resizable=1;rotatable=1;deletable=1;editable=1;locked=0;connectable=1;shadow=1;strokeColor=#007FFF;strokeWidth=3;" vertex="1" parent="1">
          <mxGeometry x="226" y="442" width="216" height="353" as="geometry" />
        </mxCell>
        <mxCell id="R5m0K3MdsQXHiXzFZC0X-62" value="" style="rounded=0;whiteSpace=wrap;html=1;movable=1;resizable=1;rotatable=1;deletable=1;editable=1;locked=0;connectable=1;shadow=1;strokeColor=#007FFF;strokeWidth=3;" vertex="1" parent="1">
          <mxGeometry x="442" y="442" width="216" height="353" as="geometry" />
        </mxCell>
        <mxCell id="R5m0K3MdsQXHiXzFZC0X-63" value="" style="rounded=0;whiteSpace=wrap;html=1;movable=1;resizable=1;rotatable=1;deletable=1;editable=1;locked=0;connectable=1;shadow=1;strokeColor=#007FFF;strokeWidth=3;" vertex="1" parent="1">
          <mxGeometry x="659" y="442" width="216" height="353" as="geometry" />
        </mxCell>
        <mxCell id="R5m0K3MdsQXHiXzFZC0X-64" value="&lt;font style=&quot;font-size: 18px;&quot;&gt;Modelling&lt;/font&gt;" style="text;html=1;align=center;verticalAlign=middle;whiteSpace=wrap;rounded=0;" vertex="1" parent="1">
          <mxGeometry x="480" y="120" width="60" height="30" as="geometry" />
        </mxCell>
        <mxCell id="R5m0K3MdsQXHiXzFZC0X-65" value="&lt;font style=&quot;font-size: 18px;&quot;&gt;Metrics &amp;amp; Evaluation&lt;/font&gt;" style="text;html=1;align=center;verticalAlign=middle;whiteSpace=wrap;rounded=0;" vertex="1" parent="1">
          <mxGeometry x="480" y="530" width="60" height="30" as="geometry" />
        </mxCell>
        <mxCell id="R5m0K3MdsQXHiXzFZC0X-66" value="&lt;span style=&quot;font-size: 18px;&quot;&gt;Infrastructure&lt;/span&gt;" style="text;html=1;align=center;verticalAlign=middle;whiteSpace=wrap;rounded=0;" vertex="1" parent="1">
          <mxGeometry x="730" y="550" width="60" height="30" as="geometry" />
        </mxCell>
        <mxCell id="R5m0K3MdsQXHiXzFZC0X-67" value="&lt;span style=&quot;font-size: 18px;&quot;&gt;Inference&lt;/span&gt;" style="text;html=1;align=center;verticalAlign=middle;whiteSpace=wrap;rounded=0;" vertex="1" parent="1">
          <mxGeometry x="717" y="160" width="60" height="30" as="geometry" />
        </mxCell>
        <mxCell id="R5m0K3MdsQXHiXzFZC0X-69" value="&lt;span style=&quot;font-size: 18px;&quot;&gt;Background&lt;/span&gt;" style="text;html=1;align=center;verticalAlign=middle;whiteSpace=wrap;rounded=0;" vertex="1" parent="1">
          <mxGeometry x="40" y="90" width="60" height="30" as="geometry" />
        </mxCell>
        <mxCell id="R5m0K3MdsQXHiXzFZC0X-70" value="&lt;span style=&quot;font-size: 18px;&quot;&gt;Value proposition&lt;/span&gt;" style="text;html=1;align=center;verticalAlign=middle;whiteSpace=wrap;rounded=0;" vertex="1" parent="1">
          <mxGeometry x="68" y="405" width="60" height="30" as="geometry" />
        </mxCell>
        <mxCell id="R5m0K3MdsQXHiXzFZC0X-71" value="&lt;span style=&quot;font-size: 18px;&quot;&gt;Data verification and governance&lt;/span&gt;" style="text;html=1;align=center;verticalAlign=middle;whiteSpace=wrap;rounded=0;" vertex="1" parent="1">
          <mxGeometry x="231" y="460" width="146" height="30" as="geometry" />
        </mxCell>
        <mxCell id="R5m0K3MdsQXHiXzFZC0X-72" value="&lt;span style=&quot;font-size: 18px;&quot;&gt;Data collection&lt;/span&gt;" style="text;html=1;align=center;verticalAlign=middle;whiteSpace=wrap;rounded=0;" vertex="1" parent="1">
          <mxGeometry x="292" y="160" width="138" height="30" as="geometry" />
        </mxCell>
        <mxCell id="R5m0K3MdsQXHiXzFZC0X-73" value="&lt;span style=&quot;font-size: 18px;&quot;&gt;Feedback&lt;/span&gt;" style="text;html=1;align=center;verticalAlign=middle;whiteSpace=wrap;rounded=0;" vertex="1" parent="1">
          <mxGeometry x="970" y="210" width="60" height="30" as="geometry" />
        </mxCell>
        <mxCell id="R5m0K3MdsQXHiXzFZC0X-75" value="&lt;span style=&quot;font-size: 18px;&quot;&gt;Lifetime&lt;/span&gt;" style="text;html=1;align=center;verticalAlign=middle;whiteSpace=wrap;rounded=0;" vertex="1" parent="1">
          <mxGeometry x="960" y="540" width="60" height="30" as="geometry" />
        </mxCell>
        <mxCell id="R5m0K3MdsQXHiXzFZC0X-76" value="&lt;span style=&quot;font-size: 18px;&quot;&gt;Decision&lt;/span&gt;" style="text;html=1;align=center;verticalAlign=middle;whiteSpace=wrap;rounded=0;" vertex="1" parent="1">
          <mxGeometry x="730" y="330" width="60" height="30" as="geometry" />
        </mxCell>
        <mxCell id="R5m0K3MdsQXHiXzFZC0X-77" value="&lt;span style=&quot;font-size: 18px;&quot;&gt;Model propergation&lt;/span&gt;" style="text;html=1;align=center;verticalAlign=middle;whiteSpace=wrap;rounded=0;" vertex="1" parent="1">
          <mxGeometry x="500" y="640" width="60" height="30" as="geometry" />
        </mxCell>
        <mxCell id="R5m0K3MdsQXHiXzFZC0X-78" value="" style="rounded=0;whiteSpace=wrap;html=1;movable=1;resizable=1;rotatable=1;deletable=1;editable=1;locked=0;connectable=1;shadow=1;strokeColor=#007FFF;strokeWidth=3;" vertex="1" parent="1">
          <mxGeometry x="10" y="560" width="216" height="235" as="geometry" />
        </mxCell>
        <mxCell id="R5m0K3MdsQXHiXzFZC0X-68" value="&lt;font style=&quot;font-size: 18px;&quot;&gt;Objectives&lt;/font&gt;" style="text;html=1;align=center;verticalAlign=middle;whiteSpace=wrap;rounded=0;" vertex="1" parent="1">
          <mxGeometry x="80" y="630" width="60" height="30" as="geometry" />
        </mxCell>
      </root>
    </mxGraphModel>
  </diagram>
</mxfile>
